G04 EAGLE Gerber RS-274X export*
G75*
%MOMM*%
%FSLAX34Y34*%
%LPD*%
%IN*%
%IPPOS*%
%AMOC8*
5,1,8,0,0,1.08239X$1,22.5*%
G01*
%ADD10C,0.254000*%


D10*
X0Y0D02*
X1341376Y0D01*
X1341376Y531776D01*
X0Y531776D01*
X0Y0D01*
X82032Y63468D02*
X81961Y62390D01*
X81820Y61319D01*
X81610Y60259D01*
X81330Y59216D01*
X80983Y58193D01*
X80569Y57195D01*
X80092Y56226D01*
X79551Y55290D01*
X78951Y54392D01*
X78294Y53535D01*
X77581Y52723D01*
X76817Y51959D01*
X76005Y51247D01*
X75148Y50589D01*
X74250Y49989D01*
X73314Y49449D01*
X72345Y48971D01*
X71347Y48557D01*
X70324Y48210D01*
X69281Y47930D01*
X68221Y47720D01*
X67150Y47579D01*
X66072Y47508D01*
X64992Y47508D01*
X63914Y47579D01*
X62843Y47720D01*
X61783Y47930D01*
X60740Y48210D01*
X59717Y48557D01*
X58719Y48971D01*
X57750Y49449D01*
X56814Y49989D01*
X55916Y50589D01*
X55059Y51247D01*
X54247Y51959D01*
X53483Y52723D01*
X52771Y53535D01*
X52113Y54392D01*
X51513Y55290D01*
X50973Y56226D01*
X50495Y57195D01*
X50081Y58193D01*
X49734Y59216D01*
X49454Y60259D01*
X49244Y61319D01*
X49103Y62390D01*
X49032Y63468D01*
X49032Y64548D01*
X49103Y65626D01*
X49244Y66697D01*
X49454Y67757D01*
X49734Y68800D01*
X50081Y69823D01*
X50495Y70821D01*
X50973Y71790D01*
X51513Y72726D01*
X52113Y73624D01*
X52771Y74481D01*
X53483Y75293D01*
X54247Y76057D01*
X55059Y76770D01*
X55916Y77427D01*
X56814Y78027D01*
X57750Y78568D01*
X58719Y79045D01*
X59717Y79459D01*
X60740Y79806D01*
X61783Y80086D01*
X62843Y80296D01*
X63914Y80437D01*
X64992Y80508D01*
X66072Y80508D01*
X67150Y80437D01*
X68221Y80296D01*
X69281Y80086D01*
X70324Y79806D01*
X71347Y79459D01*
X72345Y79045D01*
X73314Y78568D01*
X74250Y78027D01*
X75148Y77427D01*
X76005Y76770D01*
X76817Y76057D01*
X77581Y75293D01*
X78294Y74481D01*
X78951Y73624D01*
X79551Y72726D01*
X80092Y71790D01*
X80569Y70821D01*
X80983Y69823D01*
X81330Y68800D01*
X81610Y67757D01*
X81820Y66697D01*
X81961Y65626D01*
X82032Y64548D01*
X82032Y63468D01*
X1289548Y48228D02*
X1289477Y47150D01*
X1289336Y46079D01*
X1289126Y45019D01*
X1288846Y43976D01*
X1288499Y42953D01*
X1288085Y41955D01*
X1287608Y40986D01*
X1287067Y40050D01*
X1286467Y39152D01*
X1285810Y38295D01*
X1285097Y37483D01*
X1284333Y36719D01*
X1283521Y36007D01*
X1282664Y35349D01*
X1281766Y34749D01*
X1280830Y34209D01*
X1279861Y33731D01*
X1278863Y33317D01*
X1277840Y32970D01*
X1276797Y32690D01*
X1275737Y32480D01*
X1274666Y32339D01*
X1273588Y32268D01*
X1272508Y32268D01*
X1271430Y32339D01*
X1270359Y32480D01*
X1269299Y32690D01*
X1268256Y32970D01*
X1267233Y33317D01*
X1266235Y33731D01*
X1265266Y34209D01*
X1264330Y34749D01*
X1263432Y35349D01*
X1262575Y36007D01*
X1261763Y36719D01*
X1260999Y37483D01*
X1260287Y38295D01*
X1259629Y39152D01*
X1259029Y40050D01*
X1258489Y40986D01*
X1258011Y41955D01*
X1257597Y42953D01*
X1257250Y43976D01*
X1256970Y45019D01*
X1256760Y46079D01*
X1256619Y47150D01*
X1256548Y48228D01*
X1256548Y49308D01*
X1256619Y50386D01*
X1256760Y51457D01*
X1256970Y52517D01*
X1257250Y53560D01*
X1257597Y54583D01*
X1258011Y55581D01*
X1258489Y56550D01*
X1259029Y57486D01*
X1259629Y58384D01*
X1260287Y59241D01*
X1260999Y60053D01*
X1261763Y60817D01*
X1262575Y61530D01*
X1263432Y62187D01*
X1264330Y62787D01*
X1265266Y63328D01*
X1266235Y63805D01*
X1267233Y64219D01*
X1268256Y64566D01*
X1269299Y64846D01*
X1270359Y65056D01*
X1271430Y65197D01*
X1272508Y65268D01*
X1273588Y65268D01*
X1274666Y65197D01*
X1275737Y65056D01*
X1276797Y64846D01*
X1277840Y64566D01*
X1278863Y64219D01*
X1279861Y63805D01*
X1280830Y63328D01*
X1281766Y62787D01*
X1282664Y62187D01*
X1283521Y61530D01*
X1284333Y60817D01*
X1285097Y60053D01*
X1285810Y59241D01*
X1286467Y58384D01*
X1287067Y57486D01*
X1287608Y56550D01*
X1288085Y55581D01*
X1288499Y54583D01*
X1288846Y53560D01*
X1289126Y52517D01*
X1289336Y51457D01*
X1289477Y50386D01*
X1289548Y49308D01*
X1289548Y48228D01*
X1290056Y479012D02*
X1289985Y477934D01*
X1289844Y476863D01*
X1289634Y475803D01*
X1289354Y474760D01*
X1289007Y473737D01*
X1288593Y472739D01*
X1288116Y471770D01*
X1287575Y470834D01*
X1286975Y469936D01*
X1286318Y469079D01*
X1285605Y468267D01*
X1284841Y467503D01*
X1284029Y466791D01*
X1283172Y466133D01*
X1282274Y465533D01*
X1281338Y464993D01*
X1280369Y464515D01*
X1279371Y464101D01*
X1278348Y463754D01*
X1277305Y463474D01*
X1276245Y463264D01*
X1275174Y463123D01*
X1274096Y463052D01*
X1273016Y463052D01*
X1271938Y463123D01*
X1270867Y463264D01*
X1269807Y463474D01*
X1268764Y463754D01*
X1267741Y464101D01*
X1266743Y464515D01*
X1265774Y464993D01*
X1264838Y465533D01*
X1263940Y466133D01*
X1263083Y466791D01*
X1262271Y467503D01*
X1261507Y468267D01*
X1260795Y469079D01*
X1260137Y469936D01*
X1259537Y470834D01*
X1258997Y471770D01*
X1258519Y472739D01*
X1258105Y473737D01*
X1257758Y474760D01*
X1257478Y475803D01*
X1257268Y476863D01*
X1257127Y477934D01*
X1257056Y479012D01*
X1257056Y480092D01*
X1257127Y481170D01*
X1257268Y482241D01*
X1257478Y483301D01*
X1257758Y484344D01*
X1258105Y485367D01*
X1258519Y486365D01*
X1258997Y487334D01*
X1259537Y488270D01*
X1260137Y489168D01*
X1260795Y490025D01*
X1261507Y490837D01*
X1262271Y491601D01*
X1263083Y492314D01*
X1263940Y492971D01*
X1264838Y493571D01*
X1265774Y494112D01*
X1266743Y494589D01*
X1267741Y495003D01*
X1268764Y495350D01*
X1269807Y495630D01*
X1270867Y495840D01*
X1271938Y495981D01*
X1273016Y496052D01*
X1274096Y496052D01*
X1275174Y495981D01*
X1276245Y495840D01*
X1277305Y495630D01*
X1278348Y495350D01*
X1279371Y495003D01*
X1280369Y494589D01*
X1281338Y494112D01*
X1282274Y493571D01*
X1283172Y492971D01*
X1284029Y492314D01*
X1284841Y491601D01*
X1285605Y490837D01*
X1286318Y490025D01*
X1286975Y489168D01*
X1287575Y488270D01*
X1288116Y487334D01*
X1288593Y486365D01*
X1289007Y485367D01*
X1289354Y484344D01*
X1289634Y483301D01*
X1289844Y482241D01*
X1289985Y481170D01*
X1290056Y480092D01*
X1290056Y479012D01*
M02*
