G04 EAGLE Gerber RS-274X export*
G75*
%MOMM*%
%FSLAX34Y34*%
%LPD*%
%INSilkscreen Bottom*%
%IPPOS*%
%AMOC8*
5,1,8,0,0,1.08239X$1,22.5*%
G01*
%ADD10C,0.101600*%
%ADD11C,0.200000*%
%ADD12C,0.127000*%


D10*
X195580Y170801D02*
X195580Y168204D01*
X195582Y168105D01*
X195588Y168005D01*
X195597Y167906D01*
X195610Y167808D01*
X195627Y167710D01*
X195648Y167612D01*
X195673Y167516D01*
X195701Y167421D01*
X195733Y167327D01*
X195768Y167234D01*
X195807Y167142D01*
X195850Y167052D01*
X195895Y166964D01*
X195945Y166877D01*
X195997Y166793D01*
X196053Y166710D01*
X196111Y166630D01*
X196173Y166552D01*
X196238Y166477D01*
X196306Y166404D01*
X196376Y166334D01*
X196449Y166266D01*
X196524Y166201D01*
X196602Y166139D01*
X196682Y166081D01*
X196765Y166025D01*
X196849Y165973D01*
X196936Y165923D01*
X197024Y165878D01*
X197114Y165835D01*
X197206Y165796D01*
X197299Y165761D01*
X197393Y165729D01*
X197488Y165701D01*
X197584Y165676D01*
X197682Y165655D01*
X197780Y165638D01*
X197878Y165625D01*
X197977Y165616D01*
X198077Y165610D01*
X198176Y165608D01*
X204668Y165608D01*
X204767Y165610D01*
X204867Y165616D01*
X204966Y165625D01*
X205064Y165638D01*
X205162Y165655D01*
X205260Y165676D01*
X205356Y165701D01*
X205451Y165729D01*
X205545Y165761D01*
X205638Y165796D01*
X205730Y165835D01*
X205820Y165878D01*
X205908Y165923D01*
X205995Y165973D01*
X206079Y166025D01*
X206162Y166081D01*
X206242Y166139D01*
X206320Y166201D01*
X206395Y166266D01*
X206468Y166334D01*
X206538Y166404D01*
X206606Y166477D01*
X206671Y166552D01*
X206733Y166630D01*
X206791Y166710D01*
X206847Y166793D01*
X206899Y166877D01*
X206949Y166964D01*
X206994Y167052D01*
X207037Y167142D01*
X207076Y167234D01*
X207111Y167326D01*
X207143Y167421D01*
X207171Y167516D01*
X207196Y167612D01*
X207217Y167710D01*
X207234Y167808D01*
X207247Y167906D01*
X207256Y168005D01*
X207262Y168105D01*
X207264Y168204D01*
X207264Y170801D01*
X207264Y178736D02*
X207262Y178843D01*
X207256Y178949D01*
X207246Y179055D01*
X207233Y179161D01*
X207215Y179267D01*
X207194Y179371D01*
X207169Y179475D01*
X207140Y179578D01*
X207108Y179679D01*
X207071Y179779D01*
X207031Y179878D01*
X206988Y179976D01*
X206941Y180072D01*
X206890Y180166D01*
X206836Y180258D01*
X206779Y180348D01*
X206719Y180436D01*
X206655Y180521D01*
X206588Y180604D01*
X206518Y180685D01*
X206446Y180763D01*
X206370Y180839D01*
X206292Y180911D01*
X206211Y180981D01*
X206128Y181048D01*
X206043Y181112D01*
X205955Y181172D01*
X205865Y181229D01*
X205773Y181283D01*
X205679Y181334D01*
X205583Y181381D01*
X205485Y181424D01*
X205386Y181464D01*
X205286Y181501D01*
X205185Y181533D01*
X205082Y181562D01*
X204978Y181587D01*
X204874Y181608D01*
X204768Y181626D01*
X204662Y181639D01*
X204556Y181649D01*
X204450Y181655D01*
X204343Y181657D01*
X207264Y178736D02*
X207262Y178615D01*
X207256Y178494D01*
X207246Y178374D01*
X207233Y178253D01*
X207215Y178134D01*
X207194Y178014D01*
X207169Y177896D01*
X207140Y177779D01*
X207107Y177662D01*
X207071Y177547D01*
X207030Y177433D01*
X206987Y177320D01*
X206939Y177208D01*
X206888Y177099D01*
X206833Y176991D01*
X206775Y176884D01*
X206714Y176780D01*
X206649Y176678D01*
X206581Y176578D01*
X206510Y176480D01*
X206436Y176384D01*
X206359Y176291D01*
X206278Y176201D01*
X206195Y176113D01*
X206109Y176028D01*
X206020Y175945D01*
X205929Y175866D01*
X205835Y175789D01*
X205739Y175716D01*
X205641Y175646D01*
X205540Y175579D01*
X205437Y175515D01*
X205332Y175455D01*
X205225Y175398D01*
X205117Y175344D01*
X205007Y175294D01*
X204895Y175248D01*
X204782Y175205D01*
X204667Y175166D01*
X202071Y180684D02*
X202148Y180763D01*
X202229Y180839D01*
X202312Y180912D01*
X202397Y180982D01*
X202485Y181049D01*
X202575Y181113D01*
X202667Y181173D01*
X202762Y181230D01*
X202858Y181284D01*
X202956Y181335D01*
X203056Y181382D01*
X203158Y181426D01*
X203261Y181466D01*
X203365Y181502D01*
X203471Y181534D01*
X203577Y181563D01*
X203685Y181588D01*
X203793Y181610D01*
X203903Y181627D01*
X204012Y181641D01*
X204122Y181650D01*
X204233Y181656D01*
X204343Y181658D01*
X202071Y180684D02*
X195580Y175166D01*
X195580Y181657D01*
X276860Y170293D02*
X276860Y167696D01*
X276862Y167597D01*
X276868Y167497D01*
X276877Y167398D01*
X276890Y167300D01*
X276907Y167202D01*
X276928Y167104D01*
X276953Y167008D01*
X276981Y166913D01*
X277013Y166819D01*
X277048Y166726D01*
X277087Y166634D01*
X277130Y166544D01*
X277175Y166456D01*
X277225Y166369D01*
X277277Y166285D01*
X277333Y166202D01*
X277391Y166122D01*
X277453Y166044D01*
X277518Y165969D01*
X277586Y165896D01*
X277656Y165826D01*
X277729Y165758D01*
X277804Y165693D01*
X277882Y165631D01*
X277962Y165573D01*
X278045Y165517D01*
X278129Y165465D01*
X278216Y165415D01*
X278304Y165370D01*
X278394Y165327D01*
X278486Y165288D01*
X278579Y165253D01*
X278673Y165221D01*
X278768Y165193D01*
X278864Y165168D01*
X278962Y165147D01*
X279060Y165130D01*
X279158Y165117D01*
X279257Y165108D01*
X279357Y165102D01*
X279456Y165100D01*
X285948Y165100D01*
X286047Y165102D01*
X286147Y165108D01*
X286246Y165117D01*
X286344Y165130D01*
X286442Y165147D01*
X286540Y165168D01*
X286636Y165193D01*
X286731Y165221D01*
X286825Y165253D01*
X286918Y165288D01*
X287010Y165327D01*
X287100Y165370D01*
X287188Y165415D01*
X287275Y165465D01*
X287359Y165517D01*
X287442Y165573D01*
X287522Y165631D01*
X287600Y165693D01*
X287675Y165758D01*
X287748Y165826D01*
X287818Y165896D01*
X287886Y165969D01*
X287951Y166044D01*
X288013Y166122D01*
X288071Y166202D01*
X288127Y166285D01*
X288179Y166369D01*
X288229Y166456D01*
X288274Y166544D01*
X288317Y166634D01*
X288356Y166726D01*
X288391Y166818D01*
X288423Y166913D01*
X288451Y167008D01*
X288476Y167104D01*
X288497Y167202D01*
X288514Y167300D01*
X288527Y167398D01*
X288536Y167497D01*
X288542Y167597D01*
X288544Y167696D01*
X288544Y170293D01*
X276860Y174658D02*
X276860Y177904D01*
X276862Y178017D01*
X276868Y178130D01*
X276878Y178243D01*
X276892Y178356D01*
X276909Y178468D01*
X276931Y178579D01*
X276956Y178689D01*
X276986Y178799D01*
X277019Y178907D01*
X277056Y179014D01*
X277096Y179120D01*
X277141Y179224D01*
X277189Y179327D01*
X277240Y179428D01*
X277295Y179527D01*
X277353Y179624D01*
X277415Y179719D01*
X277480Y179812D01*
X277548Y179902D01*
X277619Y179990D01*
X277694Y180076D01*
X277771Y180159D01*
X277851Y180239D01*
X277934Y180316D01*
X278020Y180391D01*
X278108Y180462D01*
X278198Y180530D01*
X278291Y180595D01*
X278386Y180657D01*
X278483Y180715D01*
X278582Y180770D01*
X278683Y180821D01*
X278786Y180869D01*
X278890Y180914D01*
X278996Y180954D01*
X279103Y180991D01*
X279211Y181024D01*
X279321Y181054D01*
X279431Y181079D01*
X279542Y181101D01*
X279654Y181118D01*
X279767Y181132D01*
X279880Y181142D01*
X279993Y181148D01*
X280106Y181150D01*
X280219Y181148D01*
X280332Y181142D01*
X280445Y181132D01*
X280558Y181118D01*
X280670Y181101D01*
X280781Y181079D01*
X280891Y181054D01*
X281001Y181024D01*
X281109Y180991D01*
X281216Y180954D01*
X281322Y180914D01*
X281426Y180869D01*
X281529Y180821D01*
X281630Y180770D01*
X281729Y180715D01*
X281826Y180657D01*
X281921Y180595D01*
X282014Y180530D01*
X282104Y180462D01*
X282192Y180391D01*
X282278Y180316D01*
X282361Y180239D01*
X282441Y180159D01*
X282518Y180076D01*
X282593Y179990D01*
X282664Y179902D01*
X282732Y179812D01*
X282797Y179719D01*
X282859Y179624D01*
X282917Y179527D01*
X282972Y179428D01*
X283023Y179327D01*
X283071Y179224D01*
X283116Y179120D01*
X283156Y179014D01*
X283193Y178907D01*
X283226Y178799D01*
X283256Y178689D01*
X283281Y178579D01*
X283303Y178468D01*
X283320Y178356D01*
X283334Y178243D01*
X283344Y178130D01*
X283350Y178017D01*
X283352Y177904D01*
X288544Y178553D02*
X288544Y174658D01*
X288544Y178553D02*
X288542Y178654D01*
X288536Y178754D01*
X288526Y178854D01*
X288513Y178954D01*
X288495Y179053D01*
X288474Y179152D01*
X288449Y179249D01*
X288420Y179346D01*
X288387Y179441D01*
X288351Y179535D01*
X288311Y179627D01*
X288268Y179718D01*
X288221Y179807D01*
X288171Y179894D01*
X288117Y179980D01*
X288060Y180063D01*
X288000Y180143D01*
X287937Y180222D01*
X287870Y180298D01*
X287801Y180371D01*
X287729Y180441D01*
X287655Y180509D01*
X287578Y180574D01*
X287498Y180635D01*
X287416Y180694D01*
X287332Y180749D01*
X287246Y180801D01*
X287158Y180850D01*
X287068Y180895D01*
X286976Y180937D01*
X286883Y180975D01*
X286788Y181009D01*
X286693Y181040D01*
X286596Y181067D01*
X286498Y181090D01*
X286399Y181110D01*
X286299Y181125D01*
X286199Y181137D01*
X286099Y181145D01*
X285998Y181149D01*
X285898Y181149D01*
X285797Y181145D01*
X285697Y181137D01*
X285597Y181125D01*
X285497Y181110D01*
X285398Y181090D01*
X285300Y181067D01*
X285203Y181040D01*
X285108Y181009D01*
X285013Y180975D01*
X284920Y180937D01*
X284828Y180895D01*
X284738Y180850D01*
X284650Y180801D01*
X284564Y180749D01*
X284480Y180694D01*
X284398Y180635D01*
X284318Y180574D01*
X284241Y180509D01*
X284167Y180441D01*
X284095Y180371D01*
X284026Y180298D01*
X283959Y180222D01*
X283896Y180143D01*
X283836Y180063D01*
X283779Y179980D01*
X283725Y179894D01*
X283675Y179807D01*
X283628Y179718D01*
X283585Y179627D01*
X283545Y179535D01*
X283509Y179441D01*
X283476Y179346D01*
X283447Y179249D01*
X283422Y179152D01*
X283401Y179053D01*
X283383Y178954D01*
X283370Y178854D01*
X283360Y178754D01*
X283354Y178654D01*
X283352Y178553D01*
X283351Y178553D02*
X283351Y175956D01*
X632968Y129352D02*
X632968Y126755D01*
X632970Y126656D01*
X632976Y126556D01*
X632985Y126457D01*
X632998Y126359D01*
X633015Y126261D01*
X633036Y126163D01*
X633061Y126067D01*
X633089Y125972D01*
X633121Y125878D01*
X633156Y125785D01*
X633195Y125693D01*
X633238Y125603D01*
X633283Y125515D01*
X633333Y125428D01*
X633385Y125344D01*
X633441Y125261D01*
X633499Y125181D01*
X633561Y125103D01*
X633626Y125028D01*
X633694Y124955D01*
X633764Y124885D01*
X633837Y124817D01*
X633912Y124752D01*
X633990Y124690D01*
X634070Y124632D01*
X634153Y124576D01*
X634237Y124524D01*
X634324Y124474D01*
X634412Y124429D01*
X634502Y124386D01*
X634594Y124347D01*
X634687Y124312D01*
X634781Y124280D01*
X634876Y124252D01*
X634972Y124227D01*
X635070Y124206D01*
X635168Y124189D01*
X635266Y124176D01*
X635365Y124167D01*
X635465Y124161D01*
X635564Y124159D01*
X642056Y124159D01*
X642155Y124161D01*
X642255Y124167D01*
X642354Y124176D01*
X642452Y124189D01*
X642550Y124206D01*
X642648Y124227D01*
X642744Y124252D01*
X642839Y124280D01*
X642933Y124312D01*
X643026Y124347D01*
X643118Y124386D01*
X643208Y124429D01*
X643296Y124474D01*
X643383Y124524D01*
X643467Y124576D01*
X643550Y124632D01*
X643630Y124690D01*
X643708Y124752D01*
X643783Y124817D01*
X643856Y124885D01*
X643926Y124955D01*
X643994Y125028D01*
X644059Y125103D01*
X644121Y125181D01*
X644179Y125261D01*
X644235Y125344D01*
X644287Y125428D01*
X644337Y125515D01*
X644382Y125603D01*
X644425Y125693D01*
X644464Y125785D01*
X644499Y125877D01*
X644531Y125972D01*
X644559Y126067D01*
X644584Y126163D01*
X644605Y126261D01*
X644622Y126359D01*
X644635Y126457D01*
X644644Y126556D01*
X644650Y126656D01*
X644652Y126755D01*
X644652Y129352D01*
X644652Y136313D02*
X635564Y133717D01*
X635564Y140208D01*
X638161Y138261D02*
X632968Y138261D01*
X859724Y131064D02*
X862321Y131064D01*
X862420Y131066D01*
X862520Y131072D01*
X862619Y131081D01*
X862717Y131094D01*
X862815Y131111D01*
X862913Y131132D01*
X863009Y131157D01*
X863104Y131185D01*
X863198Y131217D01*
X863291Y131252D01*
X863383Y131291D01*
X863473Y131334D01*
X863561Y131379D01*
X863648Y131429D01*
X863732Y131481D01*
X863815Y131537D01*
X863895Y131595D01*
X863973Y131657D01*
X864048Y131722D01*
X864121Y131790D01*
X864191Y131860D01*
X864259Y131933D01*
X864324Y132008D01*
X864386Y132086D01*
X864444Y132166D01*
X864500Y132249D01*
X864552Y132333D01*
X864602Y132420D01*
X864647Y132508D01*
X864690Y132598D01*
X864729Y132690D01*
X864764Y132783D01*
X864796Y132877D01*
X864824Y132972D01*
X864849Y133068D01*
X864870Y133166D01*
X864887Y133264D01*
X864900Y133362D01*
X864909Y133461D01*
X864915Y133561D01*
X864917Y133660D01*
X864917Y140152D01*
X864915Y140251D01*
X864909Y140351D01*
X864900Y140450D01*
X864887Y140548D01*
X864870Y140646D01*
X864849Y140744D01*
X864824Y140840D01*
X864796Y140935D01*
X864764Y141029D01*
X864729Y141122D01*
X864690Y141214D01*
X864647Y141304D01*
X864602Y141392D01*
X864552Y141479D01*
X864500Y141563D01*
X864444Y141646D01*
X864386Y141726D01*
X864324Y141804D01*
X864259Y141879D01*
X864191Y141952D01*
X864121Y142022D01*
X864048Y142090D01*
X863973Y142155D01*
X863895Y142217D01*
X863815Y142275D01*
X863732Y142331D01*
X863648Y142383D01*
X863561Y142433D01*
X863473Y142478D01*
X863383Y142521D01*
X863291Y142560D01*
X863198Y142595D01*
X863104Y142627D01*
X863009Y142655D01*
X862913Y142680D01*
X862815Y142701D01*
X862717Y142718D01*
X862619Y142731D01*
X862520Y142740D01*
X862420Y142746D01*
X862321Y142748D01*
X859724Y142748D01*
X855359Y131064D02*
X851464Y131064D01*
X851365Y131066D01*
X851265Y131072D01*
X851166Y131081D01*
X851068Y131094D01*
X850970Y131111D01*
X850872Y131132D01*
X850776Y131157D01*
X850681Y131185D01*
X850587Y131217D01*
X850494Y131252D01*
X850402Y131291D01*
X850312Y131334D01*
X850224Y131379D01*
X850137Y131429D01*
X850053Y131481D01*
X849970Y131537D01*
X849890Y131595D01*
X849812Y131657D01*
X849737Y131722D01*
X849664Y131790D01*
X849594Y131860D01*
X849526Y131933D01*
X849461Y132008D01*
X849399Y132086D01*
X849341Y132166D01*
X849285Y132249D01*
X849233Y132333D01*
X849183Y132420D01*
X849138Y132508D01*
X849095Y132598D01*
X849056Y132690D01*
X849021Y132783D01*
X848989Y132877D01*
X848961Y132972D01*
X848936Y133068D01*
X848915Y133166D01*
X848898Y133264D01*
X848885Y133362D01*
X848876Y133461D01*
X848870Y133561D01*
X848868Y133660D01*
X848868Y134959D01*
X848870Y135058D01*
X848876Y135158D01*
X848885Y135257D01*
X848898Y135355D01*
X848915Y135453D01*
X848936Y135551D01*
X848961Y135647D01*
X848989Y135742D01*
X849021Y135836D01*
X849056Y135929D01*
X849095Y136021D01*
X849138Y136111D01*
X849183Y136199D01*
X849233Y136286D01*
X849285Y136370D01*
X849341Y136453D01*
X849399Y136533D01*
X849461Y136611D01*
X849526Y136686D01*
X849594Y136759D01*
X849664Y136829D01*
X849737Y136897D01*
X849812Y136962D01*
X849890Y137024D01*
X849970Y137082D01*
X850053Y137138D01*
X850137Y137190D01*
X850224Y137240D01*
X850312Y137285D01*
X850402Y137328D01*
X850494Y137367D01*
X850587Y137402D01*
X850681Y137434D01*
X850776Y137462D01*
X850872Y137487D01*
X850970Y137508D01*
X851068Y137525D01*
X851166Y137538D01*
X851265Y137547D01*
X851365Y137553D01*
X851464Y137555D01*
X855359Y137555D01*
X855359Y142748D01*
X848868Y142748D01*
D11*
X142140Y223596D02*
X142140Y296596D01*
X142140Y223596D02*
X193140Y223596D01*
X193140Y296596D01*
X142140Y296596D01*
X144440Y300096D02*
X144440Y315596D01*
D10*
X149804Y256359D02*
X154996Y256359D01*
X154996Y256358D02*
X155109Y256360D01*
X155222Y256366D01*
X155335Y256376D01*
X155448Y256390D01*
X155560Y256407D01*
X155671Y256429D01*
X155781Y256454D01*
X155891Y256484D01*
X155999Y256517D01*
X156106Y256554D01*
X156212Y256594D01*
X156316Y256639D01*
X156419Y256687D01*
X156520Y256738D01*
X156619Y256793D01*
X156716Y256851D01*
X156811Y256913D01*
X156904Y256978D01*
X156994Y257046D01*
X157082Y257117D01*
X157168Y257192D01*
X157251Y257269D01*
X157331Y257349D01*
X157408Y257432D01*
X157483Y257518D01*
X157554Y257606D01*
X157622Y257696D01*
X157687Y257789D01*
X157749Y257884D01*
X157807Y257981D01*
X157862Y258080D01*
X157913Y258181D01*
X157961Y258284D01*
X158006Y258388D01*
X158046Y258494D01*
X158083Y258601D01*
X158116Y258709D01*
X158146Y258819D01*
X158171Y258929D01*
X158193Y259040D01*
X158210Y259152D01*
X158224Y259265D01*
X158234Y259378D01*
X158240Y259491D01*
X158242Y259604D01*
X158240Y259717D01*
X158234Y259830D01*
X158224Y259943D01*
X158210Y260056D01*
X158193Y260168D01*
X158171Y260279D01*
X158146Y260389D01*
X158116Y260499D01*
X158083Y260607D01*
X158046Y260714D01*
X158006Y260820D01*
X157961Y260924D01*
X157913Y261027D01*
X157862Y261128D01*
X157807Y261227D01*
X157749Y261324D01*
X157687Y261419D01*
X157622Y261512D01*
X157554Y261602D01*
X157483Y261690D01*
X157408Y261776D01*
X157331Y261859D01*
X157251Y261939D01*
X157168Y262016D01*
X157082Y262091D01*
X156994Y262162D01*
X156904Y262230D01*
X156811Y262295D01*
X156716Y262357D01*
X156619Y262415D01*
X156520Y262470D01*
X156419Y262521D01*
X156316Y262569D01*
X156212Y262614D01*
X156106Y262654D01*
X155999Y262691D01*
X155891Y262724D01*
X155781Y262754D01*
X155671Y262779D01*
X155560Y262801D01*
X155448Y262818D01*
X155335Y262832D01*
X155222Y262842D01*
X155109Y262848D01*
X154996Y262850D01*
X149804Y262850D01*
X149691Y262848D01*
X149578Y262842D01*
X149465Y262832D01*
X149352Y262818D01*
X149240Y262801D01*
X149129Y262779D01*
X149019Y262754D01*
X148909Y262724D01*
X148801Y262691D01*
X148694Y262654D01*
X148588Y262614D01*
X148484Y262569D01*
X148381Y262521D01*
X148280Y262470D01*
X148181Y262415D01*
X148084Y262357D01*
X147989Y262295D01*
X147896Y262230D01*
X147806Y262162D01*
X147718Y262091D01*
X147632Y262016D01*
X147549Y261939D01*
X147469Y261859D01*
X147392Y261776D01*
X147317Y261690D01*
X147246Y261602D01*
X147178Y261512D01*
X147113Y261419D01*
X147051Y261324D01*
X146993Y261227D01*
X146938Y261128D01*
X146887Y261027D01*
X146839Y260924D01*
X146794Y260820D01*
X146754Y260714D01*
X146717Y260607D01*
X146684Y260499D01*
X146654Y260389D01*
X146629Y260279D01*
X146607Y260168D01*
X146590Y260056D01*
X146576Y259943D01*
X146566Y259830D01*
X146560Y259717D01*
X146558Y259604D01*
X146560Y259491D01*
X146566Y259378D01*
X146576Y259265D01*
X146590Y259152D01*
X146607Y259040D01*
X146629Y258929D01*
X146654Y258819D01*
X146684Y258709D01*
X146717Y258601D01*
X146754Y258494D01*
X146794Y258388D01*
X146839Y258284D01*
X146887Y258181D01*
X146938Y258080D01*
X146993Y257981D01*
X147051Y257884D01*
X147113Y257789D01*
X147178Y257696D01*
X147246Y257606D01*
X147317Y257518D01*
X147392Y257432D01*
X147469Y257349D01*
X147549Y257269D01*
X147632Y257192D01*
X147718Y257117D01*
X147806Y257046D01*
X147896Y256978D01*
X147989Y256913D01*
X148084Y256851D01*
X148181Y256793D01*
X148280Y256738D01*
X148381Y256687D01*
X148484Y256639D01*
X148588Y256594D01*
X148694Y256554D01*
X148801Y256517D01*
X148909Y256484D01*
X149019Y256454D01*
X149129Y256429D01*
X149240Y256407D01*
X149352Y256390D01*
X149465Y256376D01*
X149578Y256366D01*
X149691Y256360D01*
X149804Y256358D01*
X149154Y261551D02*
X146558Y264148D01*
X146558Y267502D02*
X146558Y271397D01*
X146560Y271496D01*
X146566Y271596D01*
X146575Y271695D01*
X146588Y271793D01*
X146605Y271891D01*
X146626Y271989D01*
X146651Y272085D01*
X146679Y272180D01*
X146711Y272274D01*
X146746Y272367D01*
X146785Y272459D01*
X146828Y272549D01*
X146873Y272637D01*
X146923Y272724D01*
X146975Y272808D01*
X147031Y272891D01*
X147089Y272971D01*
X147151Y273049D01*
X147216Y273124D01*
X147284Y273197D01*
X147354Y273267D01*
X147427Y273335D01*
X147502Y273400D01*
X147580Y273462D01*
X147660Y273520D01*
X147743Y273576D01*
X147827Y273628D01*
X147914Y273678D01*
X148002Y273723D01*
X148092Y273766D01*
X148184Y273805D01*
X148277Y273840D01*
X148371Y273872D01*
X148466Y273900D01*
X148562Y273925D01*
X148660Y273946D01*
X148758Y273963D01*
X148856Y273976D01*
X148955Y273985D01*
X149055Y273991D01*
X149154Y273993D01*
X150453Y273993D01*
X150552Y273991D01*
X150652Y273985D01*
X150751Y273976D01*
X150849Y273963D01*
X150947Y273946D01*
X151045Y273925D01*
X151141Y273900D01*
X151236Y273872D01*
X151330Y273840D01*
X151423Y273805D01*
X151515Y273766D01*
X151605Y273723D01*
X151693Y273678D01*
X151780Y273628D01*
X151864Y273576D01*
X151947Y273520D01*
X152027Y273462D01*
X152105Y273400D01*
X152180Y273335D01*
X152253Y273267D01*
X152323Y273197D01*
X152391Y273124D01*
X152456Y273049D01*
X152518Y272971D01*
X152576Y272891D01*
X152632Y272808D01*
X152684Y272724D01*
X152734Y272637D01*
X152779Y272549D01*
X152822Y272459D01*
X152861Y272367D01*
X152896Y272274D01*
X152928Y272180D01*
X152956Y272085D01*
X152981Y271989D01*
X153002Y271891D01*
X153019Y271793D01*
X153032Y271695D01*
X153041Y271596D01*
X153047Y271496D01*
X153049Y271397D01*
X153049Y267502D01*
X158242Y267502D01*
X158242Y273993D01*
D11*
X223420Y296596D02*
X223420Y223596D01*
X274420Y223596D01*
X274420Y296596D01*
X223420Y296596D01*
X225720Y300096D02*
X225720Y315596D01*
D10*
X231084Y251279D02*
X236276Y251279D01*
X236276Y251278D02*
X236389Y251280D01*
X236502Y251286D01*
X236615Y251296D01*
X236728Y251310D01*
X236840Y251327D01*
X236951Y251349D01*
X237061Y251374D01*
X237171Y251404D01*
X237279Y251437D01*
X237386Y251474D01*
X237492Y251514D01*
X237596Y251559D01*
X237699Y251607D01*
X237800Y251658D01*
X237899Y251713D01*
X237996Y251771D01*
X238091Y251833D01*
X238184Y251898D01*
X238274Y251966D01*
X238362Y252037D01*
X238448Y252112D01*
X238531Y252189D01*
X238611Y252269D01*
X238688Y252352D01*
X238763Y252438D01*
X238834Y252526D01*
X238902Y252616D01*
X238967Y252709D01*
X239029Y252804D01*
X239087Y252901D01*
X239142Y253000D01*
X239193Y253101D01*
X239241Y253204D01*
X239286Y253308D01*
X239326Y253414D01*
X239363Y253521D01*
X239396Y253629D01*
X239426Y253739D01*
X239451Y253849D01*
X239473Y253960D01*
X239490Y254072D01*
X239504Y254185D01*
X239514Y254298D01*
X239520Y254411D01*
X239522Y254524D01*
X239520Y254637D01*
X239514Y254750D01*
X239504Y254863D01*
X239490Y254976D01*
X239473Y255088D01*
X239451Y255199D01*
X239426Y255309D01*
X239396Y255419D01*
X239363Y255527D01*
X239326Y255634D01*
X239286Y255740D01*
X239241Y255844D01*
X239193Y255947D01*
X239142Y256048D01*
X239087Y256147D01*
X239029Y256244D01*
X238967Y256339D01*
X238902Y256432D01*
X238834Y256522D01*
X238763Y256610D01*
X238688Y256696D01*
X238611Y256779D01*
X238531Y256859D01*
X238448Y256936D01*
X238362Y257011D01*
X238274Y257082D01*
X238184Y257150D01*
X238091Y257215D01*
X237996Y257277D01*
X237899Y257335D01*
X237800Y257390D01*
X237699Y257441D01*
X237596Y257489D01*
X237492Y257534D01*
X237386Y257574D01*
X237279Y257611D01*
X237171Y257644D01*
X237061Y257674D01*
X236951Y257699D01*
X236840Y257721D01*
X236728Y257738D01*
X236615Y257752D01*
X236502Y257762D01*
X236389Y257768D01*
X236276Y257770D01*
X231084Y257770D01*
X230971Y257768D01*
X230858Y257762D01*
X230745Y257752D01*
X230632Y257738D01*
X230520Y257721D01*
X230409Y257699D01*
X230299Y257674D01*
X230189Y257644D01*
X230081Y257611D01*
X229974Y257574D01*
X229868Y257534D01*
X229764Y257489D01*
X229661Y257441D01*
X229560Y257390D01*
X229461Y257335D01*
X229364Y257277D01*
X229269Y257215D01*
X229176Y257150D01*
X229086Y257082D01*
X228998Y257011D01*
X228912Y256936D01*
X228829Y256859D01*
X228749Y256779D01*
X228672Y256696D01*
X228597Y256610D01*
X228526Y256522D01*
X228458Y256432D01*
X228393Y256339D01*
X228331Y256244D01*
X228273Y256147D01*
X228218Y256048D01*
X228167Y255947D01*
X228119Y255844D01*
X228074Y255740D01*
X228034Y255634D01*
X227997Y255527D01*
X227964Y255419D01*
X227934Y255309D01*
X227909Y255199D01*
X227887Y255088D01*
X227870Y254976D01*
X227856Y254863D01*
X227846Y254750D01*
X227840Y254637D01*
X227838Y254524D01*
X227840Y254411D01*
X227846Y254298D01*
X227856Y254185D01*
X227870Y254072D01*
X227887Y253960D01*
X227909Y253849D01*
X227934Y253739D01*
X227964Y253629D01*
X227997Y253521D01*
X228034Y253414D01*
X228074Y253308D01*
X228119Y253204D01*
X228167Y253101D01*
X228218Y253000D01*
X228273Y252901D01*
X228331Y252804D01*
X228393Y252709D01*
X228458Y252616D01*
X228526Y252526D01*
X228597Y252438D01*
X228672Y252352D01*
X228749Y252269D01*
X228829Y252189D01*
X228912Y252112D01*
X228998Y252037D01*
X229086Y251966D01*
X229176Y251898D01*
X229269Y251833D01*
X229364Y251771D01*
X229461Y251713D01*
X229560Y251658D01*
X229661Y251607D01*
X229764Y251559D01*
X229868Y251514D01*
X229974Y251474D01*
X230081Y251437D01*
X230189Y251404D01*
X230299Y251374D01*
X230409Y251349D01*
X230520Y251327D01*
X230632Y251310D01*
X230745Y251296D01*
X230858Y251286D01*
X230971Y251280D01*
X231084Y251278D01*
X230434Y256471D02*
X227838Y259068D01*
X234329Y262422D02*
X234329Y266317D01*
X234327Y266416D01*
X234321Y266516D01*
X234312Y266615D01*
X234299Y266713D01*
X234282Y266811D01*
X234261Y266909D01*
X234236Y267005D01*
X234208Y267100D01*
X234176Y267194D01*
X234141Y267287D01*
X234102Y267379D01*
X234059Y267469D01*
X234014Y267557D01*
X233964Y267644D01*
X233912Y267728D01*
X233856Y267811D01*
X233798Y267891D01*
X233736Y267969D01*
X233671Y268044D01*
X233603Y268117D01*
X233533Y268187D01*
X233460Y268255D01*
X233385Y268320D01*
X233307Y268382D01*
X233227Y268440D01*
X233144Y268496D01*
X233060Y268548D01*
X232973Y268598D01*
X232885Y268643D01*
X232795Y268686D01*
X232703Y268725D01*
X232610Y268760D01*
X232516Y268792D01*
X232421Y268820D01*
X232325Y268845D01*
X232227Y268866D01*
X232129Y268883D01*
X232031Y268896D01*
X231932Y268905D01*
X231832Y268911D01*
X231733Y268913D01*
X231084Y268913D01*
X231084Y268914D02*
X230971Y268912D01*
X230858Y268906D01*
X230745Y268896D01*
X230632Y268882D01*
X230520Y268865D01*
X230409Y268843D01*
X230299Y268818D01*
X230189Y268788D01*
X230081Y268755D01*
X229974Y268718D01*
X229868Y268678D01*
X229764Y268633D01*
X229661Y268585D01*
X229560Y268534D01*
X229461Y268479D01*
X229364Y268421D01*
X229269Y268359D01*
X229176Y268294D01*
X229086Y268226D01*
X228998Y268155D01*
X228912Y268080D01*
X228829Y268003D01*
X228749Y267923D01*
X228672Y267840D01*
X228597Y267754D01*
X228526Y267666D01*
X228458Y267576D01*
X228393Y267483D01*
X228331Y267388D01*
X228273Y267291D01*
X228218Y267192D01*
X228167Y267091D01*
X228119Y266988D01*
X228074Y266884D01*
X228034Y266778D01*
X227997Y266671D01*
X227964Y266563D01*
X227934Y266453D01*
X227909Y266343D01*
X227887Y266232D01*
X227870Y266120D01*
X227856Y266007D01*
X227846Y265894D01*
X227840Y265781D01*
X227838Y265668D01*
X227840Y265555D01*
X227846Y265442D01*
X227856Y265329D01*
X227870Y265216D01*
X227887Y265104D01*
X227909Y264993D01*
X227934Y264883D01*
X227964Y264773D01*
X227997Y264665D01*
X228034Y264558D01*
X228074Y264452D01*
X228119Y264348D01*
X228167Y264245D01*
X228218Y264144D01*
X228273Y264045D01*
X228331Y263948D01*
X228393Y263853D01*
X228458Y263760D01*
X228526Y263670D01*
X228597Y263582D01*
X228672Y263496D01*
X228749Y263413D01*
X228829Y263333D01*
X228912Y263256D01*
X228998Y263181D01*
X229086Y263110D01*
X229176Y263042D01*
X229269Y262977D01*
X229364Y262915D01*
X229461Y262857D01*
X229560Y262802D01*
X229661Y262751D01*
X229764Y262703D01*
X229868Y262658D01*
X229974Y262618D01*
X230081Y262581D01*
X230189Y262548D01*
X230299Y262518D01*
X230409Y262493D01*
X230520Y262471D01*
X230632Y262454D01*
X230745Y262440D01*
X230858Y262430D01*
X230971Y262424D01*
X231084Y262422D01*
X234329Y262422D01*
X234472Y262424D01*
X234615Y262430D01*
X234758Y262440D01*
X234900Y262454D01*
X235042Y262471D01*
X235184Y262493D01*
X235325Y262518D01*
X235465Y262548D01*
X235604Y262581D01*
X235742Y262618D01*
X235879Y262659D01*
X236015Y262703D01*
X236150Y262752D01*
X236283Y262804D01*
X236415Y262859D01*
X236545Y262919D01*
X236674Y262982D01*
X236801Y263048D01*
X236925Y263118D01*
X237048Y263191D01*
X237169Y263268D01*
X237288Y263348D01*
X237404Y263431D01*
X237519Y263517D01*
X237630Y263606D01*
X237740Y263699D01*
X237846Y263794D01*
X237950Y263893D01*
X238051Y263994D01*
X238150Y264098D01*
X238245Y264204D01*
X238338Y264314D01*
X238427Y264425D01*
X238513Y264540D01*
X238596Y264656D01*
X238676Y264775D01*
X238753Y264896D01*
X238826Y265018D01*
X238896Y265143D01*
X238962Y265270D01*
X239025Y265399D01*
X239085Y265529D01*
X239140Y265661D01*
X239192Y265794D01*
X239241Y265929D01*
X239285Y266065D01*
X239326Y266202D01*
X239363Y266340D01*
X239396Y266479D01*
X239426Y266619D01*
X239451Y266760D01*
X239473Y266902D01*
X239490Y267044D01*
X239504Y267186D01*
X239514Y267329D01*
X239520Y267472D01*
X239522Y267615D01*
D11*
X685700Y266116D02*
X685700Y193116D01*
X736700Y193116D01*
X736700Y266116D01*
X685700Y266116D01*
X688000Y269616D02*
X688000Y285116D01*
D10*
X688284Y220799D02*
X693476Y220799D01*
X693476Y220798D02*
X693589Y220800D01*
X693702Y220806D01*
X693815Y220816D01*
X693928Y220830D01*
X694040Y220847D01*
X694151Y220869D01*
X694261Y220894D01*
X694371Y220924D01*
X694479Y220957D01*
X694586Y220994D01*
X694692Y221034D01*
X694796Y221079D01*
X694899Y221127D01*
X695000Y221178D01*
X695099Y221233D01*
X695196Y221291D01*
X695291Y221353D01*
X695384Y221418D01*
X695474Y221486D01*
X695562Y221557D01*
X695648Y221632D01*
X695731Y221709D01*
X695811Y221789D01*
X695888Y221872D01*
X695963Y221958D01*
X696034Y222046D01*
X696102Y222136D01*
X696167Y222229D01*
X696229Y222324D01*
X696287Y222421D01*
X696342Y222520D01*
X696393Y222621D01*
X696441Y222724D01*
X696486Y222828D01*
X696526Y222934D01*
X696563Y223041D01*
X696596Y223149D01*
X696626Y223259D01*
X696651Y223369D01*
X696673Y223480D01*
X696690Y223592D01*
X696704Y223705D01*
X696714Y223818D01*
X696720Y223931D01*
X696722Y224044D01*
X696720Y224157D01*
X696714Y224270D01*
X696704Y224383D01*
X696690Y224496D01*
X696673Y224608D01*
X696651Y224719D01*
X696626Y224829D01*
X696596Y224939D01*
X696563Y225047D01*
X696526Y225154D01*
X696486Y225260D01*
X696441Y225364D01*
X696393Y225467D01*
X696342Y225568D01*
X696287Y225667D01*
X696229Y225764D01*
X696167Y225859D01*
X696102Y225952D01*
X696034Y226042D01*
X695963Y226130D01*
X695888Y226216D01*
X695811Y226299D01*
X695731Y226379D01*
X695648Y226456D01*
X695562Y226531D01*
X695474Y226602D01*
X695384Y226670D01*
X695291Y226735D01*
X695196Y226797D01*
X695099Y226855D01*
X695000Y226910D01*
X694899Y226961D01*
X694796Y227009D01*
X694692Y227054D01*
X694586Y227094D01*
X694479Y227131D01*
X694371Y227164D01*
X694261Y227194D01*
X694151Y227219D01*
X694040Y227241D01*
X693928Y227258D01*
X693815Y227272D01*
X693702Y227282D01*
X693589Y227288D01*
X693476Y227290D01*
X688284Y227290D01*
X688171Y227288D01*
X688058Y227282D01*
X687945Y227272D01*
X687832Y227258D01*
X687720Y227241D01*
X687609Y227219D01*
X687499Y227194D01*
X687389Y227164D01*
X687281Y227131D01*
X687174Y227094D01*
X687068Y227054D01*
X686964Y227009D01*
X686861Y226961D01*
X686760Y226910D01*
X686661Y226855D01*
X686564Y226797D01*
X686469Y226735D01*
X686376Y226670D01*
X686286Y226602D01*
X686198Y226531D01*
X686112Y226456D01*
X686029Y226379D01*
X685949Y226299D01*
X685872Y226216D01*
X685797Y226130D01*
X685726Y226042D01*
X685658Y225952D01*
X685593Y225859D01*
X685531Y225764D01*
X685473Y225667D01*
X685418Y225568D01*
X685367Y225467D01*
X685319Y225364D01*
X685274Y225260D01*
X685234Y225154D01*
X685197Y225047D01*
X685164Y224939D01*
X685134Y224829D01*
X685109Y224719D01*
X685087Y224608D01*
X685070Y224496D01*
X685056Y224383D01*
X685046Y224270D01*
X685040Y224157D01*
X685038Y224044D01*
X685040Y223931D01*
X685046Y223818D01*
X685056Y223705D01*
X685070Y223592D01*
X685087Y223480D01*
X685109Y223369D01*
X685134Y223259D01*
X685164Y223149D01*
X685197Y223041D01*
X685234Y222934D01*
X685274Y222828D01*
X685319Y222724D01*
X685367Y222621D01*
X685418Y222520D01*
X685473Y222421D01*
X685531Y222324D01*
X685593Y222229D01*
X685658Y222136D01*
X685726Y222046D01*
X685797Y221958D01*
X685872Y221872D01*
X685949Y221789D01*
X686029Y221709D01*
X686112Y221632D01*
X686198Y221557D01*
X686286Y221486D01*
X686376Y221418D01*
X686469Y221353D01*
X686564Y221291D01*
X686661Y221233D01*
X686760Y221178D01*
X686861Y221127D01*
X686964Y221079D01*
X687068Y221034D01*
X687174Y220994D01*
X687281Y220957D01*
X687389Y220924D01*
X687499Y220894D01*
X687609Y220869D01*
X687720Y220847D01*
X687832Y220830D01*
X687945Y220816D01*
X688058Y220806D01*
X688171Y220800D01*
X688284Y220798D01*
X687634Y225991D02*
X685038Y228588D01*
X695424Y231942D02*
X696722Y231942D01*
X696722Y238433D01*
X685038Y235188D01*
D11*
X848260Y266116D02*
X848260Y193116D01*
X899260Y193116D01*
X899260Y266116D01*
X848260Y266116D01*
X850560Y269616D02*
X850560Y285116D01*
D10*
X850844Y220799D02*
X856036Y220799D01*
X856036Y220798D02*
X856149Y220800D01*
X856262Y220806D01*
X856375Y220816D01*
X856488Y220830D01*
X856600Y220847D01*
X856711Y220869D01*
X856821Y220894D01*
X856931Y220924D01*
X857039Y220957D01*
X857146Y220994D01*
X857252Y221034D01*
X857356Y221079D01*
X857459Y221127D01*
X857560Y221178D01*
X857659Y221233D01*
X857756Y221291D01*
X857851Y221353D01*
X857944Y221418D01*
X858034Y221486D01*
X858122Y221557D01*
X858208Y221632D01*
X858291Y221709D01*
X858371Y221789D01*
X858448Y221872D01*
X858523Y221958D01*
X858594Y222046D01*
X858662Y222136D01*
X858727Y222229D01*
X858789Y222324D01*
X858847Y222421D01*
X858902Y222520D01*
X858953Y222621D01*
X859001Y222724D01*
X859046Y222828D01*
X859086Y222934D01*
X859123Y223041D01*
X859156Y223149D01*
X859186Y223259D01*
X859211Y223369D01*
X859233Y223480D01*
X859250Y223592D01*
X859264Y223705D01*
X859274Y223818D01*
X859280Y223931D01*
X859282Y224044D01*
X859280Y224157D01*
X859274Y224270D01*
X859264Y224383D01*
X859250Y224496D01*
X859233Y224608D01*
X859211Y224719D01*
X859186Y224829D01*
X859156Y224939D01*
X859123Y225047D01*
X859086Y225154D01*
X859046Y225260D01*
X859001Y225364D01*
X858953Y225467D01*
X858902Y225568D01*
X858847Y225667D01*
X858789Y225764D01*
X858727Y225859D01*
X858662Y225952D01*
X858594Y226042D01*
X858523Y226130D01*
X858448Y226216D01*
X858371Y226299D01*
X858291Y226379D01*
X858208Y226456D01*
X858122Y226531D01*
X858034Y226602D01*
X857944Y226670D01*
X857851Y226735D01*
X857756Y226797D01*
X857659Y226855D01*
X857560Y226910D01*
X857459Y226961D01*
X857356Y227009D01*
X857252Y227054D01*
X857146Y227094D01*
X857039Y227131D01*
X856931Y227164D01*
X856821Y227194D01*
X856711Y227219D01*
X856600Y227241D01*
X856488Y227258D01*
X856375Y227272D01*
X856262Y227282D01*
X856149Y227288D01*
X856036Y227290D01*
X850844Y227290D01*
X850731Y227288D01*
X850618Y227282D01*
X850505Y227272D01*
X850392Y227258D01*
X850280Y227241D01*
X850169Y227219D01*
X850059Y227194D01*
X849949Y227164D01*
X849841Y227131D01*
X849734Y227094D01*
X849628Y227054D01*
X849524Y227009D01*
X849421Y226961D01*
X849320Y226910D01*
X849221Y226855D01*
X849124Y226797D01*
X849029Y226735D01*
X848936Y226670D01*
X848846Y226602D01*
X848758Y226531D01*
X848672Y226456D01*
X848589Y226379D01*
X848509Y226299D01*
X848432Y226216D01*
X848357Y226130D01*
X848286Y226042D01*
X848218Y225952D01*
X848153Y225859D01*
X848091Y225764D01*
X848033Y225667D01*
X847978Y225568D01*
X847927Y225467D01*
X847879Y225364D01*
X847834Y225260D01*
X847794Y225154D01*
X847757Y225047D01*
X847724Y224939D01*
X847694Y224829D01*
X847669Y224719D01*
X847647Y224608D01*
X847630Y224496D01*
X847616Y224383D01*
X847606Y224270D01*
X847600Y224157D01*
X847598Y224044D01*
X847600Y223931D01*
X847606Y223818D01*
X847616Y223705D01*
X847630Y223592D01*
X847647Y223480D01*
X847669Y223369D01*
X847694Y223259D01*
X847724Y223149D01*
X847757Y223041D01*
X847794Y222934D01*
X847834Y222828D01*
X847879Y222724D01*
X847927Y222621D01*
X847978Y222520D01*
X848033Y222421D01*
X848091Y222324D01*
X848153Y222229D01*
X848218Y222136D01*
X848286Y222046D01*
X848357Y221958D01*
X848432Y221872D01*
X848509Y221789D01*
X848589Y221709D01*
X848672Y221632D01*
X848758Y221557D01*
X848846Y221486D01*
X848936Y221418D01*
X849029Y221353D01*
X849124Y221291D01*
X849221Y221233D01*
X849320Y221178D01*
X849421Y221127D01*
X849524Y221079D01*
X849628Y221034D01*
X849734Y220994D01*
X849841Y220957D01*
X849949Y220924D01*
X850059Y220894D01*
X850169Y220869D01*
X850280Y220847D01*
X850392Y220830D01*
X850505Y220816D01*
X850618Y220806D01*
X850731Y220800D01*
X850844Y220798D01*
X850194Y225991D02*
X847598Y228588D01*
X850844Y231942D02*
X850957Y231944D01*
X851070Y231950D01*
X851183Y231960D01*
X851296Y231974D01*
X851408Y231991D01*
X851519Y232013D01*
X851629Y232038D01*
X851739Y232068D01*
X851847Y232101D01*
X851954Y232138D01*
X852060Y232178D01*
X852164Y232223D01*
X852267Y232271D01*
X852368Y232322D01*
X852467Y232377D01*
X852564Y232435D01*
X852659Y232497D01*
X852752Y232562D01*
X852842Y232630D01*
X852930Y232701D01*
X853016Y232776D01*
X853099Y232853D01*
X853179Y232933D01*
X853256Y233016D01*
X853331Y233102D01*
X853402Y233190D01*
X853470Y233280D01*
X853535Y233373D01*
X853597Y233468D01*
X853655Y233565D01*
X853710Y233664D01*
X853761Y233765D01*
X853809Y233868D01*
X853854Y233972D01*
X853894Y234078D01*
X853931Y234185D01*
X853964Y234293D01*
X853994Y234403D01*
X854019Y234513D01*
X854041Y234624D01*
X854058Y234736D01*
X854072Y234849D01*
X854082Y234962D01*
X854088Y235075D01*
X854090Y235188D01*
X854088Y235301D01*
X854082Y235414D01*
X854072Y235527D01*
X854058Y235640D01*
X854041Y235752D01*
X854019Y235863D01*
X853994Y235973D01*
X853964Y236083D01*
X853931Y236191D01*
X853894Y236298D01*
X853854Y236404D01*
X853809Y236508D01*
X853761Y236611D01*
X853710Y236712D01*
X853655Y236811D01*
X853597Y236908D01*
X853535Y237003D01*
X853470Y237096D01*
X853402Y237186D01*
X853331Y237274D01*
X853256Y237360D01*
X853179Y237443D01*
X853099Y237523D01*
X853016Y237600D01*
X852930Y237675D01*
X852842Y237746D01*
X852752Y237814D01*
X852659Y237879D01*
X852564Y237941D01*
X852467Y237999D01*
X852368Y238054D01*
X852267Y238105D01*
X852164Y238153D01*
X852060Y238198D01*
X851954Y238238D01*
X851847Y238275D01*
X851739Y238308D01*
X851629Y238338D01*
X851519Y238363D01*
X851408Y238385D01*
X851296Y238402D01*
X851183Y238416D01*
X851070Y238426D01*
X850957Y238432D01*
X850844Y238434D01*
X850731Y238432D01*
X850618Y238426D01*
X850505Y238416D01*
X850392Y238402D01*
X850280Y238385D01*
X850169Y238363D01*
X850059Y238338D01*
X849949Y238308D01*
X849841Y238275D01*
X849734Y238238D01*
X849628Y238198D01*
X849524Y238153D01*
X849421Y238105D01*
X849320Y238054D01*
X849221Y237999D01*
X849124Y237941D01*
X849029Y237879D01*
X848936Y237814D01*
X848846Y237746D01*
X848758Y237675D01*
X848672Y237600D01*
X848589Y237523D01*
X848509Y237443D01*
X848432Y237360D01*
X848357Y237274D01*
X848286Y237186D01*
X848218Y237096D01*
X848153Y237003D01*
X848091Y236908D01*
X848033Y236811D01*
X847978Y236712D01*
X847927Y236611D01*
X847879Y236508D01*
X847834Y236404D01*
X847794Y236298D01*
X847757Y236191D01*
X847724Y236083D01*
X847694Y235973D01*
X847669Y235863D01*
X847647Y235752D01*
X847630Y235640D01*
X847616Y235527D01*
X847606Y235414D01*
X847600Y235301D01*
X847598Y235188D01*
X847600Y235075D01*
X847606Y234962D01*
X847616Y234849D01*
X847630Y234736D01*
X847647Y234624D01*
X847669Y234513D01*
X847694Y234403D01*
X847724Y234293D01*
X847757Y234185D01*
X847794Y234078D01*
X847834Y233972D01*
X847879Y233868D01*
X847927Y233765D01*
X847978Y233664D01*
X848033Y233565D01*
X848091Y233468D01*
X848153Y233373D01*
X848218Y233280D01*
X848286Y233190D01*
X848357Y233102D01*
X848432Y233016D01*
X848509Y232933D01*
X848589Y232853D01*
X848672Y232776D01*
X848758Y232701D01*
X848846Y232630D01*
X848936Y232562D01*
X849029Y232497D01*
X849124Y232435D01*
X849221Y232377D01*
X849320Y232322D01*
X849421Y232271D01*
X849524Y232223D01*
X849628Y232178D01*
X849734Y232138D01*
X849841Y232101D01*
X849949Y232068D01*
X850059Y232038D01*
X850169Y232013D01*
X850280Y231991D01*
X850392Y231974D01*
X850505Y231960D01*
X850618Y231950D01*
X850731Y231944D01*
X850844Y231942D01*
X856686Y232592D02*
X856787Y232594D01*
X856887Y232600D01*
X856987Y232610D01*
X857087Y232623D01*
X857186Y232641D01*
X857285Y232662D01*
X857382Y232687D01*
X857479Y232716D01*
X857574Y232749D01*
X857668Y232785D01*
X857760Y232825D01*
X857851Y232868D01*
X857940Y232915D01*
X858027Y232965D01*
X858113Y233019D01*
X858196Y233076D01*
X858276Y233136D01*
X858355Y233199D01*
X858431Y233266D01*
X858504Y233335D01*
X858574Y233407D01*
X858642Y233481D01*
X858707Y233558D01*
X858768Y233638D01*
X858827Y233720D01*
X858882Y233804D01*
X858934Y233890D01*
X858983Y233978D01*
X859028Y234068D01*
X859070Y234160D01*
X859108Y234253D01*
X859142Y234348D01*
X859173Y234443D01*
X859200Y234540D01*
X859223Y234638D01*
X859243Y234737D01*
X859258Y234837D01*
X859270Y234937D01*
X859278Y235037D01*
X859282Y235138D01*
X859282Y235238D01*
X859278Y235339D01*
X859270Y235439D01*
X859258Y235539D01*
X859243Y235639D01*
X859223Y235738D01*
X859200Y235836D01*
X859173Y235933D01*
X859142Y236028D01*
X859108Y236123D01*
X859070Y236216D01*
X859028Y236308D01*
X858983Y236398D01*
X858934Y236486D01*
X858882Y236572D01*
X858827Y236656D01*
X858768Y236738D01*
X858707Y236818D01*
X858642Y236895D01*
X858574Y236969D01*
X858504Y237041D01*
X858431Y237110D01*
X858355Y237177D01*
X858276Y237240D01*
X858196Y237300D01*
X858113Y237357D01*
X858027Y237411D01*
X857940Y237461D01*
X857851Y237508D01*
X857760Y237551D01*
X857668Y237591D01*
X857574Y237627D01*
X857479Y237660D01*
X857382Y237689D01*
X857285Y237714D01*
X857186Y237735D01*
X857087Y237753D01*
X856987Y237766D01*
X856887Y237776D01*
X856787Y237782D01*
X856686Y237784D01*
X856585Y237782D01*
X856485Y237776D01*
X856385Y237766D01*
X856285Y237753D01*
X856186Y237735D01*
X856087Y237714D01*
X855990Y237689D01*
X855893Y237660D01*
X855798Y237627D01*
X855704Y237591D01*
X855612Y237551D01*
X855521Y237508D01*
X855432Y237461D01*
X855345Y237411D01*
X855259Y237357D01*
X855176Y237300D01*
X855096Y237240D01*
X855017Y237177D01*
X854941Y237110D01*
X854868Y237041D01*
X854798Y236969D01*
X854730Y236895D01*
X854665Y236818D01*
X854604Y236738D01*
X854545Y236656D01*
X854490Y236572D01*
X854438Y236486D01*
X854389Y236398D01*
X854344Y236308D01*
X854302Y236216D01*
X854264Y236123D01*
X854230Y236028D01*
X854199Y235933D01*
X854172Y235836D01*
X854149Y235738D01*
X854129Y235639D01*
X854114Y235539D01*
X854102Y235439D01*
X854094Y235339D01*
X854090Y235238D01*
X854090Y235138D01*
X854094Y235037D01*
X854102Y234937D01*
X854114Y234837D01*
X854129Y234737D01*
X854149Y234638D01*
X854172Y234540D01*
X854199Y234443D01*
X854230Y234348D01*
X854264Y234253D01*
X854302Y234160D01*
X854344Y234068D01*
X854389Y233978D01*
X854438Y233890D01*
X854490Y233804D01*
X854545Y233720D01*
X854604Y233638D01*
X854665Y233558D01*
X854730Y233481D01*
X854798Y233407D01*
X854868Y233335D01*
X854941Y233266D01*
X855017Y233199D01*
X855096Y233136D01*
X855176Y233076D01*
X855259Y233019D01*
X855345Y232965D01*
X855432Y232915D01*
X855521Y232868D01*
X855612Y232825D01*
X855704Y232785D01*
X855798Y232749D01*
X855893Y232716D01*
X855990Y232687D01*
X856087Y232662D01*
X856186Y232641D01*
X856285Y232623D01*
X856385Y232610D01*
X856485Y232600D01*
X856585Y232594D01*
X856686Y232592D01*
D12*
X468872Y110617D02*
X468872Y105791D01*
X468872Y110617D02*
X467531Y110617D01*
X467460Y110615D01*
X467388Y110609D01*
X467318Y110600D01*
X467248Y110587D01*
X467178Y110570D01*
X467110Y110549D01*
X467043Y110525D01*
X466977Y110497D01*
X466913Y110466D01*
X466850Y110431D01*
X466790Y110393D01*
X466731Y110352D01*
X466675Y110308D01*
X466621Y110261D01*
X466570Y110212D01*
X466522Y110159D01*
X466476Y110104D01*
X466434Y110047D01*
X466394Y109987D01*
X466358Y109926D01*
X466325Y109862D01*
X466296Y109797D01*
X466270Y109731D01*
X466247Y109663D01*
X466228Y109594D01*
X466213Y109524D01*
X466202Y109454D01*
X466194Y109383D01*
X466190Y109312D01*
X466190Y109240D01*
X466194Y109169D01*
X466202Y109098D01*
X466213Y109028D01*
X466228Y108958D01*
X466247Y108889D01*
X466270Y108821D01*
X466296Y108755D01*
X466325Y108690D01*
X466358Y108626D01*
X466394Y108565D01*
X466434Y108505D01*
X466476Y108448D01*
X466522Y108393D01*
X466570Y108340D01*
X466621Y108291D01*
X466675Y108244D01*
X466731Y108200D01*
X466790Y108159D01*
X466850Y108121D01*
X466913Y108086D01*
X466977Y108055D01*
X467043Y108027D01*
X467110Y108003D01*
X467178Y107982D01*
X467248Y107965D01*
X467318Y107952D01*
X467388Y107943D01*
X467460Y107937D01*
X467531Y107935D01*
X467531Y107936D02*
X468872Y107936D01*
X467263Y107936D02*
X466191Y105791D01*
X463449Y109545D02*
X462109Y110617D01*
X462109Y105791D01*
X463449Y105791D02*
X460768Y105791D01*
D10*
X282702Y382711D02*
X271018Y382711D01*
X282702Y382711D02*
X282702Y385956D01*
X282700Y386069D01*
X282694Y386182D01*
X282684Y386295D01*
X282670Y386408D01*
X282653Y386520D01*
X282631Y386631D01*
X282606Y386741D01*
X282576Y386851D01*
X282543Y386959D01*
X282506Y387066D01*
X282466Y387172D01*
X282421Y387276D01*
X282373Y387379D01*
X282322Y387480D01*
X282267Y387579D01*
X282209Y387676D01*
X282147Y387771D01*
X282082Y387864D01*
X282014Y387954D01*
X281943Y388042D01*
X281868Y388128D01*
X281791Y388211D01*
X281711Y388291D01*
X281628Y388368D01*
X281542Y388443D01*
X281454Y388514D01*
X281364Y388582D01*
X281271Y388647D01*
X281176Y388709D01*
X281079Y388767D01*
X280980Y388822D01*
X280879Y388873D01*
X280776Y388921D01*
X280672Y388966D01*
X280566Y389006D01*
X280459Y389043D01*
X280351Y389076D01*
X280241Y389106D01*
X280131Y389131D01*
X280020Y389153D01*
X279908Y389170D01*
X279795Y389184D01*
X279682Y389194D01*
X279569Y389200D01*
X279456Y389202D01*
X279343Y389200D01*
X279230Y389194D01*
X279117Y389184D01*
X279004Y389170D01*
X278892Y389153D01*
X278781Y389131D01*
X278671Y389106D01*
X278561Y389076D01*
X278453Y389043D01*
X278346Y389006D01*
X278240Y388966D01*
X278136Y388921D01*
X278033Y388873D01*
X277932Y388822D01*
X277833Y388767D01*
X277736Y388709D01*
X277641Y388647D01*
X277548Y388582D01*
X277458Y388514D01*
X277370Y388443D01*
X277284Y388368D01*
X277201Y388291D01*
X277121Y388211D01*
X277044Y388128D01*
X276969Y388042D01*
X276898Y387954D01*
X276830Y387864D01*
X276765Y387771D01*
X276703Y387676D01*
X276645Y387579D01*
X276590Y387480D01*
X276539Y387379D01*
X276491Y387276D01*
X276446Y387172D01*
X276406Y387066D01*
X276369Y386959D01*
X276336Y386851D01*
X276306Y386741D01*
X276281Y386631D01*
X276259Y386520D01*
X276242Y386408D01*
X276228Y386295D01*
X276218Y386182D01*
X276212Y386069D01*
X276210Y385956D01*
X276211Y385956D02*
X276211Y382711D01*
X276211Y386605D02*
X271018Y389202D01*
X280106Y394067D02*
X282702Y397312D01*
X271018Y397312D01*
X271018Y394067D02*
X271018Y400558D01*
X276860Y405497D02*
X277090Y405500D01*
X277320Y405508D01*
X277549Y405522D01*
X277778Y405541D01*
X278007Y405566D01*
X278234Y405596D01*
X278462Y405631D01*
X278688Y405672D01*
X278913Y405718D01*
X279137Y405770D01*
X279359Y405827D01*
X279581Y405889D01*
X279800Y405957D01*
X280018Y406030D01*
X280235Y406108D01*
X280449Y406191D01*
X280661Y406279D01*
X280871Y406372D01*
X281079Y406471D01*
X281079Y406470D02*
X281169Y406503D01*
X281258Y406539D01*
X281346Y406579D01*
X281431Y406623D01*
X281515Y406670D01*
X281597Y406720D01*
X281677Y406774D01*
X281754Y406830D01*
X281830Y406890D01*
X281903Y406953D01*
X281973Y407018D01*
X282041Y407087D01*
X282105Y407158D01*
X282167Y407231D01*
X282226Y407307D01*
X282282Y407385D01*
X282335Y407466D01*
X282384Y407548D01*
X282430Y407632D01*
X282473Y407719D01*
X282512Y407806D01*
X282548Y407896D01*
X282580Y407986D01*
X282608Y408078D01*
X282633Y408171D01*
X282654Y408265D01*
X282671Y408359D01*
X282685Y408454D01*
X282694Y408550D01*
X282700Y408646D01*
X282702Y408742D01*
X282700Y408838D01*
X282694Y408934D01*
X282685Y409030D01*
X282671Y409125D01*
X282654Y409219D01*
X282633Y409313D01*
X282608Y409406D01*
X282580Y409498D01*
X282548Y409588D01*
X282512Y409678D01*
X282473Y409765D01*
X282430Y409852D01*
X282384Y409936D01*
X282335Y410018D01*
X282282Y410099D01*
X282226Y410177D01*
X282167Y410253D01*
X282105Y410326D01*
X282041Y410397D01*
X281973Y410466D01*
X281903Y410531D01*
X281830Y410594D01*
X281754Y410654D01*
X281677Y410710D01*
X281597Y410764D01*
X281515Y410814D01*
X281431Y410861D01*
X281346Y410905D01*
X281258Y410945D01*
X281169Y410981D01*
X281079Y411014D01*
X281079Y411015D02*
X280872Y411114D01*
X280662Y411207D01*
X280449Y411295D01*
X280235Y411378D01*
X280019Y411456D01*
X279801Y411529D01*
X279581Y411597D01*
X279360Y411659D01*
X279137Y411716D01*
X278913Y411768D01*
X278688Y411814D01*
X278462Y411855D01*
X278235Y411890D01*
X278007Y411920D01*
X277778Y411945D01*
X277549Y411964D01*
X277320Y411978D01*
X277090Y411986D01*
X276860Y411989D01*
X276860Y405497D02*
X276630Y405500D01*
X276400Y405508D01*
X276171Y405522D01*
X275942Y405541D01*
X275713Y405566D01*
X275485Y405596D01*
X275258Y405631D01*
X275032Y405672D01*
X274807Y405718D01*
X274583Y405770D01*
X274360Y405827D01*
X274139Y405889D01*
X273919Y405957D01*
X273701Y406030D01*
X273485Y406108D01*
X273271Y406191D01*
X273059Y406279D01*
X272848Y406372D01*
X272641Y406471D01*
X272641Y406470D02*
X272551Y406503D01*
X272462Y406539D01*
X272374Y406580D01*
X272289Y406623D01*
X272205Y406670D01*
X272123Y406720D01*
X272043Y406774D01*
X271966Y406830D01*
X271890Y406890D01*
X271817Y406953D01*
X271747Y407018D01*
X271679Y407087D01*
X271615Y407158D01*
X271553Y407231D01*
X271494Y407307D01*
X271438Y407385D01*
X271385Y407466D01*
X271336Y407548D01*
X271290Y407632D01*
X271247Y407719D01*
X271208Y407806D01*
X271172Y407896D01*
X271140Y407986D01*
X271112Y408078D01*
X271087Y408171D01*
X271066Y408265D01*
X271049Y408359D01*
X271035Y408454D01*
X271026Y408550D01*
X271020Y408646D01*
X271018Y408742D01*
X272641Y411014D02*
X272848Y411113D01*
X273059Y411206D01*
X273271Y411294D01*
X273485Y411377D01*
X273701Y411455D01*
X273919Y411528D01*
X274139Y411596D01*
X274360Y411658D01*
X274583Y411715D01*
X274807Y411767D01*
X275032Y411813D01*
X275258Y411854D01*
X275485Y411889D01*
X275713Y411919D01*
X275942Y411944D01*
X276171Y411963D01*
X276400Y411977D01*
X276630Y411985D01*
X276860Y411988D01*
X272641Y411014D02*
X272551Y410981D01*
X272462Y410945D01*
X272374Y410905D01*
X272289Y410861D01*
X272205Y410814D01*
X272123Y410764D01*
X272043Y410710D01*
X271966Y410654D01*
X271890Y410594D01*
X271817Y410531D01*
X271747Y410466D01*
X271679Y410397D01*
X271615Y410326D01*
X271553Y410253D01*
X271494Y410177D01*
X271438Y410099D01*
X271385Y410018D01*
X271336Y409936D01*
X271290Y409852D01*
X271247Y409765D01*
X271208Y409678D01*
X271172Y409588D01*
X271140Y409498D01*
X271112Y409406D01*
X271087Y409313D01*
X271066Y409219D01*
X271049Y409125D01*
X271035Y409030D01*
X271026Y408934D01*
X271020Y408838D01*
X271018Y408742D01*
X273614Y406146D02*
X280106Y411339D01*
X802132Y337058D02*
X802132Y325374D01*
X802132Y337058D02*
X798886Y337058D01*
X798773Y337056D01*
X798660Y337050D01*
X798547Y337040D01*
X798434Y337026D01*
X798322Y337009D01*
X798211Y336987D01*
X798101Y336962D01*
X797991Y336932D01*
X797883Y336899D01*
X797776Y336862D01*
X797670Y336822D01*
X797566Y336777D01*
X797463Y336729D01*
X797362Y336678D01*
X797263Y336623D01*
X797166Y336565D01*
X797071Y336503D01*
X796978Y336438D01*
X796888Y336370D01*
X796800Y336299D01*
X796714Y336224D01*
X796631Y336147D01*
X796551Y336067D01*
X796474Y335984D01*
X796399Y335898D01*
X796328Y335810D01*
X796260Y335720D01*
X796195Y335627D01*
X796133Y335532D01*
X796075Y335435D01*
X796020Y335336D01*
X795969Y335235D01*
X795921Y335132D01*
X795876Y335028D01*
X795836Y334922D01*
X795799Y334815D01*
X795766Y334707D01*
X795736Y334597D01*
X795711Y334487D01*
X795689Y334376D01*
X795672Y334264D01*
X795658Y334151D01*
X795648Y334038D01*
X795642Y333925D01*
X795640Y333812D01*
X795642Y333699D01*
X795648Y333586D01*
X795658Y333473D01*
X795672Y333360D01*
X795689Y333248D01*
X795711Y333137D01*
X795736Y333027D01*
X795766Y332917D01*
X795799Y332809D01*
X795836Y332702D01*
X795876Y332596D01*
X795921Y332492D01*
X795969Y332389D01*
X796020Y332288D01*
X796075Y332189D01*
X796133Y332092D01*
X796195Y331997D01*
X796260Y331904D01*
X796328Y331814D01*
X796399Y331726D01*
X796474Y331640D01*
X796551Y331557D01*
X796631Y331477D01*
X796714Y331400D01*
X796800Y331325D01*
X796888Y331254D01*
X796978Y331186D01*
X797071Y331121D01*
X797166Y331059D01*
X797263Y331001D01*
X797362Y330946D01*
X797463Y330895D01*
X797566Y330847D01*
X797670Y330802D01*
X797776Y330762D01*
X797883Y330725D01*
X797991Y330692D01*
X798101Y330662D01*
X798211Y330637D01*
X798322Y330615D01*
X798434Y330598D01*
X798547Y330584D01*
X798660Y330574D01*
X798773Y330568D01*
X798886Y330566D01*
X798886Y330567D02*
X802132Y330567D01*
X798237Y330567D02*
X795641Y325374D01*
X790776Y334462D02*
X787530Y337058D01*
X787530Y325374D01*
X784285Y325374D02*
X790776Y325374D01*
X779346Y334462D02*
X776100Y337058D01*
X776100Y325374D01*
X772855Y325374D02*
X779346Y325374D01*
D12*
X692595Y176657D02*
X692595Y171831D01*
X692595Y176657D02*
X691255Y176657D01*
X691184Y176655D01*
X691112Y176649D01*
X691042Y176640D01*
X690972Y176627D01*
X690902Y176610D01*
X690834Y176589D01*
X690767Y176565D01*
X690701Y176537D01*
X690637Y176506D01*
X690574Y176471D01*
X690514Y176433D01*
X690455Y176392D01*
X690399Y176348D01*
X690345Y176301D01*
X690294Y176252D01*
X690246Y176199D01*
X690200Y176144D01*
X690158Y176087D01*
X690118Y176027D01*
X690082Y175966D01*
X690049Y175902D01*
X690020Y175837D01*
X689994Y175771D01*
X689971Y175703D01*
X689952Y175634D01*
X689937Y175564D01*
X689926Y175494D01*
X689918Y175423D01*
X689914Y175352D01*
X689914Y175280D01*
X689918Y175209D01*
X689926Y175138D01*
X689937Y175068D01*
X689952Y174998D01*
X689971Y174929D01*
X689994Y174861D01*
X690020Y174795D01*
X690049Y174730D01*
X690082Y174666D01*
X690118Y174605D01*
X690158Y174545D01*
X690200Y174488D01*
X690246Y174433D01*
X690294Y174380D01*
X690345Y174331D01*
X690399Y174284D01*
X690455Y174240D01*
X690514Y174199D01*
X690574Y174161D01*
X690637Y174126D01*
X690701Y174095D01*
X690767Y174067D01*
X690834Y174043D01*
X690902Y174022D01*
X690972Y174005D01*
X691042Y173992D01*
X691112Y173983D01*
X691184Y173977D01*
X691255Y173975D01*
X691255Y173976D02*
X692595Y173976D01*
X690986Y173976D02*
X689914Y171831D01*
X687172Y175585D02*
X685832Y176657D01*
X685832Y171831D01*
X687172Y171831D02*
X684491Y171831D01*
X680211Y176657D02*
X680143Y176655D01*
X680076Y176649D01*
X680009Y176640D01*
X679942Y176627D01*
X679877Y176610D01*
X679812Y176589D01*
X679749Y176565D01*
X679687Y176537D01*
X679627Y176506D01*
X679569Y176472D01*
X679513Y176434D01*
X679458Y176394D01*
X679407Y176350D01*
X679358Y176303D01*
X679311Y176254D01*
X679267Y176203D01*
X679227Y176148D01*
X679189Y176092D01*
X679155Y176034D01*
X679124Y175974D01*
X679096Y175912D01*
X679072Y175849D01*
X679051Y175784D01*
X679034Y175719D01*
X679021Y175652D01*
X679012Y175585D01*
X679006Y175518D01*
X679004Y175450D01*
X680211Y176657D02*
X680289Y176655D01*
X680367Y176649D01*
X680444Y176639D01*
X680521Y176626D01*
X680597Y176608D01*
X680672Y176587D01*
X680746Y176562D01*
X680818Y176533D01*
X680889Y176501D01*
X680958Y176465D01*
X681026Y176426D01*
X681091Y176383D01*
X681154Y176337D01*
X681215Y176288D01*
X681273Y176236D01*
X681328Y176181D01*
X681381Y176124D01*
X681430Y176064D01*
X681477Y176001D01*
X681520Y175936D01*
X681560Y175870D01*
X681597Y175801D01*
X681630Y175730D01*
X681660Y175658D01*
X681686Y175584D01*
X679407Y174512D02*
X679358Y174561D01*
X679311Y174613D01*
X679268Y174668D01*
X679227Y174725D01*
X679189Y174784D01*
X679155Y174845D01*
X679124Y174908D01*
X679096Y174972D01*
X679072Y175038D01*
X679052Y175104D01*
X679035Y175172D01*
X679022Y175241D01*
X679013Y175310D01*
X679007Y175380D01*
X679005Y175450D01*
X679407Y174512D02*
X681686Y171831D01*
X679005Y171831D01*
D10*
X359985Y411734D02*
X359985Y423418D01*
X356740Y423418D01*
X356627Y423416D01*
X356514Y423410D01*
X356401Y423400D01*
X356288Y423386D01*
X356176Y423369D01*
X356065Y423347D01*
X355955Y423322D01*
X355845Y423292D01*
X355737Y423259D01*
X355630Y423222D01*
X355524Y423182D01*
X355420Y423137D01*
X355317Y423089D01*
X355216Y423038D01*
X355117Y422983D01*
X355020Y422925D01*
X354925Y422863D01*
X354832Y422798D01*
X354742Y422730D01*
X354654Y422659D01*
X354568Y422584D01*
X354485Y422507D01*
X354405Y422427D01*
X354328Y422344D01*
X354253Y422258D01*
X354182Y422170D01*
X354114Y422080D01*
X354049Y421987D01*
X353987Y421892D01*
X353929Y421795D01*
X353874Y421696D01*
X353823Y421595D01*
X353775Y421492D01*
X353730Y421388D01*
X353690Y421282D01*
X353653Y421175D01*
X353620Y421067D01*
X353590Y420957D01*
X353565Y420847D01*
X353543Y420736D01*
X353526Y420624D01*
X353512Y420511D01*
X353502Y420398D01*
X353496Y420285D01*
X353494Y420172D01*
X353496Y420059D01*
X353502Y419946D01*
X353512Y419833D01*
X353526Y419720D01*
X353543Y419608D01*
X353565Y419497D01*
X353590Y419387D01*
X353620Y419277D01*
X353653Y419169D01*
X353690Y419062D01*
X353730Y418956D01*
X353775Y418852D01*
X353823Y418749D01*
X353874Y418648D01*
X353929Y418549D01*
X353987Y418452D01*
X354049Y418357D01*
X354114Y418264D01*
X354182Y418174D01*
X354253Y418086D01*
X354328Y418000D01*
X354405Y417917D01*
X354485Y417837D01*
X354568Y417760D01*
X354654Y417685D01*
X354742Y417614D01*
X354832Y417546D01*
X354925Y417481D01*
X355020Y417419D01*
X355117Y417361D01*
X355216Y417306D01*
X355317Y417255D01*
X355420Y417207D01*
X355524Y417162D01*
X355630Y417122D01*
X355737Y417085D01*
X355845Y417052D01*
X355955Y417022D01*
X356065Y416997D01*
X356176Y416975D01*
X356288Y416958D01*
X356401Y416944D01*
X356514Y416934D01*
X356627Y416928D01*
X356740Y416926D01*
X356740Y416927D02*
X359985Y416927D01*
X356091Y416927D02*
X353494Y411734D01*
X348629Y420822D02*
X345384Y423418D01*
X345384Y411734D01*
X348629Y411734D02*
X342138Y411734D01*
X337199Y411734D02*
X333954Y411734D01*
X333841Y411736D01*
X333728Y411742D01*
X333615Y411752D01*
X333502Y411766D01*
X333390Y411783D01*
X333279Y411805D01*
X333169Y411830D01*
X333059Y411860D01*
X332951Y411893D01*
X332844Y411930D01*
X332738Y411970D01*
X332634Y412015D01*
X332531Y412063D01*
X332430Y412114D01*
X332331Y412169D01*
X332234Y412227D01*
X332139Y412289D01*
X332046Y412354D01*
X331956Y412422D01*
X331868Y412493D01*
X331782Y412568D01*
X331699Y412645D01*
X331619Y412725D01*
X331542Y412808D01*
X331467Y412894D01*
X331396Y412982D01*
X331328Y413072D01*
X331263Y413165D01*
X331201Y413260D01*
X331143Y413357D01*
X331088Y413456D01*
X331037Y413557D01*
X330989Y413660D01*
X330944Y413764D01*
X330904Y413870D01*
X330867Y413977D01*
X330834Y414085D01*
X330804Y414195D01*
X330779Y414305D01*
X330757Y414416D01*
X330740Y414528D01*
X330726Y414641D01*
X330716Y414754D01*
X330710Y414867D01*
X330708Y414980D01*
X330710Y415093D01*
X330716Y415206D01*
X330726Y415319D01*
X330740Y415432D01*
X330757Y415544D01*
X330779Y415655D01*
X330804Y415765D01*
X330834Y415875D01*
X330867Y415983D01*
X330904Y416090D01*
X330944Y416196D01*
X330989Y416300D01*
X331037Y416403D01*
X331088Y416504D01*
X331143Y416603D01*
X331201Y416700D01*
X331263Y416795D01*
X331328Y416888D01*
X331396Y416978D01*
X331467Y417066D01*
X331542Y417152D01*
X331619Y417235D01*
X331699Y417315D01*
X331782Y417392D01*
X331868Y417467D01*
X331956Y417538D01*
X332046Y417606D01*
X332139Y417671D01*
X332234Y417733D01*
X332331Y417791D01*
X332430Y417846D01*
X332531Y417897D01*
X332634Y417945D01*
X332738Y417990D01*
X332844Y418030D01*
X332951Y418067D01*
X333059Y418100D01*
X333169Y418130D01*
X333279Y418155D01*
X333390Y418177D01*
X333502Y418194D01*
X333615Y418208D01*
X333728Y418218D01*
X333841Y418224D01*
X333954Y418226D01*
X333304Y423418D02*
X337199Y423418D01*
X333304Y423418D02*
X333203Y423416D01*
X333103Y423410D01*
X333003Y423400D01*
X332903Y423387D01*
X332804Y423369D01*
X332705Y423348D01*
X332608Y423323D01*
X332511Y423294D01*
X332416Y423261D01*
X332322Y423225D01*
X332230Y423185D01*
X332139Y423142D01*
X332050Y423095D01*
X331963Y423045D01*
X331877Y422991D01*
X331794Y422934D01*
X331714Y422874D01*
X331635Y422811D01*
X331559Y422744D01*
X331486Y422675D01*
X331416Y422603D01*
X331348Y422529D01*
X331283Y422452D01*
X331222Y422372D01*
X331163Y422290D01*
X331108Y422206D01*
X331056Y422120D01*
X331007Y422032D01*
X330962Y421942D01*
X330920Y421850D01*
X330882Y421757D01*
X330848Y421662D01*
X330817Y421567D01*
X330790Y421470D01*
X330767Y421372D01*
X330747Y421273D01*
X330732Y421173D01*
X330720Y421073D01*
X330712Y420973D01*
X330708Y420872D01*
X330708Y420772D01*
X330712Y420671D01*
X330720Y420571D01*
X330732Y420471D01*
X330747Y420371D01*
X330767Y420272D01*
X330790Y420174D01*
X330817Y420077D01*
X330848Y419982D01*
X330882Y419887D01*
X330920Y419794D01*
X330962Y419702D01*
X331007Y419612D01*
X331056Y419524D01*
X331108Y419438D01*
X331163Y419354D01*
X331222Y419272D01*
X331283Y419192D01*
X331348Y419115D01*
X331416Y419041D01*
X331486Y418969D01*
X331559Y418900D01*
X331635Y418833D01*
X331714Y418770D01*
X331794Y418710D01*
X331877Y418653D01*
X331963Y418599D01*
X332050Y418549D01*
X332139Y418502D01*
X332230Y418459D01*
X332322Y418419D01*
X332416Y418383D01*
X332511Y418350D01*
X332608Y418321D01*
X332705Y418296D01*
X332804Y418275D01*
X332903Y418257D01*
X333003Y418244D01*
X333103Y418234D01*
X333203Y418228D01*
X333304Y418226D01*
X333304Y418225D02*
X335901Y418225D01*
X964692Y331978D02*
X964692Y320294D01*
X964692Y331978D02*
X961446Y331978D01*
X961333Y331976D01*
X961220Y331970D01*
X961107Y331960D01*
X960994Y331946D01*
X960882Y331929D01*
X960771Y331907D01*
X960661Y331882D01*
X960551Y331852D01*
X960443Y331819D01*
X960336Y331782D01*
X960230Y331742D01*
X960126Y331697D01*
X960023Y331649D01*
X959922Y331598D01*
X959823Y331543D01*
X959726Y331485D01*
X959631Y331423D01*
X959538Y331358D01*
X959448Y331290D01*
X959360Y331219D01*
X959274Y331144D01*
X959191Y331067D01*
X959111Y330987D01*
X959034Y330904D01*
X958959Y330818D01*
X958888Y330730D01*
X958820Y330640D01*
X958755Y330547D01*
X958693Y330452D01*
X958635Y330355D01*
X958580Y330256D01*
X958529Y330155D01*
X958481Y330052D01*
X958436Y329948D01*
X958396Y329842D01*
X958359Y329735D01*
X958326Y329627D01*
X958296Y329517D01*
X958271Y329407D01*
X958249Y329296D01*
X958232Y329184D01*
X958218Y329071D01*
X958208Y328958D01*
X958202Y328845D01*
X958200Y328732D01*
X958202Y328619D01*
X958208Y328506D01*
X958218Y328393D01*
X958232Y328280D01*
X958249Y328168D01*
X958271Y328057D01*
X958296Y327947D01*
X958326Y327837D01*
X958359Y327729D01*
X958396Y327622D01*
X958436Y327516D01*
X958481Y327412D01*
X958529Y327309D01*
X958580Y327208D01*
X958635Y327109D01*
X958693Y327012D01*
X958755Y326917D01*
X958820Y326824D01*
X958888Y326734D01*
X958959Y326646D01*
X959034Y326560D01*
X959111Y326477D01*
X959191Y326397D01*
X959274Y326320D01*
X959360Y326245D01*
X959448Y326174D01*
X959538Y326106D01*
X959631Y326041D01*
X959726Y325979D01*
X959823Y325921D01*
X959922Y325866D01*
X960023Y325815D01*
X960126Y325767D01*
X960230Y325722D01*
X960336Y325682D01*
X960443Y325645D01*
X960551Y325612D01*
X960661Y325582D01*
X960771Y325557D01*
X960882Y325535D01*
X960994Y325518D01*
X961107Y325504D01*
X961220Y325494D01*
X961333Y325488D01*
X961446Y325486D01*
X961446Y325487D02*
X964692Y325487D01*
X960797Y325487D02*
X958201Y320294D01*
X953336Y329382D02*
X950090Y331978D01*
X950090Y320294D01*
X946845Y320294D02*
X953336Y320294D01*
X941906Y322890D02*
X939309Y331978D01*
X941906Y322890D02*
X935415Y322890D01*
X937362Y325487D02*
X937362Y320294D01*
D12*
X823151Y153289D02*
X823151Y148463D01*
X823151Y153289D02*
X821811Y153289D01*
X821740Y153287D01*
X821668Y153281D01*
X821598Y153272D01*
X821528Y153259D01*
X821458Y153242D01*
X821390Y153221D01*
X821323Y153197D01*
X821257Y153169D01*
X821193Y153138D01*
X821130Y153103D01*
X821070Y153065D01*
X821011Y153024D01*
X820955Y152980D01*
X820901Y152933D01*
X820850Y152884D01*
X820802Y152831D01*
X820756Y152776D01*
X820714Y152719D01*
X820674Y152659D01*
X820638Y152598D01*
X820605Y152534D01*
X820576Y152469D01*
X820550Y152403D01*
X820527Y152335D01*
X820508Y152266D01*
X820493Y152196D01*
X820482Y152126D01*
X820474Y152055D01*
X820470Y151984D01*
X820470Y151912D01*
X820474Y151841D01*
X820482Y151770D01*
X820493Y151700D01*
X820508Y151630D01*
X820527Y151561D01*
X820550Y151493D01*
X820576Y151427D01*
X820605Y151362D01*
X820638Y151298D01*
X820674Y151237D01*
X820714Y151177D01*
X820756Y151120D01*
X820802Y151065D01*
X820850Y151012D01*
X820901Y150963D01*
X820955Y150916D01*
X821011Y150872D01*
X821070Y150831D01*
X821130Y150793D01*
X821193Y150758D01*
X821257Y150727D01*
X821323Y150699D01*
X821390Y150675D01*
X821458Y150654D01*
X821528Y150637D01*
X821598Y150624D01*
X821668Y150615D01*
X821740Y150609D01*
X821811Y150607D01*
X821811Y150608D02*
X823151Y150608D01*
X821542Y150608D02*
X820470Y148463D01*
X817728Y152217D02*
X816388Y153289D01*
X816388Y148463D01*
X817728Y148463D02*
X815047Y148463D01*
X812242Y148463D02*
X810633Y148463D01*
X810568Y148465D01*
X810504Y148471D01*
X810440Y148481D01*
X810376Y148494D01*
X810314Y148512D01*
X810253Y148533D01*
X810193Y148557D01*
X810135Y148586D01*
X810078Y148618D01*
X810024Y148653D01*
X809972Y148691D01*
X809922Y148733D01*
X809875Y148777D01*
X809831Y148824D01*
X809789Y148874D01*
X809751Y148926D01*
X809716Y148980D01*
X809684Y149037D01*
X809655Y149095D01*
X809631Y149155D01*
X809610Y149216D01*
X809592Y149278D01*
X809579Y149342D01*
X809569Y149406D01*
X809563Y149470D01*
X809561Y149535D01*
X809561Y150072D01*
X809563Y150137D01*
X809569Y150201D01*
X809579Y150265D01*
X809592Y150329D01*
X809610Y150391D01*
X809631Y150452D01*
X809655Y150512D01*
X809684Y150570D01*
X809716Y150627D01*
X809751Y150681D01*
X809789Y150733D01*
X809831Y150783D01*
X809875Y150830D01*
X809922Y150874D01*
X809972Y150916D01*
X810024Y150954D01*
X810078Y150989D01*
X810135Y151021D01*
X810193Y151050D01*
X810253Y151074D01*
X810314Y151095D01*
X810376Y151113D01*
X810440Y151126D01*
X810504Y151136D01*
X810568Y151142D01*
X810633Y151144D01*
X812242Y151144D01*
X812242Y153289D01*
X809561Y153289D01*
X635889Y122948D02*
X631063Y122948D01*
X635889Y122948D02*
X635889Y124289D01*
X635887Y124360D01*
X635881Y124432D01*
X635872Y124502D01*
X635859Y124572D01*
X635842Y124642D01*
X635821Y124710D01*
X635797Y124777D01*
X635769Y124843D01*
X635738Y124907D01*
X635703Y124970D01*
X635665Y125030D01*
X635624Y125089D01*
X635580Y125145D01*
X635533Y125199D01*
X635484Y125250D01*
X635431Y125298D01*
X635376Y125344D01*
X635319Y125386D01*
X635259Y125426D01*
X635198Y125462D01*
X635134Y125495D01*
X635069Y125524D01*
X635003Y125550D01*
X634935Y125573D01*
X634866Y125592D01*
X634796Y125607D01*
X634726Y125618D01*
X634655Y125626D01*
X634584Y125630D01*
X634512Y125630D01*
X634441Y125626D01*
X634370Y125618D01*
X634300Y125607D01*
X634230Y125592D01*
X634161Y125573D01*
X634093Y125550D01*
X634027Y125524D01*
X633962Y125495D01*
X633898Y125462D01*
X633837Y125426D01*
X633777Y125386D01*
X633720Y125344D01*
X633665Y125298D01*
X633612Y125250D01*
X633563Y125199D01*
X633516Y125145D01*
X633472Y125089D01*
X633431Y125030D01*
X633393Y124970D01*
X633358Y124907D01*
X633327Y124843D01*
X633299Y124777D01*
X633275Y124710D01*
X633254Y124642D01*
X633237Y124572D01*
X633224Y124502D01*
X633215Y124432D01*
X633209Y124360D01*
X633207Y124289D01*
X633208Y124289D02*
X633208Y122948D01*
X633208Y124557D02*
X631063Y125629D01*
X635889Y129845D02*
X635887Y129913D01*
X635881Y129980D01*
X635872Y130047D01*
X635859Y130114D01*
X635842Y130179D01*
X635821Y130244D01*
X635797Y130307D01*
X635769Y130369D01*
X635738Y130429D01*
X635704Y130487D01*
X635666Y130543D01*
X635626Y130598D01*
X635582Y130649D01*
X635535Y130698D01*
X635486Y130745D01*
X635435Y130789D01*
X635380Y130829D01*
X635324Y130867D01*
X635266Y130901D01*
X635206Y130932D01*
X635144Y130960D01*
X635081Y130984D01*
X635016Y131005D01*
X634951Y131022D01*
X634884Y131035D01*
X634817Y131044D01*
X634750Y131050D01*
X634682Y131052D01*
X635889Y129845D02*
X635887Y129767D01*
X635881Y129689D01*
X635871Y129612D01*
X635858Y129535D01*
X635840Y129459D01*
X635819Y129384D01*
X635794Y129310D01*
X635765Y129238D01*
X635733Y129167D01*
X635697Y129098D01*
X635658Y129030D01*
X635615Y128965D01*
X635569Y128902D01*
X635520Y128841D01*
X635468Y128783D01*
X635413Y128728D01*
X635356Y128675D01*
X635296Y128626D01*
X635233Y128579D01*
X635168Y128536D01*
X635102Y128496D01*
X635033Y128459D01*
X634962Y128426D01*
X634890Y128396D01*
X634817Y128370D01*
X633744Y130650D02*
X633793Y130699D01*
X633845Y130746D01*
X633900Y130789D01*
X633957Y130830D01*
X634016Y130868D01*
X634077Y130902D01*
X634140Y130933D01*
X634204Y130961D01*
X634270Y130985D01*
X634336Y131005D01*
X634404Y131022D01*
X634473Y131035D01*
X634542Y131044D01*
X634612Y131050D01*
X634682Y131052D01*
X633744Y130650D02*
X631063Y128371D01*
X631063Y131052D01*
X978091Y102489D02*
X978091Y97663D01*
X978091Y102489D02*
X976751Y102489D01*
X976680Y102487D01*
X976608Y102481D01*
X976538Y102472D01*
X976468Y102459D01*
X976398Y102442D01*
X976330Y102421D01*
X976263Y102397D01*
X976197Y102369D01*
X976133Y102338D01*
X976070Y102303D01*
X976010Y102265D01*
X975951Y102224D01*
X975895Y102180D01*
X975841Y102133D01*
X975790Y102084D01*
X975742Y102031D01*
X975696Y101976D01*
X975654Y101919D01*
X975614Y101859D01*
X975578Y101798D01*
X975545Y101734D01*
X975516Y101669D01*
X975490Y101603D01*
X975467Y101535D01*
X975448Y101466D01*
X975433Y101396D01*
X975422Y101326D01*
X975414Y101255D01*
X975410Y101184D01*
X975410Y101112D01*
X975414Y101041D01*
X975422Y100970D01*
X975433Y100900D01*
X975448Y100830D01*
X975467Y100761D01*
X975490Y100693D01*
X975516Y100627D01*
X975545Y100562D01*
X975578Y100498D01*
X975614Y100437D01*
X975654Y100377D01*
X975696Y100320D01*
X975742Y100265D01*
X975790Y100212D01*
X975841Y100163D01*
X975895Y100116D01*
X975951Y100072D01*
X976010Y100031D01*
X976070Y99993D01*
X976133Y99958D01*
X976197Y99927D01*
X976263Y99899D01*
X976330Y99875D01*
X976398Y99854D01*
X976468Y99837D01*
X976538Y99824D01*
X976608Y99815D01*
X976680Y99809D01*
X976751Y99807D01*
X976751Y99808D02*
X978091Y99808D01*
X976482Y99808D02*
X975410Y97663D01*
X971194Y102489D02*
X971126Y102487D01*
X971059Y102481D01*
X970992Y102472D01*
X970925Y102459D01*
X970860Y102442D01*
X970795Y102421D01*
X970732Y102397D01*
X970670Y102369D01*
X970610Y102338D01*
X970552Y102304D01*
X970496Y102266D01*
X970441Y102226D01*
X970390Y102182D01*
X970341Y102135D01*
X970294Y102086D01*
X970250Y102035D01*
X970210Y101980D01*
X970172Y101924D01*
X970138Y101866D01*
X970107Y101806D01*
X970079Y101744D01*
X970055Y101681D01*
X970034Y101616D01*
X970017Y101551D01*
X970004Y101484D01*
X969995Y101417D01*
X969989Y101350D01*
X969987Y101282D01*
X971194Y102489D02*
X971272Y102487D01*
X971350Y102481D01*
X971427Y102471D01*
X971504Y102458D01*
X971580Y102440D01*
X971655Y102419D01*
X971729Y102394D01*
X971801Y102365D01*
X971872Y102333D01*
X971941Y102297D01*
X972009Y102258D01*
X972074Y102215D01*
X972137Y102169D01*
X972198Y102120D01*
X972256Y102068D01*
X972311Y102013D01*
X972364Y101956D01*
X972413Y101896D01*
X972460Y101833D01*
X972503Y101768D01*
X972543Y101702D01*
X972580Y101633D01*
X972613Y101562D01*
X972643Y101490D01*
X972669Y101416D01*
X970389Y100344D02*
X970340Y100393D01*
X970293Y100445D01*
X970250Y100500D01*
X970209Y100557D01*
X970171Y100616D01*
X970137Y100677D01*
X970106Y100740D01*
X970078Y100804D01*
X970054Y100870D01*
X970034Y100936D01*
X970017Y101004D01*
X970004Y101073D01*
X969995Y101142D01*
X969989Y101212D01*
X969987Y101282D01*
X970389Y100344D02*
X972668Y97663D01*
X969987Y97663D01*
X967182Y100076D02*
X967180Y100196D01*
X967175Y100316D01*
X967166Y100436D01*
X967153Y100556D01*
X967137Y100675D01*
X967117Y100794D01*
X967093Y100912D01*
X967066Y101029D01*
X967036Y101145D01*
X967002Y101260D01*
X966964Y101375D01*
X966923Y101488D01*
X966879Y101599D01*
X966831Y101710D01*
X966780Y101819D01*
X966759Y101876D01*
X966733Y101932D01*
X966705Y101987D01*
X966673Y102039D01*
X966637Y102090D01*
X966599Y102138D01*
X966558Y102184D01*
X966514Y102227D01*
X966468Y102267D01*
X966419Y102304D01*
X966367Y102338D01*
X966314Y102369D01*
X966259Y102397D01*
X966203Y102421D01*
X966145Y102442D01*
X966086Y102459D01*
X966026Y102472D01*
X965965Y102481D01*
X965903Y102487D01*
X965842Y102489D01*
X965781Y102487D01*
X965719Y102481D01*
X965658Y102472D01*
X965598Y102459D01*
X965539Y102442D01*
X965481Y102421D01*
X965425Y102397D01*
X965370Y102369D01*
X965317Y102338D01*
X965265Y102304D01*
X965217Y102267D01*
X965170Y102227D01*
X965126Y102184D01*
X965085Y102138D01*
X965047Y102090D01*
X965011Y102039D01*
X964979Y101987D01*
X964951Y101932D01*
X964925Y101876D01*
X964904Y101819D01*
X964903Y101819D02*
X964852Y101710D01*
X964804Y101599D01*
X964760Y101488D01*
X964719Y101375D01*
X964681Y101260D01*
X964647Y101145D01*
X964617Y101029D01*
X964590Y100912D01*
X964566Y100794D01*
X964546Y100675D01*
X964530Y100556D01*
X964517Y100436D01*
X964508Y100316D01*
X964503Y100196D01*
X964501Y100076D01*
X967182Y100076D02*
X967180Y99956D01*
X967175Y99836D01*
X967166Y99716D01*
X967153Y99596D01*
X967137Y99477D01*
X967117Y99358D01*
X967093Y99240D01*
X967066Y99123D01*
X967036Y99007D01*
X967002Y98892D01*
X966964Y98777D01*
X966923Y98664D01*
X966879Y98553D01*
X966831Y98442D01*
X966780Y98333D01*
X966759Y98276D01*
X966733Y98220D01*
X966705Y98165D01*
X966673Y98113D01*
X966637Y98062D01*
X966599Y98014D01*
X966558Y97968D01*
X966514Y97925D01*
X966468Y97885D01*
X966419Y97848D01*
X966367Y97814D01*
X966314Y97783D01*
X966259Y97755D01*
X966203Y97731D01*
X966145Y97710D01*
X966086Y97693D01*
X966026Y97680D01*
X965965Y97671D01*
X965903Y97665D01*
X965842Y97663D01*
X964903Y98333D02*
X964852Y98442D01*
X964804Y98553D01*
X964760Y98664D01*
X964719Y98777D01*
X964681Y98892D01*
X964647Y99007D01*
X964617Y99123D01*
X964590Y99240D01*
X964566Y99358D01*
X964546Y99477D01*
X964530Y99596D01*
X964517Y99716D01*
X964508Y99836D01*
X964503Y99956D01*
X964501Y100076D01*
X964904Y98333D02*
X964925Y98276D01*
X964951Y98220D01*
X964979Y98165D01*
X965011Y98113D01*
X965047Y98062D01*
X965085Y98014D01*
X965126Y97968D01*
X965170Y97925D01*
X965217Y97885D01*
X965265Y97848D01*
X965317Y97814D01*
X965370Y97783D01*
X965425Y97755D01*
X965481Y97731D01*
X965539Y97710D01*
X965598Y97693D01*
X965658Y97680D01*
X965719Y97671D01*
X965781Y97665D01*
X965842Y97663D01*
X966914Y98735D02*
X964769Y101417D01*
X804152Y118999D02*
X804152Y123825D01*
X802811Y123825D01*
X802740Y123823D01*
X802668Y123817D01*
X802598Y123808D01*
X802528Y123795D01*
X802458Y123778D01*
X802390Y123757D01*
X802323Y123733D01*
X802257Y123705D01*
X802193Y123674D01*
X802130Y123639D01*
X802070Y123601D01*
X802011Y123560D01*
X801955Y123516D01*
X801901Y123469D01*
X801850Y123420D01*
X801802Y123367D01*
X801756Y123312D01*
X801714Y123255D01*
X801674Y123195D01*
X801638Y123134D01*
X801605Y123070D01*
X801576Y123005D01*
X801550Y122939D01*
X801527Y122871D01*
X801508Y122802D01*
X801493Y122732D01*
X801482Y122662D01*
X801474Y122591D01*
X801470Y122520D01*
X801470Y122448D01*
X801474Y122377D01*
X801482Y122306D01*
X801493Y122236D01*
X801508Y122166D01*
X801527Y122097D01*
X801550Y122029D01*
X801576Y121963D01*
X801605Y121898D01*
X801638Y121834D01*
X801674Y121773D01*
X801714Y121713D01*
X801756Y121656D01*
X801802Y121601D01*
X801850Y121548D01*
X801901Y121499D01*
X801955Y121452D01*
X802011Y121408D01*
X802070Y121367D01*
X802130Y121329D01*
X802193Y121294D01*
X802257Y121263D01*
X802323Y121235D01*
X802390Y121211D01*
X802458Y121190D01*
X802528Y121173D01*
X802598Y121160D01*
X802668Y121151D01*
X802740Y121145D01*
X802811Y121143D01*
X802811Y121144D02*
X804152Y121144D01*
X802543Y121144D02*
X801471Y118999D01*
X798729Y118999D02*
X797389Y118999D01*
X797318Y119001D01*
X797246Y119007D01*
X797176Y119016D01*
X797106Y119029D01*
X797036Y119046D01*
X796968Y119067D01*
X796901Y119091D01*
X796835Y119119D01*
X796771Y119150D01*
X796708Y119185D01*
X796648Y119223D01*
X796589Y119264D01*
X796533Y119308D01*
X796479Y119355D01*
X796428Y119404D01*
X796380Y119457D01*
X796334Y119512D01*
X796292Y119569D01*
X796252Y119629D01*
X796216Y119690D01*
X796183Y119754D01*
X796154Y119819D01*
X796128Y119885D01*
X796105Y119953D01*
X796086Y120022D01*
X796071Y120092D01*
X796060Y120162D01*
X796052Y120233D01*
X796048Y120304D01*
X796048Y120376D01*
X796052Y120447D01*
X796060Y120518D01*
X796071Y120588D01*
X796086Y120658D01*
X796105Y120727D01*
X796128Y120795D01*
X796154Y120861D01*
X796183Y120926D01*
X796216Y120990D01*
X796252Y121051D01*
X796292Y121111D01*
X796334Y121168D01*
X796380Y121223D01*
X796428Y121276D01*
X796479Y121325D01*
X796533Y121372D01*
X796589Y121416D01*
X796648Y121457D01*
X796708Y121495D01*
X796771Y121530D01*
X796835Y121561D01*
X796901Y121589D01*
X796968Y121613D01*
X797036Y121634D01*
X797106Y121651D01*
X797176Y121664D01*
X797246Y121673D01*
X797318Y121679D01*
X797389Y121681D01*
X797121Y123825D02*
X798729Y123825D01*
X797121Y123825D02*
X797056Y123823D01*
X796992Y123817D01*
X796928Y123807D01*
X796864Y123794D01*
X796802Y123776D01*
X796741Y123755D01*
X796681Y123731D01*
X796623Y123702D01*
X796566Y123670D01*
X796512Y123635D01*
X796460Y123597D01*
X796410Y123555D01*
X796363Y123511D01*
X796319Y123464D01*
X796277Y123414D01*
X796239Y123362D01*
X796204Y123308D01*
X796172Y123251D01*
X796143Y123193D01*
X796119Y123133D01*
X796098Y123072D01*
X796080Y123010D01*
X796067Y122946D01*
X796057Y122882D01*
X796051Y122818D01*
X796049Y122753D01*
X796051Y122688D01*
X796057Y122624D01*
X796067Y122560D01*
X796080Y122496D01*
X796098Y122434D01*
X796119Y122373D01*
X796143Y122313D01*
X796172Y122255D01*
X796204Y122198D01*
X796239Y122144D01*
X796277Y122092D01*
X796319Y122042D01*
X796363Y121995D01*
X796410Y121951D01*
X796460Y121909D01*
X796512Y121871D01*
X796566Y121836D01*
X796623Y121804D01*
X796681Y121775D01*
X796741Y121751D01*
X796802Y121730D01*
X796864Y121712D01*
X796928Y121699D01*
X796992Y121689D01*
X797056Y121683D01*
X797121Y121681D01*
X797121Y121680D02*
X798193Y121680D01*
D10*
X135382Y394141D02*
X123698Y394141D01*
X135382Y394141D02*
X135382Y397386D01*
X135380Y397499D01*
X135374Y397612D01*
X135364Y397725D01*
X135350Y397838D01*
X135333Y397950D01*
X135311Y398061D01*
X135286Y398171D01*
X135256Y398281D01*
X135223Y398389D01*
X135186Y398496D01*
X135146Y398602D01*
X135101Y398706D01*
X135053Y398809D01*
X135002Y398910D01*
X134947Y399009D01*
X134889Y399106D01*
X134827Y399201D01*
X134762Y399294D01*
X134694Y399384D01*
X134623Y399472D01*
X134548Y399558D01*
X134471Y399641D01*
X134391Y399721D01*
X134308Y399798D01*
X134222Y399873D01*
X134134Y399944D01*
X134044Y400012D01*
X133951Y400077D01*
X133856Y400139D01*
X133759Y400197D01*
X133660Y400252D01*
X133559Y400303D01*
X133456Y400351D01*
X133352Y400396D01*
X133246Y400436D01*
X133139Y400473D01*
X133031Y400506D01*
X132921Y400536D01*
X132811Y400561D01*
X132700Y400583D01*
X132588Y400600D01*
X132475Y400614D01*
X132362Y400624D01*
X132249Y400630D01*
X132136Y400632D01*
X132023Y400630D01*
X131910Y400624D01*
X131797Y400614D01*
X131684Y400600D01*
X131572Y400583D01*
X131461Y400561D01*
X131351Y400536D01*
X131241Y400506D01*
X131133Y400473D01*
X131026Y400436D01*
X130920Y400396D01*
X130816Y400351D01*
X130713Y400303D01*
X130612Y400252D01*
X130513Y400197D01*
X130416Y400139D01*
X130321Y400077D01*
X130228Y400012D01*
X130138Y399944D01*
X130050Y399873D01*
X129964Y399798D01*
X129881Y399721D01*
X129801Y399641D01*
X129724Y399558D01*
X129649Y399472D01*
X129578Y399384D01*
X129510Y399294D01*
X129445Y399201D01*
X129383Y399106D01*
X129325Y399009D01*
X129270Y398910D01*
X129219Y398809D01*
X129171Y398706D01*
X129126Y398602D01*
X129086Y398496D01*
X129049Y398389D01*
X129016Y398281D01*
X128986Y398171D01*
X128961Y398061D01*
X128939Y397950D01*
X128922Y397838D01*
X128908Y397725D01*
X128898Y397612D01*
X128892Y397499D01*
X128890Y397386D01*
X128891Y397386D02*
X128891Y394141D01*
X128891Y398035D02*
X123698Y400632D01*
X126294Y405497D02*
X135382Y408093D01*
X126294Y405497D02*
X126294Y411988D01*
X128891Y410041D02*
X123698Y410041D01*
X466852Y334518D02*
X466852Y322834D01*
X466852Y334518D02*
X463606Y334518D01*
X463493Y334516D01*
X463380Y334510D01*
X463267Y334500D01*
X463154Y334486D01*
X463042Y334469D01*
X462931Y334447D01*
X462821Y334422D01*
X462711Y334392D01*
X462603Y334359D01*
X462496Y334322D01*
X462390Y334282D01*
X462286Y334237D01*
X462183Y334189D01*
X462082Y334138D01*
X461983Y334083D01*
X461886Y334025D01*
X461791Y333963D01*
X461698Y333898D01*
X461608Y333830D01*
X461520Y333759D01*
X461434Y333684D01*
X461351Y333607D01*
X461271Y333527D01*
X461194Y333444D01*
X461119Y333358D01*
X461048Y333270D01*
X460980Y333180D01*
X460915Y333087D01*
X460853Y332992D01*
X460795Y332895D01*
X460740Y332796D01*
X460689Y332695D01*
X460641Y332592D01*
X460596Y332488D01*
X460556Y332382D01*
X460519Y332275D01*
X460486Y332167D01*
X460456Y332057D01*
X460431Y331947D01*
X460409Y331836D01*
X460392Y331724D01*
X460378Y331611D01*
X460368Y331498D01*
X460362Y331385D01*
X460360Y331272D01*
X460362Y331159D01*
X460368Y331046D01*
X460378Y330933D01*
X460392Y330820D01*
X460409Y330708D01*
X460431Y330597D01*
X460456Y330487D01*
X460486Y330377D01*
X460519Y330269D01*
X460556Y330162D01*
X460596Y330056D01*
X460641Y329952D01*
X460689Y329849D01*
X460740Y329748D01*
X460795Y329649D01*
X460853Y329552D01*
X460915Y329457D01*
X460980Y329364D01*
X461048Y329274D01*
X461119Y329186D01*
X461194Y329100D01*
X461271Y329017D01*
X461351Y328937D01*
X461434Y328860D01*
X461520Y328785D01*
X461608Y328714D01*
X461698Y328646D01*
X461791Y328581D01*
X461886Y328519D01*
X461983Y328461D01*
X462082Y328406D01*
X462183Y328355D01*
X462286Y328307D01*
X462390Y328262D01*
X462496Y328222D01*
X462603Y328185D01*
X462711Y328152D01*
X462821Y328122D01*
X462931Y328097D01*
X463042Y328075D01*
X463154Y328058D01*
X463267Y328044D01*
X463380Y328034D01*
X463493Y328028D01*
X463606Y328026D01*
X463606Y328027D02*
X466852Y328027D01*
X462957Y328027D02*
X460361Y322834D01*
X455496Y322834D02*
X451601Y322834D01*
X451502Y322836D01*
X451402Y322842D01*
X451303Y322851D01*
X451205Y322864D01*
X451107Y322881D01*
X451009Y322902D01*
X450913Y322927D01*
X450818Y322955D01*
X450724Y322987D01*
X450631Y323022D01*
X450539Y323061D01*
X450449Y323104D01*
X450361Y323149D01*
X450274Y323199D01*
X450190Y323251D01*
X450107Y323307D01*
X450027Y323365D01*
X449949Y323427D01*
X449874Y323492D01*
X449801Y323560D01*
X449731Y323630D01*
X449663Y323703D01*
X449598Y323778D01*
X449536Y323856D01*
X449478Y323936D01*
X449422Y324019D01*
X449370Y324103D01*
X449320Y324190D01*
X449275Y324278D01*
X449232Y324368D01*
X449193Y324460D01*
X449158Y324553D01*
X449126Y324647D01*
X449098Y324742D01*
X449073Y324838D01*
X449052Y324936D01*
X449035Y325034D01*
X449022Y325132D01*
X449013Y325231D01*
X449007Y325331D01*
X449005Y325430D01*
X449005Y326729D01*
X449007Y326828D01*
X449013Y326928D01*
X449022Y327027D01*
X449035Y327125D01*
X449052Y327223D01*
X449073Y327321D01*
X449098Y327417D01*
X449126Y327512D01*
X449158Y327606D01*
X449193Y327699D01*
X449232Y327791D01*
X449275Y327881D01*
X449320Y327969D01*
X449370Y328056D01*
X449422Y328140D01*
X449478Y328223D01*
X449536Y328303D01*
X449598Y328381D01*
X449663Y328456D01*
X449731Y328529D01*
X449801Y328599D01*
X449874Y328667D01*
X449949Y328732D01*
X450027Y328794D01*
X450107Y328852D01*
X450190Y328908D01*
X450274Y328960D01*
X450361Y329010D01*
X450449Y329055D01*
X450539Y329098D01*
X450631Y329137D01*
X450724Y329172D01*
X450818Y329204D01*
X450913Y329232D01*
X451009Y329257D01*
X451107Y329278D01*
X451205Y329295D01*
X451303Y329308D01*
X451402Y329317D01*
X451502Y329323D01*
X451601Y329325D01*
X455496Y329325D01*
X455496Y334518D01*
X449005Y334518D01*
D12*
X146177Y170700D02*
X141351Y170700D01*
X146177Y170700D02*
X146177Y172041D01*
X146175Y172112D01*
X146169Y172184D01*
X146160Y172254D01*
X146147Y172324D01*
X146130Y172394D01*
X146109Y172462D01*
X146085Y172529D01*
X146057Y172595D01*
X146026Y172659D01*
X145991Y172722D01*
X145953Y172782D01*
X145912Y172841D01*
X145868Y172897D01*
X145821Y172951D01*
X145772Y173002D01*
X145719Y173050D01*
X145664Y173096D01*
X145607Y173138D01*
X145547Y173178D01*
X145486Y173214D01*
X145422Y173247D01*
X145357Y173276D01*
X145291Y173302D01*
X145223Y173325D01*
X145154Y173344D01*
X145084Y173359D01*
X145014Y173370D01*
X144943Y173378D01*
X144872Y173382D01*
X144800Y173382D01*
X144729Y173378D01*
X144658Y173370D01*
X144588Y173359D01*
X144518Y173344D01*
X144449Y173325D01*
X144381Y173302D01*
X144315Y173276D01*
X144250Y173247D01*
X144186Y173214D01*
X144125Y173178D01*
X144065Y173138D01*
X144008Y173096D01*
X143953Y173050D01*
X143900Y173002D01*
X143851Y172951D01*
X143804Y172897D01*
X143760Y172841D01*
X143719Y172782D01*
X143681Y172722D01*
X143646Y172659D01*
X143615Y172595D01*
X143587Y172529D01*
X143563Y172462D01*
X143542Y172394D01*
X143525Y172324D01*
X143512Y172254D01*
X143503Y172184D01*
X143497Y172112D01*
X143495Y172041D01*
X143496Y172041D02*
X143496Y170700D01*
X143496Y172309D02*
X141351Y173381D01*
X144032Y176123D02*
X144032Y177731D01*
X144030Y177796D01*
X144024Y177860D01*
X144014Y177924D01*
X144001Y177988D01*
X143983Y178050D01*
X143962Y178111D01*
X143938Y178171D01*
X143909Y178229D01*
X143877Y178286D01*
X143842Y178340D01*
X143804Y178392D01*
X143762Y178442D01*
X143718Y178489D01*
X143671Y178533D01*
X143621Y178575D01*
X143569Y178613D01*
X143515Y178648D01*
X143458Y178680D01*
X143400Y178709D01*
X143340Y178733D01*
X143279Y178754D01*
X143217Y178772D01*
X143153Y178785D01*
X143089Y178795D01*
X143025Y178801D01*
X142960Y178803D01*
X142960Y178804D02*
X142692Y178804D01*
X142621Y178802D01*
X142549Y178796D01*
X142479Y178787D01*
X142409Y178774D01*
X142339Y178757D01*
X142271Y178736D01*
X142204Y178712D01*
X142138Y178684D01*
X142074Y178653D01*
X142011Y178618D01*
X141951Y178580D01*
X141892Y178539D01*
X141836Y178495D01*
X141782Y178448D01*
X141731Y178399D01*
X141683Y178346D01*
X141637Y178291D01*
X141595Y178234D01*
X141555Y178174D01*
X141519Y178113D01*
X141486Y178049D01*
X141457Y177984D01*
X141431Y177918D01*
X141408Y177850D01*
X141389Y177781D01*
X141374Y177711D01*
X141363Y177641D01*
X141355Y177570D01*
X141351Y177499D01*
X141351Y177427D01*
X141355Y177356D01*
X141363Y177285D01*
X141374Y177215D01*
X141389Y177145D01*
X141408Y177076D01*
X141431Y177008D01*
X141457Y176942D01*
X141486Y176877D01*
X141519Y176813D01*
X141555Y176752D01*
X141595Y176692D01*
X141637Y176635D01*
X141683Y176580D01*
X141731Y176527D01*
X141782Y176478D01*
X141836Y176431D01*
X141892Y176387D01*
X141951Y176346D01*
X142011Y176308D01*
X142074Y176273D01*
X142138Y176242D01*
X142204Y176214D01*
X142271Y176190D01*
X142339Y176169D01*
X142409Y176152D01*
X142479Y176139D01*
X142549Y176130D01*
X142621Y176124D01*
X142692Y176122D01*
X142692Y176123D02*
X144032Y176123D01*
X144123Y176125D01*
X144214Y176131D01*
X144304Y176140D01*
X144395Y176154D01*
X144484Y176171D01*
X144572Y176192D01*
X144660Y176217D01*
X144747Y176246D01*
X144832Y176278D01*
X144916Y176313D01*
X144998Y176353D01*
X145078Y176395D01*
X145157Y176441D01*
X145233Y176491D01*
X145307Y176543D01*
X145380Y176599D01*
X145449Y176658D01*
X145516Y176719D01*
X145581Y176784D01*
X145642Y176851D01*
X145701Y176920D01*
X145757Y176992D01*
X145809Y177067D01*
X145859Y177143D01*
X145905Y177222D01*
X145947Y177302D01*
X145987Y177384D01*
X146022Y177468D01*
X146054Y177553D01*
X146083Y177640D01*
X146108Y177727D01*
X146129Y177816D01*
X146146Y177905D01*
X146160Y177996D01*
X146169Y178086D01*
X146175Y178177D01*
X146177Y178268D01*
D10*
X204978Y394141D02*
X216662Y394141D01*
X216662Y397386D01*
X216660Y397499D01*
X216654Y397612D01*
X216644Y397725D01*
X216630Y397838D01*
X216613Y397950D01*
X216591Y398061D01*
X216566Y398171D01*
X216536Y398281D01*
X216503Y398389D01*
X216466Y398496D01*
X216426Y398602D01*
X216381Y398706D01*
X216333Y398809D01*
X216282Y398910D01*
X216227Y399009D01*
X216169Y399106D01*
X216107Y399201D01*
X216042Y399294D01*
X215974Y399384D01*
X215903Y399472D01*
X215828Y399558D01*
X215751Y399641D01*
X215671Y399721D01*
X215588Y399798D01*
X215502Y399873D01*
X215414Y399944D01*
X215324Y400012D01*
X215231Y400077D01*
X215136Y400139D01*
X215039Y400197D01*
X214940Y400252D01*
X214839Y400303D01*
X214736Y400351D01*
X214632Y400396D01*
X214526Y400436D01*
X214419Y400473D01*
X214311Y400506D01*
X214201Y400536D01*
X214091Y400561D01*
X213980Y400583D01*
X213868Y400600D01*
X213755Y400614D01*
X213642Y400624D01*
X213529Y400630D01*
X213416Y400632D01*
X213303Y400630D01*
X213190Y400624D01*
X213077Y400614D01*
X212964Y400600D01*
X212852Y400583D01*
X212741Y400561D01*
X212631Y400536D01*
X212521Y400506D01*
X212413Y400473D01*
X212306Y400436D01*
X212200Y400396D01*
X212096Y400351D01*
X211993Y400303D01*
X211892Y400252D01*
X211793Y400197D01*
X211696Y400139D01*
X211601Y400077D01*
X211508Y400012D01*
X211418Y399944D01*
X211330Y399873D01*
X211244Y399798D01*
X211161Y399721D01*
X211081Y399641D01*
X211004Y399558D01*
X210929Y399472D01*
X210858Y399384D01*
X210790Y399294D01*
X210725Y399201D01*
X210663Y399106D01*
X210605Y399009D01*
X210550Y398910D01*
X210499Y398809D01*
X210451Y398706D01*
X210406Y398602D01*
X210366Y398496D01*
X210329Y398389D01*
X210296Y398281D01*
X210266Y398171D01*
X210241Y398061D01*
X210219Y397950D01*
X210202Y397838D01*
X210188Y397725D01*
X210178Y397612D01*
X210172Y397499D01*
X210170Y397386D01*
X210171Y397386D02*
X210171Y394141D01*
X210171Y398035D02*
X204978Y400632D01*
X215364Y405497D02*
X216662Y405497D01*
X216662Y411988D01*
X204978Y408742D01*
X629412Y334518D02*
X629412Y322834D01*
X629412Y334518D02*
X626166Y334518D01*
X626053Y334516D01*
X625940Y334510D01*
X625827Y334500D01*
X625714Y334486D01*
X625602Y334469D01*
X625491Y334447D01*
X625381Y334422D01*
X625271Y334392D01*
X625163Y334359D01*
X625056Y334322D01*
X624950Y334282D01*
X624846Y334237D01*
X624743Y334189D01*
X624642Y334138D01*
X624543Y334083D01*
X624446Y334025D01*
X624351Y333963D01*
X624258Y333898D01*
X624168Y333830D01*
X624080Y333759D01*
X623994Y333684D01*
X623911Y333607D01*
X623831Y333527D01*
X623754Y333444D01*
X623679Y333358D01*
X623608Y333270D01*
X623540Y333180D01*
X623475Y333087D01*
X623413Y332992D01*
X623355Y332895D01*
X623300Y332796D01*
X623249Y332695D01*
X623201Y332592D01*
X623156Y332488D01*
X623116Y332382D01*
X623079Y332275D01*
X623046Y332167D01*
X623016Y332057D01*
X622991Y331947D01*
X622969Y331836D01*
X622952Y331724D01*
X622938Y331611D01*
X622928Y331498D01*
X622922Y331385D01*
X622920Y331272D01*
X622922Y331159D01*
X622928Y331046D01*
X622938Y330933D01*
X622952Y330820D01*
X622969Y330708D01*
X622991Y330597D01*
X623016Y330487D01*
X623046Y330377D01*
X623079Y330269D01*
X623116Y330162D01*
X623156Y330056D01*
X623201Y329952D01*
X623249Y329849D01*
X623300Y329748D01*
X623355Y329649D01*
X623413Y329552D01*
X623475Y329457D01*
X623540Y329364D01*
X623608Y329274D01*
X623679Y329186D01*
X623754Y329100D01*
X623831Y329017D01*
X623911Y328937D01*
X623994Y328860D01*
X624080Y328785D01*
X624168Y328714D01*
X624258Y328646D01*
X624351Y328581D01*
X624446Y328519D01*
X624543Y328461D01*
X624642Y328406D01*
X624743Y328355D01*
X624846Y328307D01*
X624950Y328262D01*
X625056Y328222D01*
X625163Y328185D01*
X625271Y328152D01*
X625381Y328122D01*
X625491Y328097D01*
X625602Y328075D01*
X625714Y328058D01*
X625827Y328044D01*
X625940Y328034D01*
X626053Y328028D01*
X626166Y328026D01*
X626166Y328027D02*
X629412Y328027D01*
X625517Y328027D02*
X622921Y322834D01*
X618056Y326080D02*
X618054Y326193D01*
X618048Y326306D01*
X618038Y326419D01*
X618024Y326532D01*
X618007Y326644D01*
X617985Y326755D01*
X617960Y326865D01*
X617930Y326975D01*
X617897Y327083D01*
X617860Y327190D01*
X617820Y327296D01*
X617775Y327400D01*
X617727Y327503D01*
X617676Y327604D01*
X617621Y327703D01*
X617563Y327800D01*
X617501Y327895D01*
X617436Y327988D01*
X617368Y328078D01*
X617297Y328166D01*
X617222Y328252D01*
X617145Y328335D01*
X617065Y328415D01*
X616982Y328492D01*
X616896Y328567D01*
X616808Y328638D01*
X616718Y328706D01*
X616625Y328771D01*
X616530Y328833D01*
X616433Y328891D01*
X616334Y328946D01*
X616233Y328997D01*
X616130Y329045D01*
X616026Y329090D01*
X615920Y329130D01*
X615813Y329167D01*
X615705Y329200D01*
X615595Y329230D01*
X615485Y329255D01*
X615374Y329277D01*
X615262Y329294D01*
X615149Y329308D01*
X615036Y329318D01*
X614923Y329324D01*
X614810Y329326D01*
X614697Y329324D01*
X614584Y329318D01*
X614471Y329308D01*
X614358Y329294D01*
X614246Y329277D01*
X614135Y329255D01*
X614025Y329230D01*
X613915Y329200D01*
X613807Y329167D01*
X613700Y329130D01*
X613594Y329090D01*
X613490Y329045D01*
X613387Y328997D01*
X613286Y328946D01*
X613187Y328891D01*
X613090Y328833D01*
X612995Y328771D01*
X612902Y328706D01*
X612812Y328638D01*
X612724Y328567D01*
X612638Y328492D01*
X612555Y328415D01*
X612475Y328335D01*
X612398Y328252D01*
X612323Y328166D01*
X612252Y328078D01*
X612184Y327988D01*
X612119Y327895D01*
X612057Y327800D01*
X611999Y327703D01*
X611944Y327604D01*
X611893Y327503D01*
X611845Y327400D01*
X611800Y327296D01*
X611760Y327190D01*
X611723Y327083D01*
X611690Y326975D01*
X611660Y326865D01*
X611635Y326755D01*
X611613Y326644D01*
X611596Y326532D01*
X611582Y326419D01*
X611572Y326306D01*
X611566Y326193D01*
X611564Y326080D01*
X611566Y325967D01*
X611572Y325854D01*
X611582Y325741D01*
X611596Y325628D01*
X611613Y325516D01*
X611635Y325405D01*
X611660Y325295D01*
X611690Y325185D01*
X611723Y325077D01*
X611760Y324970D01*
X611800Y324864D01*
X611845Y324760D01*
X611893Y324657D01*
X611944Y324556D01*
X611999Y324457D01*
X612057Y324360D01*
X612119Y324265D01*
X612184Y324172D01*
X612252Y324082D01*
X612323Y323994D01*
X612398Y323908D01*
X612475Y323825D01*
X612555Y323745D01*
X612638Y323668D01*
X612724Y323593D01*
X612812Y323522D01*
X612902Y323454D01*
X612995Y323389D01*
X613090Y323327D01*
X613187Y323269D01*
X613286Y323214D01*
X613387Y323163D01*
X613490Y323115D01*
X613594Y323070D01*
X613700Y323030D01*
X613807Y322993D01*
X613915Y322960D01*
X614025Y322930D01*
X614135Y322905D01*
X614246Y322883D01*
X614358Y322866D01*
X614471Y322852D01*
X614584Y322842D01*
X614697Y322836D01*
X614810Y322834D01*
X614923Y322836D01*
X615036Y322842D01*
X615149Y322852D01*
X615262Y322866D01*
X615374Y322883D01*
X615485Y322905D01*
X615595Y322930D01*
X615705Y322960D01*
X615813Y322993D01*
X615920Y323030D01*
X616026Y323070D01*
X616130Y323115D01*
X616233Y323163D01*
X616334Y323214D01*
X616433Y323269D01*
X616530Y323327D01*
X616625Y323389D01*
X616718Y323454D01*
X616808Y323522D01*
X616896Y323593D01*
X616982Y323668D01*
X617065Y323745D01*
X617145Y323825D01*
X617222Y323908D01*
X617297Y323994D01*
X617368Y324082D01*
X617436Y324172D01*
X617501Y324265D01*
X617563Y324360D01*
X617621Y324457D01*
X617676Y324556D01*
X617727Y324657D01*
X617775Y324760D01*
X617820Y324864D01*
X617860Y324970D01*
X617897Y325077D01*
X617930Y325185D01*
X617960Y325295D01*
X617985Y325405D01*
X618007Y325516D01*
X618024Y325628D01*
X618038Y325741D01*
X618048Y325854D01*
X618054Y325967D01*
X618056Y326080D01*
X617406Y331922D02*
X617404Y332023D01*
X617398Y332123D01*
X617388Y332223D01*
X617375Y332323D01*
X617357Y332422D01*
X617336Y332521D01*
X617311Y332618D01*
X617282Y332715D01*
X617249Y332810D01*
X617213Y332904D01*
X617173Y332996D01*
X617130Y333087D01*
X617083Y333176D01*
X617033Y333263D01*
X616979Y333349D01*
X616922Y333432D01*
X616862Y333512D01*
X616799Y333591D01*
X616732Y333667D01*
X616663Y333740D01*
X616591Y333810D01*
X616517Y333878D01*
X616440Y333943D01*
X616360Y334004D01*
X616278Y334063D01*
X616194Y334118D01*
X616108Y334170D01*
X616020Y334219D01*
X615930Y334264D01*
X615838Y334306D01*
X615745Y334344D01*
X615650Y334378D01*
X615555Y334409D01*
X615458Y334436D01*
X615360Y334459D01*
X615261Y334479D01*
X615161Y334494D01*
X615061Y334506D01*
X614961Y334514D01*
X614860Y334518D01*
X614760Y334518D01*
X614659Y334514D01*
X614559Y334506D01*
X614459Y334494D01*
X614359Y334479D01*
X614260Y334459D01*
X614162Y334436D01*
X614065Y334409D01*
X613970Y334378D01*
X613875Y334344D01*
X613782Y334306D01*
X613690Y334264D01*
X613600Y334219D01*
X613512Y334170D01*
X613426Y334118D01*
X613342Y334063D01*
X613260Y334004D01*
X613180Y333943D01*
X613103Y333878D01*
X613029Y333810D01*
X612957Y333740D01*
X612888Y333667D01*
X612821Y333591D01*
X612758Y333512D01*
X612698Y333432D01*
X612641Y333349D01*
X612587Y333263D01*
X612537Y333176D01*
X612490Y333087D01*
X612447Y332996D01*
X612407Y332904D01*
X612371Y332810D01*
X612338Y332715D01*
X612309Y332618D01*
X612284Y332521D01*
X612263Y332422D01*
X612245Y332323D01*
X612232Y332223D01*
X612222Y332123D01*
X612216Y332023D01*
X612214Y331922D01*
X612216Y331821D01*
X612222Y331721D01*
X612232Y331621D01*
X612245Y331521D01*
X612263Y331422D01*
X612284Y331323D01*
X612309Y331226D01*
X612338Y331129D01*
X612371Y331034D01*
X612407Y330940D01*
X612447Y330848D01*
X612490Y330757D01*
X612537Y330668D01*
X612587Y330581D01*
X612641Y330495D01*
X612698Y330412D01*
X612758Y330332D01*
X612821Y330253D01*
X612888Y330177D01*
X612957Y330104D01*
X613029Y330034D01*
X613103Y329966D01*
X613180Y329901D01*
X613260Y329840D01*
X613342Y329781D01*
X613426Y329726D01*
X613512Y329674D01*
X613600Y329625D01*
X613690Y329580D01*
X613782Y329538D01*
X613875Y329500D01*
X613970Y329466D01*
X614065Y329435D01*
X614162Y329408D01*
X614260Y329385D01*
X614359Y329365D01*
X614459Y329350D01*
X614559Y329338D01*
X614659Y329330D01*
X614760Y329326D01*
X614860Y329326D01*
X614961Y329330D01*
X615061Y329338D01*
X615161Y329350D01*
X615261Y329365D01*
X615360Y329385D01*
X615458Y329408D01*
X615555Y329435D01*
X615650Y329466D01*
X615745Y329500D01*
X615838Y329538D01*
X615930Y329580D01*
X616020Y329625D01*
X616108Y329674D01*
X616194Y329726D01*
X616278Y329781D01*
X616360Y329840D01*
X616440Y329901D01*
X616517Y329966D01*
X616591Y330034D01*
X616663Y330104D01*
X616732Y330177D01*
X616799Y330253D01*
X616862Y330332D01*
X616922Y330412D01*
X616979Y330495D01*
X617033Y330581D01*
X617083Y330668D01*
X617130Y330757D01*
X617173Y330848D01*
X617213Y330940D01*
X617249Y331034D01*
X617282Y331129D01*
X617311Y331226D01*
X617336Y331323D01*
X617357Y331422D01*
X617375Y331521D01*
X617388Y331621D01*
X617398Y331721D01*
X617404Y331821D01*
X617406Y331922D01*
D12*
X230112Y191897D02*
X230112Y187071D01*
X230112Y191897D02*
X228771Y191897D01*
X228700Y191895D01*
X228628Y191889D01*
X228558Y191880D01*
X228488Y191867D01*
X228418Y191850D01*
X228350Y191829D01*
X228283Y191805D01*
X228217Y191777D01*
X228153Y191746D01*
X228090Y191711D01*
X228030Y191673D01*
X227971Y191632D01*
X227915Y191588D01*
X227861Y191541D01*
X227810Y191492D01*
X227762Y191439D01*
X227716Y191384D01*
X227674Y191327D01*
X227634Y191267D01*
X227598Y191206D01*
X227565Y191142D01*
X227536Y191077D01*
X227510Y191011D01*
X227487Y190943D01*
X227468Y190874D01*
X227453Y190804D01*
X227442Y190734D01*
X227434Y190663D01*
X227430Y190592D01*
X227430Y190520D01*
X227434Y190449D01*
X227442Y190378D01*
X227453Y190308D01*
X227468Y190238D01*
X227487Y190169D01*
X227510Y190101D01*
X227536Y190035D01*
X227565Y189970D01*
X227598Y189906D01*
X227634Y189845D01*
X227674Y189785D01*
X227716Y189728D01*
X227762Y189673D01*
X227810Y189620D01*
X227861Y189571D01*
X227915Y189524D01*
X227971Y189480D01*
X228030Y189439D01*
X228090Y189401D01*
X228153Y189366D01*
X228217Y189335D01*
X228283Y189307D01*
X228350Y189283D01*
X228418Y189262D01*
X228488Y189245D01*
X228558Y189232D01*
X228628Y189223D01*
X228700Y189217D01*
X228771Y189215D01*
X228771Y189216D02*
X230112Y189216D01*
X228503Y189216D02*
X227431Y187071D01*
X223617Y189216D02*
X222008Y189216D01*
X223617Y189216D02*
X223682Y189218D01*
X223746Y189224D01*
X223810Y189234D01*
X223874Y189247D01*
X223936Y189265D01*
X223997Y189286D01*
X224057Y189310D01*
X224115Y189339D01*
X224172Y189371D01*
X224226Y189406D01*
X224278Y189444D01*
X224328Y189486D01*
X224375Y189530D01*
X224419Y189577D01*
X224461Y189627D01*
X224499Y189679D01*
X224534Y189733D01*
X224566Y189790D01*
X224595Y189848D01*
X224619Y189908D01*
X224640Y189969D01*
X224658Y190031D01*
X224671Y190095D01*
X224681Y190159D01*
X224687Y190223D01*
X224689Y190288D01*
X224689Y190556D01*
X224690Y190556D02*
X224688Y190627D01*
X224682Y190699D01*
X224673Y190769D01*
X224660Y190839D01*
X224643Y190909D01*
X224622Y190977D01*
X224598Y191044D01*
X224570Y191110D01*
X224539Y191174D01*
X224504Y191237D01*
X224466Y191297D01*
X224425Y191356D01*
X224381Y191412D01*
X224334Y191466D01*
X224285Y191517D01*
X224232Y191565D01*
X224177Y191611D01*
X224120Y191653D01*
X224060Y191693D01*
X223999Y191729D01*
X223935Y191762D01*
X223870Y191791D01*
X223804Y191817D01*
X223736Y191840D01*
X223667Y191859D01*
X223597Y191874D01*
X223527Y191885D01*
X223456Y191893D01*
X223385Y191897D01*
X223313Y191897D01*
X223242Y191893D01*
X223171Y191885D01*
X223101Y191874D01*
X223031Y191859D01*
X222962Y191840D01*
X222894Y191817D01*
X222828Y191791D01*
X222763Y191762D01*
X222699Y191729D01*
X222638Y191693D01*
X222578Y191653D01*
X222521Y191611D01*
X222466Y191565D01*
X222413Y191517D01*
X222364Y191466D01*
X222317Y191412D01*
X222273Y191356D01*
X222232Y191297D01*
X222194Y191237D01*
X222159Y191174D01*
X222128Y191110D01*
X222100Y191044D01*
X222076Y190977D01*
X222055Y190909D01*
X222038Y190839D01*
X222025Y190769D01*
X222016Y190699D01*
X222010Y190627D01*
X222008Y190556D01*
X222008Y189216D01*
X222010Y189125D01*
X222016Y189034D01*
X222025Y188944D01*
X222039Y188853D01*
X222056Y188764D01*
X222077Y188676D01*
X222102Y188588D01*
X222131Y188501D01*
X222163Y188416D01*
X222198Y188332D01*
X222238Y188250D01*
X222280Y188170D01*
X222326Y188091D01*
X222376Y188015D01*
X222428Y187941D01*
X222484Y187868D01*
X222543Y187799D01*
X222604Y187732D01*
X222669Y187667D01*
X222736Y187606D01*
X222805Y187547D01*
X222878Y187491D01*
X222952Y187439D01*
X223028Y187389D01*
X223107Y187343D01*
X223187Y187301D01*
X223269Y187261D01*
X223353Y187226D01*
X223438Y187194D01*
X223525Y187165D01*
X223613Y187140D01*
X223701Y187119D01*
X223790Y187102D01*
X223881Y187088D01*
X223971Y187079D01*
X224062Y187073D01*
X224153Y187071D01*
D11*
X1283940Y179072D02*
X1283940Y211072D01*
X1184940Y211072D01*
X1184940Y179072D01*
X1283940Y179072D01*
X1285640Y175572D02*
X1285640Y160072D01*
D10*
X1199642Y184764D02*
X1187958Y184764D01*
X1187958Y183466D02*
X1187958Y186062D01*
X1199642Y186062D02*
X1199642Y183466D01*
X1187958Y193226D02*
X1187958Y195822D01*
X1187958Y193226D02*
X1187960Y193127D01*
X1187966Y193027D01*
X1187975Y192928D01*
X1187988Y192830D01*
X1188005Y192732D01*
X1188026Y192634D01*
X1188051Y192538D01*
X1188079Y192443D01*
X1188111Y192349D01*
X1188146Y192256D01*
X1188185Y192164D01*
X1188228Y192074D01*
X1188273Y191986D01*
X1188323Y191899D01*
X1188375Y191815D01*
X1188431Y191732D01*
X1188489Y191652D01*
X1188551Y191574D01*
X1188616Y191499D01*
X1188684Y191426D01*
X1188754Y191356D01*
X1188827Y191288D01*
X1188902Y191223D01*
X1188980Y191161D01*
X1189060Y191103D01*
X1189143Y191047D01*
X1189227Y190995D01*
X1189314Y190945D01*
X1189402Y190900D01*
X1189492Y190857D01*
X1189584Y190818D01*
X1189677Y190783D01*
X1189771Y190751D01*
X1189866Y190723D01*
X1189962Y190698D01*
X1190060Y190677D01*
X1190158Y190660D01*
X1190256Y190647D01*
X1190355Y190638D01*
X1190455Y190632D01*
X1190554Y190630D01*
X1190554Y190629D02*
X1197046Y190629D01*
X1197046Y190630D02*
X1197145Y190632D01*
X1197245Y190638D01*
X1197344Y190647D01*
X1197442Y190660D01*
X1197540Y190677D01*
X1197638Y190698D01*
X1197734Y190723D01*
X1197829Y190751D01*
X1197923Y190783D01*
X1198016Y190818D01*
X1198108Y190857D01*
X1198198Y190900D01*
X1198286Y190945D01*
X1198373Y190995D01*
X1198457Y191047D01*
X1198540Y191103D01*
X1198620Y191161D01*
X1198698Y191223D01*
X1198773Y191288D01*
X1198846Y191356D01*
X1198916Y191426D01*
X1198984Y191499D01*
X1199049Y191574D01*
X1199111Y191652D01*
X1199169Y191732D01*
X1199225Y191815D01*
X1199277Y191899D01*
X1199327Y191986D01*
X1199372Y192074D01*
X1199415Y192164D01*
X1199454Y192256D01*
X1199489Y192348D01*
X1199521Y192443D01*
X1199549Y192538D01*
X1199574Y192634D01*
X1199595Y192732D01*
X1199612Y192830D01*
X1199625Y192928D01*
X1199634Y193027D01*
X1199640Y193127D01*
X1199642Y193226D01*
X1199642Y195822D01*
X1197046Y200187D02*
X1199642Y203433D01*
X1187958Y203433D01*
X1187958Y206678D02*
X1187958Y200187D01*
D12*
X1201611Y294767D02*
X1201611Y299593D01*
X1200271Y299593D01*
X1200200Y299591D01*
X1200128Y299585D01*
X1200058Y299576D01*
X1199988Y299563D01*
X1199918Y299546D01*
X1199850Y299525D01*
X1199783Y299501D01*
X1199717Y299473D01*
X1199653Y299442D01*
X1199590Y299407D01*
X1199530Y299369D01*
X1199471Y299328D01*
X1199415Y299284D01*
X1199361Y299237D01*
X1199310Y299188D01*
X1199262Y299135D01*
X1199216Y299080D01*
X1199174Y299023D01*
X1199134Y298963D01*
X1199098Y298902D01*
X1199065Y298838D01*
X1199036Y298773D01*
X1199010Y298707D01*
X1198987Y298639D01*
X1198968Y298570D01*
X1198953Y298500D01*
X1198942Y298430D01*
X1198934Y298359D01*
X1198930Y298288D01*
X1198930Y298216D01*
X1198934Y298145D01*
X1198942Y298074D01*
X1198953Y298004D01*
X1198968Y297934D01*
X1198987Y297865D01*
X1199010Y297797D01*
X1199036Y297731D01*
X1199065Y297666D01*
X1199098Y297602D01*
X1199134Y297541D01*
X1199174Y297481D01*
X1199216Y297424D01*
X1199262Y297369D01*
X1199310Y297316D01*
X1199361Y297267D01*
X1199415Y297220D01*
X1199471Y297176D01*
X1199530Y297135D01*
X1199590Y297097D01*
X1199653Y297062D01*
X1199717Y297031D01*
X1199783Y297003D01*
X1199850Y296979D01*
X1199918Y296958D01*
X1199988Y296941D01*
X1200058Y296928D01*
X1200128Y296919D01*
X1200200Y296913D01*
X1200271Y296911D01*
X1200271Y296912D02*
X1201611Y296912D01*
X1200002Y296912D02*
X1198930Y294767D01*
X1196188Y298521D02*
X1194848Y299593D01*
X1194848Y294767D01*
X1196188Y294767D02*
X1193507Y294767D01*
X1190702Y297448D02*
X1189093Y297448D01*
X1189028Y297446D01*
X1188964Y297440D01*
X1188900Y297430D01*
X1188836Y297417D01*
X1188774Y297399D01*
X1188713Y297378D01*
X1188653Y297354D01*
X1188595Y297325D01*
X1188538Y297293D01*
X1188484Y297258D01*
X1188432Y297220D01*
X1188382Y297178D01*
X1188335Y297134D01*
X1188291Y297087D01*
X1188249Y297037D01*
X1188211Y296985D01*
X1188176Y296931D01*
X1188144Y296874D01*
X1188115Y296816D01*
X1188091Y296756D01*
X1188070Y296695D01*
X1188052Y296633D01*
X1188039Y296569D01*
X1188029Y296505D01*
X1188023Y296441D01*
X1188021Y296376D01*
X1188021Y296108D01*
X1188020Y296108D02*
X1188022Y296037D01*
X1188028Y295965D01*
X1188037Y295895D01*
X1188050Y295825D01*
X1188067Y295755D01*
X1188088Y295687D01*
X1188112Y295620D01*
X1188140Y295554D01*
X1188171Y295490D01*
X1188206Y295427D01*
X1188244Y295367D01*
X1188285Y295308D01*
X1188329Y295252D01*
X1188376Y295198D01*
X1188425Y295147D01*
X1188478Y295099D01*
X1188533Y295053D01*
X1188590Y295011D01*
X1188650Y294971D01*
X1188711Y294935D01*
X1188775Y294902D01*
X1188840Y294873D01*
X1188906Y294847D01*
X1188974Y294824D01*
X1189043Y294805D01*
X1189113Y294790D01*
X1189183Y294779D01*
X1189254Y294771D01*
X1189325Y294767D01*
X1189397Y294767D01*
X1189468Y294771D01*
X1189539Y294779D01*
X1189609Y294790D01*
X1189679Y294805D01*
X1189748Y294824D01*
X1189816Y294847D01*
X1189882Y294873D01*
X1189947Y294902D01*
X1190011Y294935D01*
X1190072Y294971D01*
X1190132Y295011D01*
X1190189Y295053D01*
X1190244Y295099D01*
X1190297Y295147D01*
X1190346Y295198D01*
X1190393Y295252D01*
X1190437Y295308D01*
X1190478Y295367D01*
X1190516Y295427D01*
X1190551Y295490D01*
X1190582Y295554D01*
X1190610Y295620D01*
X1190634Y295687D01*
X1190655Y295755D01*
X1190672Y295825D01*
X1190685Y295895D01*
X1190694Y295965D01*
X1190700Y296037D01*
X1190702Y296108D01*
X1190702Y297448D01*
X1190700Y297539D01*
X1190694Y297630D01*
X1190685Y297720D01*
X1190671Y297811D01*
X1190654Y297900D01*
X1190633Y297988D01*
X1190608Y298076D01*
X1190579Y298163D01*
X1190547Y298248D01*
X1190512Y298332D01*
X1190472Y298414D01*
X1190430Y298494D01*
X1190384Y298573D01*
X1190334Y298649D01*
X1190282Y298723D01*
X1190226Y298796D01*
X1190167Y298865D01*
X1190106Y298932D01*
X1190041Y298997D01*
X1189974Y299058D01*
X1189905Y299117D01*
X1189832Y299173D01*
X1189758Y299225D01*
X1189682Y299275D01*
X1189603Y299321D01*
X1189523Y299363D01*
X1189441Y299403D01*
X1189357Y299438D01*
X1189272Y299470D01*
X1189185Y299499D01*
X1189097Y299524D01*
X1189009Y299545D01*
X1188920Y299562D01*
X1188829Y299576D01*
X1188739Y299585D01*
X1188648Y299591D01*
X1188557Y299593D01*
M02*
