G04 EAGLE Gerber RS-274X export*
G75*
%MOMM*%
%FSLAX34Y34*%
%LPD*%
%INSilkscreen Top*%
%IPPOS*%
%AMOC8*
5,1,8,0,0,1.08239X$1,22.5*%
G01*
%ADD10C,0.203200*%
%ADD11C,0.127000*%
%ADD12C,0.200000*%
%ADD13C,0.101600*%
%ADD14C,0.152400*%
%ADD15C,0.100000*%
%ADD16C,0.100000*%
%ADD17C,0.200000*%


D10*
X114820Y456856D02*
X2820Y456856D01*
X2820Y521856D01*
X2820Y531856D01*
X114820Y531856D01*
X114820Y521856D01*
X114820Y456856D01*
X114820Y521856D02*
X2820Y521856D01*
D11*
X76622Y472821D02*
X75014Y467995D01*
X78231Y467995D02*
X76622Y472821D01*
X77829Y469202D02*
X75416Y469202D01*
X81812Y467995D02*
X82884Y467995D01*
X81812Y467995D02*
X81747Y467997D01*
X81683Y468003D01*
X81619Y468013D01*
X81555Y468026D01*
X81493Y468044D01*
X81432Y468065D01*
X81372Y468089D01*
X81314Y468118D01*
X81257Y468150D01*
X81203Y468185D01*
X81151Y468223D01*
X81101Y468265D01*
X81054Y468309D01*
X81010Y468356D01*
X80968Y468406D01*
X80930Y468458D01*
X80895Y468512D01*
X80863Y468569D01*
X80834Y468627D01*
X80810Y468687D01*
X80789Y468748D01*
X80771Y468810D01*
X80758Y468874D01*
X80748Y468938D01*
X80742Y469002D01*
X80740Y469067D01*
X80739Y469067D02*
X80739Y471749D01*
X80740Y471749D02*
X80742Y471814D01*
X80748Y471878D01*
X80758Y471942D01*
X80771Y472006D01*
X80789Y472068D01*
X80810Y472129D01*
X80834Y472189D01*
X80863Y472247D01*
X80895Y472304D01*
X80930Y472358D01*
X80968Y472410D01*
X81010Y472460D01*
X81054Y472507D01*
X81101Y472551D01*
X81151Y472593D01*
X81203Y472631D01*
X81257Y472666D01*
X81314Y472698D01*
X81372Y472727D01*
X81432Y472751D01*
X81493Y472772D01*
X81555Y472790D01*
X81619Y472803D01*
X81683Y472813D01*
X81747Y472819D01*
X81812Y472821D01*
X82884Y472821D01*
X85060Y467459D02*
X87204Y467459D01*
X89972Y467995D02*
X89972Y472821D01*
X89436Y467995D02*
X90509Y467995D01*
X90509Y472821D02*
X89436Y472821D01*
X93204Y472821D02*
X93204Y467995D01*
X95885Y467995D02*
X93204Y472821D01*
X95885Y472821D02*
X95885Y467995D01*
D10*
X403100Y91581D02*
X412080Y82601D01*
X357590Y51170D02*
X357605Y52397D01*
X357650Y53623D01*
X357725Y54848D01*
X357831Y56071D01*
X357966Y57291D01*
X358131Y58507D01*
X358326Y59718D01*
X358551Y60925D01*
X358805Y62125D01*
X359088Y63319D01*
X359401Y64506D01*
X359743Y65684D01*
X360114Y66854D01*
X360513Y68014D01*
X360940Y69165D01*
X361396Y70304D01*
X361880Y71432D01*
X362391Y72548D01*
X362929Y73651D01*
X363494Y74740D01*
X364086Y75815D01*
X364704Y76875D01*
X365347Y77920D01*
X366017Y78949D01*
X366711Y79960D01*
X367430Y80955D01*
X368173Y81932D01*
X368939Y82890D01*
X369730Y83829D01*
X370542Y84748D01*
X371378Y85647D01*
X372235Y86525D01*
X373113Y87382D01*
X374012Y88218D01*
X374931Y89030D01*
X375870Y89821D01*
X376828Y90587D01*
X377805Y91330D01*
X378800Y92049D01*
X379811Y92743D01*
X380840Y93413D01*
X381885Y94056D01*
X382945Y94674D01*
X384020Y95266D01*
X385109Y95831D01*
X386212Y96369D01*
X387328Y96880D01*
X388456Y97364D01*
X389595Y97820D01*
X390746Y98247D01*
X391906Y98646D01*
X393076Y99017D01*
X394254Y99359D01*
X395441Y99672D01*
X396635Y99955D01*
X397835Y100209D01*
X399042Y100434D01*
X400253Y100629D01*
X401469Y100794D01*
X402689Y100929D01*
X403912Y101035D01*
X405137Y101110D01*
X406363Y101155D01*
X407590Y101170D01*
X408817Y101155D01*
X410043Y101110D01*
X411268Y101035D01*
X412491Y100929D01*
X413711Y100794D01*
X414927Y100629D01*
X416138Y100434D01*
X417345Y100209D01*
X418545Y99955D01*
X419739Y99672D01*
X420926Y99359D01*
X422104Y99017D01*
X423274Y98646D01*
X424434Y98247D01*
X425585Y97820D01*
X426724Y97364D01*
X427852Y96880D01*
X428968Y96369D01*
X430071Y95831D01*
X431160Y95266D01*
X432235Y94674D01*
X433295Y94056D01*
X434340Y93413D01*
X435369Y92743D01*
X436380Y92049D01*
X437375Y91330D01*
X438352Y90587D01*
X439310Y89821D01*
X440249Y89030D01*
X441168Y88218D01*
X442067Y87382D01*
X442945Y86525D01*
X443802Y85647D01*
X444638Y84748D01*
X445450Y83829D01*
X446241Y82890D01*
X447007Y81932D01*
X447750Y80955D01*
X448469Y79960D01*
X449163Y78949D01*
X449833Y77920D01*
X450476Y76875D01*
X451094Y75815D01*
X451686Y74740D01*
X452251Y73651D01*
X452789Y72548D01*
X453300Y71432D01*
X453784Y70304D01*
X454240Y69165D01*
X454667Y68014D01*
X455066Y66854D01*
X455437Y65684D01*
X455779Y64506D01*
X456092Y63319D01*
X456375Y62125D01*
X456629Y60925D01*
X456854Y59718D01*
X457049Y58507D01*
X457214Y57291D01*
X457349Y56071D01*
X457455Y54848D01*
X457530Y53623D01*
X457575Y52397D01*
X457590Y51170D01*
X457575Y49943D01*
X457530Y48717D01*
X457455Y47492D01*
X457349Y46269D01*
X457214Y45049D01*
X457049Y43833D01*
X456854Y42622D01*
X456629Y41415D01*
X456375Y40215D01*
X456092Y39021D01*
X455779Y37834D01*
X455437Y36656D01*
X455066Y35486D01*
X454667Y34326D01*
X454240Y33175D01*
X453784Y32036D01*
X453300Y30908D01*
X452789Y29792D01*
X452251Y28689D01*
X451686Y27600D01*
X451094Y26525D01*
X450476Y25465D01*
X449833Y24420D01*
X449163Y23391D01*
X448469Y22380D01*
X447750Y21385D01*
X447007Y20408D01*
X446241Y19450D01*
X445450Y18511D01*
X444638Y17592D01*
X443802Y16693D01*
X442945Y15815D01*
X442067Y14958D01*
X441168Y14122D01*
X440249Y13310D01*
X439310Y12519D01*
X438352Y11753D01*
X437375Y11010D01*
X436380Y10291D01*
X435369Y9597D01*
X434340Y8927D01*
X433295Y8284D01*
X432235Y7666D01*
X431160Y7074D01*
X430071Y6509D01*
X428968Y5971D01*
X427852Y5460D01*
X426724Y4976D01*
X425585Y4520D01*
X424434Y4093D01*
X423274Y3694D01*
X422104Y3323D01*
X420926Y2981D01*
X419739Y2668D01*
X418545Y2385D01*
X417345Y2131D01*
X416138Y1906D01*
X414927Y1711D01*
X413711Y1546D01*
X412491Y1411D01*
X411268Y1305D01*
X410043Y1230D01*
X408817Y1185D01*
X407590Y1170D01*
X406363Y1185D01*
X405137Y1230D01*
X403912Y1305D01*
X402689Y1411D01*
X401469Y1546D01*
X400253Y1711D01*
X399042Y1906D01*
X397835Y2131D01*
X396635Y2385D01*
X395441Y2668D01*
X394254Y2981D01*
X393076Y3323D01*
X391906Y3694D01*
X390746Y4093D01*
X389595Y4520D01*
X388456Y4976D01*
X387328Y5460D01*
X386212Y5971D01*
X385109Y6509D01*
X384020Y7074D01*
X382945Y7666D01*
X381885Y8284D01*
X380840Y8927D01*
X379811Y9597D01*
X378800Y10291D01*
X377805Y11010D01*
X376828Y11753D01*
X375870Y12519D01*
X374931Y13310D01*
X374012Y14122D01*
X373113Y14958D01*
X372235Y15815D01*
X371378Y16693D01*
X370542Y17592D01*
X369730Y18511D01*
X368939Y19450D01*
X368173Y20408D01*
X367430Y21385D01*
X366711Y22380D01*
X366017Y23391D01*
X365347Y24420D01*
X364704Y25465D01*
X364086Y26525D01*
X363494Y27600D01*
X362929Y28689D01*
X362391Y29792D01*
X361880Y30908D01*
X361396Y32036D01*
X360940Y33175D01*
X360513Y34326D01*
X360114Y35486D01*
X359743Y36656D01*
X359401Y37834D01*
X359088Y39021D01*
X358805Y40215D01*
X358551Y41415D01*
X358326Y42622D01*
X358131Y43833D01*
X357966Y45049D01*
X357831Y46269D01*
X357725Y47492D01*
X357650Y48717D01*
X357605Y49943D01*
X357590Y51170D01*
X439636Y55045D02*
X446821Y47861D01*
X446821Y55045D02*
X439636Y47861D01*
D11*
X443800Y89496D02*
X443042Y90254D01*
X442998Y90301D01*
X442956Y90351D01*
X442918Y90403D01*
X442883Y90457D01*
X442851Y90514D01*
X442822Y90572D01*
X442798Y90632D01*
X442777Y90693D01*
X442759Y90755D01*
X442746Y90819D01*
X442736Y90883D01*
X442730Y90947D01*
X442728Y91012D01*
X442730Y91077D01*
X442736Y91141D01*
X442746Y91205D01*
X442759Y91269D01*
X442777Y91331D01*
X442798Y91392D01*
X442822Y91452D01*
X442851Y91510D01*
X442883Y91567D01*
X442918Y91621D01*
X442956Y91673D01*
X442998Y91723D01*
X443042Y91770D01*
X443042Y91771D02*
X444938Y93666D01*
X444937Y93667D02*
X444984Y93711D01*
X445034Y93753D01*
X445086Y93791D01*
X445141Y93826D01*
X445197Y93858D01*
X445256Y93886D01*
X445315Y93911D01*
X445377Y93932D01*
X445439Y93950D01*
X445503Y93963D01*
X445567Y93973D01*
X445631Y93979D01*
X445696Y93981D01*
X445761Y93979D01*
X445825Y93973D01*
X445889Y93963D01*
X445953Y93950D01*
X446015Y93932D01*
X446076Y93911D01*
X446136Y93886D01*
X446195Y93858D01*
X446251Y93826D01*
X446305Y93791D01*
X446358Y93753D01*
X446407Y93711D01*
X446455Y93667D01*
X446455Y93666D02*
X447213Y92908D01*
X448191Y90413D02*
X449897Y90224D01*
X446485Y86811D01*
X445537Y87759D02*
X447433Y85863D01*
D12*
X438410Y195646D02*
X484910Y195646D01*
X484910Y172146D01*
X438410Y172146D01*
X438410Y195646D01*
X438410Y183896D02*
X450160Y195646D01*
X438410Y183896D02*
X402540Y183896D01*
X484910Y183896D02*
X520780Y183896D01*
D13*
X382009Y169418D02*
X382009Y157734D01*
X382009Y169418D02*
X385255Y169418D01*
X385368Y169416D01*
X385481Y169410D01*
X385594Y169400D01*
X385707Y169386D01*
X385819Y169369D01*
X385930Y169347D01*
X386040Y169322D01*
X386150Y169292D01*
X386258Y169259D01*
X386365Y169222D01*
X386471Y169182D01*
X386575Y169137D01*
X386678Y169089D01*
X386779Y169038D01*
X386878Y168983D01*
X386975Y168925D01*
X387070Y168863D01*
X387163Y168798D01*
X387253Y168730D01*
X387341Y168659D01*
X387427Y168584D01*
X387510Y168507D01*
X387590Y168427D01*
X387667Y168344D01*
X387742Y168258D01*
X387813Y168170D01*
X387881Y168080D01*
X387946Y167987D01*
X388008Y167892D01*
X388066Y167795D01*
X388121Y167696D01*
X388172Y167595D01*
X388220Y167492D01*
X388265Y167388D01*
X388305Y167282D01*
X388342Y167175D01*
X388375Y167067D01*
X388405Y166957D01*
X388430Y166847D01*
X388452Y166736D01*
X388469Y166624D01*
X388483Y166511D01*
X388493Y166398D01*
X388499Y166285D01*
X388501Y166172D01*
X388500Y166172D02*
X388500Y160980D01*
X388501Y160980D02*
X388499Y160867D01*
X388493Y160754D01*
X388483Y160641D01*
X388469Y160528D01*
X388452Y160416D01*
X388430Y160305D01*
X388405Y160195D01*
X388375Y160085D01*
X388342Y159977D01*
X388305Y159870D01*
X388265Y159764D01*
X388220Y159660D01*
X388172Y159557D01*
X388121Y159456D01*
X388066Y159357D01*
X388008Y159260D01*
X387946Y159165D01*
X387881Y159072D01*
X387813Y158982D01*
X387742Y158894D01*
X387667Y158808D01*
X387590Y158725D01*
X387510Y158645D01*
X387427Y158568D01*
X387341Y158493D01*
X387253Y158422D01*
X387163Y158354D01*
X387070Y158289D01*
X386975Y158227D01*
X386878Y158169D01*
X386779Y158114D01*
X386678Y158063D01*
X386575Y158015D01*
X386471Y157970D01*
X386365Y157930D01*
X386258Y157893D01*
X386150Y157860D01*
X386040Y157830D01*
X385930Y157805D01*
X385819Y157783D01*
X385707Y157766D01*
X385594Y157752D01*
X385481Y157742D01*
X385368Y157736D01*
X385255Y157734D01*
X382009Y157734D01*
X393820Y166822D02*
X397065Y169418D01*
X397065Y157734D01*
X393820Y157734D02*
X400311Y157734D01*
D12*
X602210Y118806D02*
X648710Y118806D01*
X602210Y118806D02*
X602210Y142306D01*
X648710Y142306D01*
X648710Y118806D01*
X648710Y130556D02*
X636960Y118806D01*
X648710Y130556D02*
X684580Y130556D01*
X602210Y130556D02*
X566340Y130556D01*
D13*
X686809Y139954D02*
X686809Y151638D01*
X690055Y151638D01*
X690168Y151636D01*
X690281Y151630D01*
X690394Y151620D01*
X690507Y151606D01*
X690619Y151589D01*
X690730Y151567D01*
X690840Y151542D01*
X690950Y151512D01*
X691058Y151479D01*
X691165Y151442D01*
X691271Y151402D01*
X691375Y151357D01*
X691478Y151309D01*
X691579Y151258D01*
X691678Y151203D01*
X691775Y151145D01*
X691870Y151083D01*
X691963Y151018D01*
X692053Y150950D01*
X692141Y150879D01*
X692227Y150804D01*
X692310Y150727D01*
X692390Y150647D01*
X692467Y150564D01*
X692542Y150478D01*
X692613Y150390D01*
X692681Y150300D01*
X692746Y150207D01*
X692808Y150112D01*
X692866Y150015D01*
X692921Y149916D01*
X692972Y149815D01*
X693020Y149712D01*
X693065Y149608D01*
X693105Y149502D01*
X693142Y149395D01*
X693175Y149287D01*
X693205Y149177D01*
X693230Y149067D01*
X693252Y148956D01*
X693269Y148844D01*
X693283Y148731D01*
X693293Y148618D01*
X693299Y148505D01*
X693301Y148392D01*
X693300Y148392D02*
X693300Y143200D01*
X693301Y143200D02*
X693299Y143087D01*
X693293Y142974D01*
X693283Y142861D01*
X693269Y142748D01*
X693252Y142636D01*
X693230Y142525D01*
X693205Y142415D01*
X693175Y142305D01*
X693142Y142197D01*
X693105Y142090D01*
X693065Y141984D01*
X693020Y141880D01*
X692972Y141777D01*
X692921Y141676D01*
X692866Y141577D01*
X692808Y141480D01*
X692746Y141385D01*
X692681Y141292D01*
X692613Y141202D01*
X692542Y141114D01*
X692467Y141028D01*
X692390Y140945D01*
X692310Y140865D01*
X692227Y140788D01*
X692141Y140713D01*
X692053Y140642D01*
X691963Y140574D01*
X691870Y140509D01*
X691775Y140447D01*
X691678Y140389D01*
X691579Y140334D01*
X691478Y140283D01*
X691375Y140235D01*
X691271Y140190D01*
X691165Y140150D01*
X691058Y140113D01*
X690950Y140080D01*
X690840Y140050D01*
X690730Y140025D01*
X690619Y140003D01*
X690507Y139986D01*
X690394Y139972D01*
X690281Y139962D01*
X690168Y139956D01*
X690055Y139954D01*
X686809Y139954D01*
X702190Y151638D02*
X702297Y151636D01*
X702403Y151630D01*
X702509Y151620D01*
X702615Y151607D01*
X702721Y151589D01*
X702825Y151568D01*
X702929Y151543D01*
X703032Y151514D01*
X703133Y151482D01*
X703233Y151445D01*
X703332Y151405D01*
X703430Y151362D01*
X703526Y151315D01*
X703620Y151264D01*
X703712Y151210D01*
X703802Y151153D01*
X703890Y151093D01*
X703975Y151029D01*
X704058Y150962D01*
X704139Y150892D01*
X704217Y150820D01*
X704293Y150744D01*
X704365Y150666D01*
X704435Y150585D01*
X704502Y150502D01*
X704566Y150417D01*
X704626Y150329D01*
X704683Y150239D01*
X704737Y150147D01*
X704788Y150053D01*
X704835Y149957D01*
X704878Y149859D01*
X704918Y149760D01*
X704955Y149660D01*
X704987Y149559D01*
X705016Y149456D01*
X705041Y149352D01*
X705062Y149248D01*
X705080Y149142D01*
X705093Y149036D01*
X705103Y148930D01*
X705109Y148824D01*
X705111Y148717D01*
X702190Y151638D02*
X702069Y151636D01*
X701948Y151630D01*
X701828Y151620D01*
X701707Y151607D01*
X701588Y151589D01*
X701468Y151568D01*
X701350Y151543D01*
X701233Y151514D01*
X701116Y151481D01*
X701001Y151445D01*
X700887Y151404D01*
X700774Y151361D01*
X700662Y151313D01*
X700553Y151262D01*
X700445Y151207D01*
X700338Y151149D01*
X700234Y151088D01*
X700132Y151023D01*
X700032Y150955D01*
X699934Y150884D01*
X699838Y150810D01*
X699745Y150733D01*
X699655Y150652D01*
X699567Y150569D01*
X699482Y150483D01*
X699399Y150394D01*
X699320Y150303D01*
X699243Y150209D01*
X699170Y150113D01*
X699100Y150015D01*
X699033Y149914D01*
X698969Y149811D01*
X698909Y149706D01*
X698852Y149599D01*
X698798Y149491D01*
X698748Y149381D01*
X698702Y149269D01*
X698659Y149156D01*
X698620Y149041D01*
X704138Y146445D02*
X704217Y146522D01*
X704293Y146603D01*
X704366Y146686D01*
X704436Y146771D01*
X704503Y146859D01*
X704567Y146949D01*
X704627Y147041D01*
X704684Y147136D01*
X704738Y147232D01*
X704789Y147330D01*
X704836Y147430D01*
X704880Y147532D01*
X704920Y147635D01*
X704956Y147739D01*
X704988Y147845D01*
X705017Y147951D01*
X705042Y148059D01*
X705064Y148167D01*
X705081Y148277D01*
X705095Y148386D01*
X705104Y148496D01*
X705110Y148607D01*
X705112Y148717D01*
X704137Y146445D02*
X698620Y139954D01*
X705111Y139954D01*
D12*
X780010Y118806D02*
X826510Y118806D01*
X780010Y118806D02*
X780010Y142306D01*
X826510Y142306D01*
X826510Y118806D01*
X826510Y130556D02*
X814760Y118806D01*
X826510Y130556D02*
X862380Y130556D01*
X780010Y130556D02*
X744140Y130556D01*
D13*
X864609Y139954D02*
X864609Y151638D01*
X867855Y151638D01*
X867968Y151636D01*
X868081Y151630D01*
X868194Y151620D01*
X868307Y151606D01*
X868419Y151589D01*
X868530Y151567D01*
X868640Y151542D01*
X868750Y151512D01*
X868858Y151479D01*
X868965Y151442D01*
X869071Y151402D01*
X869175Y151357D01*
X869278Y151309D01*
X869379Y151258D01*
X869478Y151203D01*
X869575Y151145D01*
X869670Y151083D01*
X869763Y151018D01*
X869853Y150950D01*
X869941Y150879D01*
X870027Y150804D01*
X870110Y150727D01*
X870190Y150647D01*
X870267Y150564D01*
X870342Y150478D01*
X870413Y150390D01*
X870481Y150300D01*
X870546Y150207D01*
X870608Y150112D01*
X870666Y150015D01*
X870721Y149916D01*
X870772Y149815D01*
X870820Y149712D01*
X870865Y149608D01*
X870905Y149502D01*
X870942Y149395D01*
X870975Y149287D01*
X871005Y149177D01*
X871030Y149067D01*
X871052Y148956D01*
X871069Y148844D01*
X871083Y148731D01*
X871093Y148618D01*
X871099Y148505D01*
X871101Y148392D01*
X871100Y148392D02*
X871100Y143200D01*
X871101Y143200D02*
X871099Y143087D01*
X871093Y142974D01*
X871083Y142861D01*
X871069Y142748D01*
X871052Y142636D01*
X871030Y142525D01*
X871005Y142415D01*
X870975Y142305D01*
X870942Y142197D01*
X870905Y142090D01*
X870865Y141984D01*
X870820Y141880D01*
X870772Y141777D01*
X870721Y141676D01*
X870666Y141577D01*
X870608Y141480D01*
X870546Y141385D01*
X870481Y141292D01*
X870413Y141202D01*
X870342Y141114D01*
X870267Y141028D01*
X870190Y140945D01*
X870110Y140865D01*
X870027Y140788D01*
X869941Y140713D01*
X869853Y140642D01*
X869763Y140574D01*
X869670Y140509D01*
X869575Y140447D01*
X869478Y140389D01*
X869379Y140334D01*
X869278Y140283D01*
X869175Y140235D01*
X869071Y140190D01*
X868965Y140150D01*
X868858Y140113D01*
X868750Y140080D01*
X868640Y140050D01*
X868530Y140025D01*
X868419Y140003D01*
X868307Y139986D01*
X868194Y139972D01*
X868081Y139962D01*
X867968Y139956D01*
X867855Y139954D01*
X864609Y139954D01*
X876420Y139954D02*
X879665Y139954D01*
X879778Y139956D01*
X879891Y139962D01*
X880004Y139972D01*
X880117Y139986D01*
X880229Y140003D01*
X880340Y140025D01*
X880450Y140050D01*
X880560Y140080D01*
X880668Y140113D01*
X880775Y140150D01*
X880881Y140190D01*
X880985Y140235D01*
X881088Y140283D01*
X881189Y140334D01*
X881288Y140389D01*
X881385Y140447D01*
X881480Y140509D01*
X881573Y140574D01*
X881663Y140642D01*
X881751Y140713D01*
X881837Y140788D01*
X881920Y140865D01*
X882000Y140945D01*
X882077Y141028D01*
X882152Y141114D01*
X882223Y141202D01*
X882291Y141292D01*
X882356Y141385D01*
X882418Y141480D01*
X882476Y141577D01*
X882531Y141676D01*
X882582Y141777D01*
X882630Y141880D01*
X882675Y141984D01*
X882715Y142090D01*
X882752Y142197D01*
X882785Y142305D01*
X882815Y142415D01*
X882840Y142525D01*
X882862Y142636D01*
X882879Y142748D01*
X882893Y142861D01*
X882903Y142974D01*
X882909Y143087D01*
X882911Y143200D01*
X882909Y143313D01*
X882903Y143426D01*
X882893Y143539D01*
X882879Y143652D01*
X882862Y143764D01*
X882840Y143875D01*
X882815Y143985D01*
X882785Y144095D01*
X882752Y144203D01*
X882715Y144310D01*
X882675Y144416D01*
X882630Y144520D01*
X882582Y144623D01*
X882531Y144724D01*
X882476Y144823D01*
X882418Y144920D01*
X882356Y145015D01*
X882291Y145108D01*
X882223Y145198D01*
X882152Y145286D01*
X882077Y145372D01*
X882000Y145455D01*
X881920Y145535D01*
X881837Y145612D01*
X881751Y145687D01*
X881663Y145758D01*
X881573Y145826D01*
X881480Y145891D01*
X881385Y145953D01*
X881288Y146011D01*
X881189Y146066D01*
X881088Y146117D01*
X880985Y146165D01*
X880881Y146210D01*
X880775Y146250D01*
X880668Y146287D01*
X880560Y146320D01*
X880450Y146350D01*
X880340Y146375D01*
X880229Y146397D01*
X880117Y146414D01*
X880004Y146428D01*
X879891Y146438D01*
X879778Y146444D01*
X879665Y146446D01*
X880315Y151638D02*
X876420Y151638D01*
X880315Y151638D02*
X880416Y151636D01*
X880516Y151630D01*
X880616Y151620D01*
X880716Y151607D01*
X880815Y151589D01*
X880914Y151568D01*
X881011Y151543D01*
X881108Y151514D01*
X881203Y151481D01*
X881297Y151445D01*
X881389Y151405D01*
X881480Y151362D01*
X881569Y151315D01*
X881656Y151265D01*
X881742Y151211D01*
X881825Y151154D01*
X881905Y151094D01*
X881984Y151031D01*
X882060Y150964D01*
X882133Y150895D01*
X882203Y150823D01*
X882271Y150749D01*
X882336Y150672D01*
X882397Y150592D01*
X882456Y150510D01*
X882511Y150426D01*
X882563Y150340D01*
X882612Y150252D01*
X882657Y150162D01*
X882699Y150070D01*
X882737Y149977D01*
X882771Y149882D01*
X882802Y149787D01*
X882829Y149690D01*
X882852Y149592D01*
X882872Y149493D01*
X882887Y149393D01*
X882899Y149293D01*
X882907Y149193D01*
X882911Y149092D01*
X882911Y148992D01*
X882907Y148891D01*
X882899Y148791D01*
X882887Y148691D01*
X882872Y148591D01*
X882852Y148492D01*
X882829Y148394D01*
X882802Y148297D01*
X882771Y148202D01*
X882737Y148107D01*
X882699Y148014D01*
X882657Y147922D01*
X882612Y147832D01*
X882563Y147744D01*
X882511Y147658D01*
X882456Y147574D01*
X882397Y147492D01*
X882336Y147412D01*
X882271Y147335D01*
X882203Y147261D01*
X882133Y147189D01*
X882060Y147120D01*
X881984Y147053D01*
X881905Y146990D01*
X881825Y146930D01*
X881742Y146873D01*
X881656Y146819D01*
X881569Y146769D01*
X881480Y146722D01*
X881389Y146679D01*
X881297Y146639D01*
X881203Y146603D01*
X881108Y146570D01*
X881011Y146541D01*
X880914Y146516D01*
X880815Y146495D01*
X880716Y146477D01*
X880616Y146464D01*
X880516Y146454D01*
X880416Y146448D01*
X880315Y146446D01*
X880315Y146445D02*
X877718Y146445D01*
D12*
X942570Y144206D02*
X989070Y144206D01*
X942570Y144206D02*
X942570Y167706D01*
X989070Y167706D01*
X989070Y144206D01*
X989070Y155956D02*
X977320Y144206D01*
X989070Y155956D02*
X1024940Y155956D01*
X942570Y155956D02*
X906700Y155956D01*
D13*
X1027169Y165354D02*
X1027169Y177038D01*
X1030415Y177038D01*
X1030528Y177036D01*
X1030641Y177030D01*
X1030754Y177020D01*
X1030867Y177006D01*
X1030979Y176989D01*
X1031090Y176967D01*
X1031200Y176942D01*
X1031310Y176912D01*
X1031418Y176879D01*
X1031525Y176842D01*
X1031631Y176802D01*
X1031735Y176757D01*
X1031838Y176709D01*
X1031939Y176658D01*
X1032038Y176603D01*
X1032135Y176545D01*
X1032230Y176483D01*
X1032323Y176418D01*
X1032413Y176350D01*
X1032501Y176279D01*
X1032587Y176204D01*
X1032670Y176127D01*
X1032750Y176047D01*
X1032827Y175964D01*
X1032902Y175878D01*
X1032973Y175790D01*
X1033041Y175700D01*
X1033106Y175607D01*
X1033168Y175512D01*
X1033226Y175415D01*
X1033281Y175316D01*
X1033332Y175215D01*
X1033380Y175112D01*
X1033425Y175008D01*
X1033465Y174902D01*
X1033502Y174795D01*
X1033535Y174687D01*
X1033565Y174577D01*
X1033590Y174467D01*
X1033612Y174356D01*
X1033629Y174244D01*
X1033643Y174131D01*
X1033653Y174018D01*
X1033659Y173905D01*
X1033661Y173792D01*
X1033660Y173792D02*
X1033660Y168600D01*
X1033661Y168600D02*
X1033659Y168487D01*
X1033653Y168374D01*
X1033643Y168261D01*
X1033629Y168148D01*
X1033612Y168036D01*
X1033590Y167925D01*
X1033565Y167815D01*
X1033535Y167705D01*
X1033502Y167597D01*
X1033465Y167490D01*
X1033425Y167384D01*
X1033380Y167280D01*
X1033332Y167177D01*
X1033281Y167076D01*
X1033226Y166977D01*
X1033168Y166880D01*
X1033106Y166785D01*
X1033041Y166692D01*
X1032973Y166602D01*
X1032902Y166514D01*
X1032827Y166428D01*
X1032750Y166345D01*
X1032670Y166265D01*
X1032587Y166188D01*
X1032501Y166113D01*
X1032413Y166042D01*
X1032323Y165974D01*
X1032230Y165909D01*
X1032135Y165847D01*
X1032038Y165789D01*
X1031939Y165734D01*
X1031838Y165683D01*
X1031735Y165635D01*
X1031631Y165590D01*
X1031525Y165550D01*
X1031418Y165513D01*
X1031310Y165480D01*
X1031200Y165450D01*
X1031090Y165425D01*
X1030979Y165403D01*
X1030867Y165386D01*
X1030754Y165372D01*
X1030641Y165362D01*
X1030528Y165356D01*
X1030415Y165354D01*
X1027169Y165354D01*
X1038980Y167950D02*
X1041576Y177038D01*
X1038980Y167950D02*
X1045471Y167950D01*
X1043524Y170547D02*
X1043524Y165354D01*
D10*
X192024Y27686D02*
X185674Y34036D01*
X192024Y27686D02*
X192024Y14986D01*
X185674Y8636D01*
X172974Y8636D02*
X166624Y14986D01*
X166624Y27686D01*
X172974Y34036D01*
X192024Y65786D02*
X192024Y78486D01*
X192024Y65786D02*
X185674Y59436D01*
X172974Y59436D02*
X166624Y65786D01*
X185674Y59436D02*
X192024Y53086D01*
X192024Y40386D01*
X185674Y34036D01*
X172974Y34036D02*
X166624Y40386D01*
X166624Y53086D01*
X172974Y59436D01*
X172974Y84836D02*
X185674Y84836D01*
X192024Y78486D01*
X172974Y84836D02*
X166624Y78486D01*
X166624Y65786D01*
X172974Y8636D02*
X185674Y8636D01*
D11*
X193929Y46407D02*
X198755Y46407D01*
X193929Y46407D02*
X193929Y47748D01*
X193931Y47818D01*
X193936Y47888D01*
X193946Y47958D01*
X193958Y48027D01*
X193975Y48095D01*
X193995Y48162D01*
X194018Y48229D01*
X194045Y48293D01*
X194075Y48357D01*
X194109Y48419D01*
X194145Y48478D01*
X194185Y48536D01*
X194228Y48592D01*
X194273Y48645D01*
X194322Y48696D01*
X194373Y48745D01*
X194426Y48790D01*
X194482Y48833D01*
X194540Y48873D01*
X194600Y48909D01*
X194661Y48943D01*
X194725Y48973D01*
X194789Y49000D01*
X194856Y49023D01*
X194923Y49043D01*
X194991Y49060D01*
X195060Y49072D01*
X195130Y49082D01*
X195200Y49087D01*
X195270Y49089D01*
X195270Y49088D02*
X197414Y49088D01*
X197414Y49089D02*
X197484Y49087D01*
X197554Y49082D01*
X197624Y49072D01*
X197693Y49060D01*
X197761Y49043D01*
X197828Y49023D01*
X197895Y49000D01*
X197959Y48973D01*
X198023Y48943D01*
X198085Y48909D01*
X198144Y48873D01*
X198202Y48833D01*
X198258Y48790D01*
X198311Y48745D01*
X198362Y48696D01*
X198411Y48645D01*
X198456Y48592D01*
X198499Y48536D01*
X198539Y48478D01*
X198575Y48418D01*
X198609Y48357D01*
X198639Y48293D01*
X198666Y48229D01*
X198689Y48162D01*
X198709Y48095D01*
X198726Y48027D01*
X198738Y47958D01*
X198748Y47888D01*
X198753Y47818D01*
X198755Y47748D01*
X198755Y46407D01*
X198755Y53120D02*
X198755Y54193D01*
X198755Y53120D02*
X198753Y53055D01*
X198747Y52991D01*
X198737Y52927D01*
X198724Y52863D01*
X198706Y52801D01*
X198685Y52740D01*
X198661Y52680D01*
X198632Y52622D01*
X198600Y52565D01*
X198565Y52511D01*
X198527Y52459D01*
X198485Y52409D01*
X198441Y52362D01*
X198394Y52318D01*
X198344Y52276D01*
X198292Y52238D01*
X198238Y52203D01*
X198181Y52171D01*
X198123Y52142D01*
X198063Y52118D01*
X198002Y52097D01*
X197940Y52079D01*
X197876Y52066D01*
X197812Y52056D01*
X197748Y52050D01*
X197683Y52048D01*
X195001Y52048D01*
X195001Y52047D02*
X194936Y52049D01*
X194872Y52055D01*
X194808Y52065D01*
X194744Y52078D01*
X194682Y52096D01*
X194621Y52117D01*
X194561Y52142D01*
X194502Y52170D01*
X194446Y52202D01*
X194391Y52237D01*
X194339Y52275D01*
X194289Y52317D01*
X194242Y52361D01*
X194198Y52408D01*
X194156Y52458D01*
X194118Y52510D01*
X194083Y52565D01*
X194051Y52621D01*
X194023Y52680D01*
X193998Y52739D01*
X193977Y52801D01*
X193959Y52863D01*
X193946Y52927D01*
X193936Y52991D01*
X193930Y53055D01*
X193928Y53120D01*
X193929Y53120D02*
X193929Y54193D01*
X199291Y56368D02*
X199291Y58513D01*
X197414Y61038D02*
X195270Y61038D01*
X195270Y61037D02*
X195199Y61039D01*
X195127Y61045D01*
X195057Y61054D01*
X194987Y61067D01*
X194917Y61084D01*
X194849Y61105D01*
X194782Y61129D01*
X194716Y61157D01*
X194652Y61188D01*
X194589Y61223D01*
X194529Y61261D01*
X194470Y61302D01*
X194414Y61346D01*
X194360Y61393D01*
X194309Y61442D01*
X194261Y61495D01*
X194215Y61550D01*
X194173Y61607D01*
X194133Y61667D01*
X194097Y61728D01*
X194064Y61792D01*
X194035Y61857D01*
X194009Y61923D01*
X193986Y61991D01*
X193967Y62060D01*
X193952Y62130D01*
X193941Y62200D01*
X193933Y62271D01*
X193929Y62342D01*
X193929Y62414D01*
X193933Y62485D01*
X193941Y62556D01*
X193952Y62626D01*
X193967Y62696D01*
X193986Y62765D01*
X194009Y62833D01*
X194035Y62899D01*
X194064Y62964D01*
X194097Y63028D01*
X194133Y63089D01*
X194173Y63149D01*
X194215Y63206D01*
X194261Y63261D01*
X194309Y63314D01*
X194360Y63363D01*
X194414Y63410D01*
X194470Y63454D01*
X194529Y63495D01*
X194589Y63533D01*
X194652Y63568D01*
X194716Y63599D01*
X194782Y63627D01*
X194849Y63651D01*
X194917Y63672D01*
X194987Y63689D01*
X195057Y63702D01*
X195127Y63711D01*
X195199Y63717D01*
X195270Y63719D01*
X197414Y63719D01*
X197485Y63717D01*
X197557Y63711D01*
X197627Y63702D01*
X197697Y63689D01*
X197767Y63672D01*
X197835Y63651D01*
X197902Y63627D01*
X197968Y63599D01*
X198032Y63568D01*
X198095Y63533D01*
X198155Y63495D01*
X198214Y63454D01*
X198270Y63410D01*
X198324Y63363D01*
X198375Y63314D01*
X198423Y63261D01*
X198469Y63206D01*
X198511Y63149D01*
X198551Y63089D01*
X198587Y63028D01*
X198620Y62964D01*
X198649Y62899D01*
X198675Y62833D01*
X198698Y62765D01*
X198717Y62696D01*
X198732Y62626D01*
X198743Y62556D01*
X198751Y62485D01*
X198755Y62414D01*
X198755Y62342D01*
X198751Y62271D01*
X198743Y62200D01*
X198732Y62130D01*
X198717Y62060D01*
X198698Y61991D01*
X198675Y61923D01*
X198649Y61857D01*
X198620Y61792D01*
X198587Y61728D01*
X198551Y61667D01*
X198511Y61607D01*
X198469Y61550D01*
X198423Y61495D01*
X198375Y61442D01*
X198324Y61393D01*
X198270Y61346D01*
X198214Y61302D01*
X198155Y61261D01*
X198095Y61223D01*
X198032Y61188D01*
X197968Y61157D01*
X197902Y61129D01*
X197835Y61105D01*
X197767Y61084D01*
X197697Y61067D01*
X197627Y61054D01*
X197557Y61045D01*
X197485Y61039D01*
X197414Y61037D01*
X197414Y66707D02*
X193929Y66707D01*
X197414Y66706D02*
X197485Y66708D01*
X197557Y66714D01*
X197627Y66723D01*
X197697Y66736D01*
X197767Y66753D01*
X197835Y66774D01*
X197902Y66798D01*
X197968Y66826D01*
X198032Y66857D01*
X198095Y66892D01*
X198155Y66930D01*
X198214Y66971D01*
X198270Y67015D01*
X198324Y67062D01*
X198375Y67111D01*
X198423Y67164D01*
X198469Y67219D01*
X198511Y67276D01*
X198551Y67336D01*
X198587Y67397D01*
X198620Y67461D01*
X198649Y67526D01*
X198675Y67592D01*
X198698Y67660D01*
X198717Y67729D01*
X198732Y67799D01*
X198743Y67869D01*
X198751Y67940D01*
X198755Y68011D01*
X198755Y68083D01*
X198751Y68154D01*
X198743Y68225D01*
X198732Y68295D01*
X198717Y68365D01*
X198698Y68434D01*
X198675Y68502D01*
X198649Y68568D01*
X198620Y68633D01*
X198587Y68697D01*
X198551Y68758D01*
X198511Y68818D01*
X198469Y68875D01*
X198423Y68930D01*
X198375Y68983D01*
X198324Y69032D01*
X198270Y69079D01*
X198214Y69123D01*
X198155Y69164D01*
X198095Y69202D01*
X198032Y69237D01*
X197968Y69268D01*
X197902Y69296D01*
X197835Y69320D01*
X197767Y69341D01*
X197697Y69358D01*
X197627Y69371D01*
X197557Y69380D01*
X197485Y69386D01*
X197414Y69388D01*
X193929Y69388D01*
X193929Y73351D02*
X198755Y73351D01*
X193929Y72010D02*
X193929Y74691D01*
X199291Y76850D02*
X199291Y78995D01*
X195001Y81520D02*
X193929Y82860D01*
X198755Y82860D01*
X198755Y81520D02*
X198755Y84201D01*
D10*
X240538Y34036D02*
X246888Y27686D01*
X246888Y14986D01*
X240538Y8636D01*
X227838Y8636D02*
X221488Y14986D01*
X221488Y27686D01*
X227838Y34036D01*
X246888Y65786D02*
X246888Y78486D01*
X246888Y65786D02*
X240538Y59436D01*
X227838Y59436D02*
X221488Y65786D01*
X240538Y59436D02*
X246888Y53086D01*
X246888Y40386D01*
X240538Y34036D01*
X227838Y34036D02*
X221488Y40386D01*
X221488Y53086D01*
X227838Y59436D01*
X227838Y84836D02*
X240538Y84836D01*
X246888Y78486D01*
X227838Y84836D02*
X221488Y78486D01*
X221488Y65786D01*
X227838Y8636D02*
X240538Y8636D01*
D11*
X248793Y46407D02*
X253619Y46407D01*
X248793Y46407D02*
X248793Y47748D01*
X248795Y47818D01*
X248800Y47888D01*
X248810Y47958D01*
X248822Y48027D01*
X248839Y48095D01*
X248859Y48162D01*
X248882Y48229D01*
X248909Y48293D01*
X248939Y48357D01*
X248973Y48419D01*
X249009Y48478D01*
X249049Y48536D01*
X249092Y48592D01*
X249137Y48645D01*
X249186Y48696D01*
X249237Y48745D01*
X249290Y48790D01*
X249346Y48833D01*
X249404Y48873D01*
X249464Y48909D01*
X249525Y48943D01*
X249589Y48973D01*
X249653Y49000D01*
X249720Y49023D01*
X249787Y49043D01*
X249855Y49060D01*
X249924Y49072D01*
X249994Y49082D01*
X250064Y49087D01*
X250134Y49089D01*
X250134Y49088D02*
X252278Y49088D01*
X252278Y49089D02*
X252348Y49087D01*
X252418Y49082D01*
X252488Y49072D01*
X252557Y49060D01*
X252625Y49043D01*
X252692Y49023D01*
X252759Y49000D01*
X252823Y48973D01*
X252887Y48943D01*
X252949Y48909D01*
X253008Y48873D01*
X253066Y48833D01*
X253122Y48790D01*
X253175Y48745D01*
X253226Y48696D01*
X253275Y48645D01*
X253320Y48592D01*
X253363Y48536D01*
X253403Y48478D01*
X253439Y48418D01*
X253473Y48357D01*
X253503Y48293D01*
X253530Y48229D01*
X253553Y48162D01*
X253573Y48095D01*
X253590Y48027D01*
X253602Y47958D01*
X253612Y47888D01*
X253617Y47818D01*
X253619Y47748D01*
X253619Y46407D01*
X253619Y53120D02*
X253619Y54193D01*
X253619Y53120D02*
X253617Y53055D01*
X253611Y52991D01*
X253601Y52927D01*
X253588Y52863D01*
X253570Y52801D01*
X253549Y52740D01*
X253525Y52680D01*
X253496Y52622D01*
X253464Y52565D01*
X253429Y52511D01*
X253391Y52459D01*
X253349Y52409D01*
X253305Y52362D01*
X253258Y52318D01*
X253208Y52276D01*
X253156Y52238D01*
X253102Y52203D01*
X253045Y52171D01*
X252987Y52142D01*
X252927Y52118D01*
X252866Y52097D01*
X252804Y52079D01*
X252740Y52066D01*
X252676Y52056D01*
X252612Y52050D01*
X252547Y52048D01*
X249865Y52048D01*
X249865Y52047D02*
X249800Y52049D01*
X249736Y52055D01*
X249672Y52065D01*
X249608Y52078D01*
X249546Y52096D01*
X249485Y52117D01*
X249425Y52142D01*
X249366Y52170D01*
X249310Y52202D01*
X249255Y52237D01*
X249203Y52275D01*
X249153Y52317D01*
X249106Y52361D01*
X249062Y52408D01*
X249020Y52458D01*
X248982Y52510D01*
X248947Y52565D01*
X248915Y52621D01*
X248887Y52680D01*
X248862Y52739D01*
X248841Y52801D01*
X248823Y52863D01*
X248810Y52927D01*
X248800Y52991D01*
X248794Y53055D01*
X248792Y53120D01*
X248793Y53120D02*
X248793Y54193D01*
X254155Y56368D02*
X254155Y58513D01*
X252278Y61038D02*
X250134Y61038D01*
X250134Y61037D02*
X250063Y61039D01*
X249991Y61045D01*
X249921Y61054D01*
X249851Y61067D01*
X249781Y61084D01*
X249713Y61105D01*
X249646Y61129D01*
X249580Y61157D01*
X249516Y61188D01*
X249453Y61223D01*
X249393Y61261D01*
X249334Y61302D01*
X249278Y61346D01*
X249224Y61393D01*
X249173Y61442D01*
X249125Y61495D01*
X249079Y61550D01*
X249037Y61607D01*
X248997Y61667D01*
X248961Y61728D01*
X248928Y61792D01*
X248899Y61857D01*
X248873Y61923D01*
X248850Y61991D01*
X248831Y62060D01*
X248816Y62130D01*
X248805Y62200D01*
X248797Y62271D01*
X248793Y62342D01*
X248793Y62414D01*
X248797Y62485D01*
X248805Y62556D01*
X248816Y62626D01*
X248831Y62696D01*
X248850Y62765D01*
X248873Y62833D01*
X248899Y62899D01*
X248928Y62964D01*
X248961Y63028D01*
X248997Y63089D01*
X249037Y63149D01*
X249079Y63206D01*
X249125Y63261D01*
X249173Y63314D01*
X249224Y63363D01*
X249278Y63410D01*
X249334Y63454D01*
X249393Y63495D01*
X249453Y63533D01*
X249516Y63568D01*
X249580Y63599D01*
X249646Y63627D01*
X249713Y63651D01*
X249781Y63672D01*
X249851Y63689D01*
X249921Y63702D01*
X249991Y63711D01*
X250063Y63717D01*
X250134Y63719D01*
X252278Y63719D01*
X252349Y63717D01*
X252421Y63711D01*
X252491Y63702D01*
X252561Y63689D01*
X252631Y63672D01*
X252699Y63651D01*
X252766Y63627D01*
X252832Y63599D01*
X252896Y63568D01*
X252959Y63533D01*
X253019Y63495D01*
X253078Y63454D01*
X253134Y63410D01*
X253188Y63363D01*
X253239Y63314D01*
X253287Y63261D01*
X253333Y63206D01*
X253375Y63149D01*
X253415Y63089D01*
X253451Y63028D01*
X253484Y62964D01*
X253513Y62899D01*
X253539Y62833D01*
X253562Y62765D01*
X253581Y62696D01*
X253596Y62626D01*
X253607Y62556D01*
X253615Y62485D01*
X253619Y62414D01*
X253619Y62342D01*
X253615Y62271D01*
X253607Y62200D01*
X253596Y62130D01*
X253581Y62060D01*
X253562Y61991D01*
X253539Y61923D01*
X253513Y61857D01*
X253484Y61792D01*
X253451Y61728D01*
X253415Y61667D01*
X253375Y61607D01*
X253333Y61550D01*
X253287Y61495D01*
X253239Y61442D01*
X253188Y61393D01*
X253134Y61346D01*
X253078Y61302D01*
X253019Y61261D01*
X252959Y61223D01*
X252896Y61188D01*
X252832Y61157D01*
X252766Y61129D01*
X252699Y61105D01*
X252631Y61084D01*
X252561Y61067D01*
X252491Y61054D01*
X252421Y61045D01*
X252349Y61039D01*
X252278Y61037D01*
X252278Y66707D02*
X248793Y66707D01*
X252278Y66706D02*
X252349Y66708D01*
X252421Y66714D01*
X252491Y66723D01*
X252561Y66736D01*
X252631Y66753D01*
X252699Y66774D01*
X252766Y66798D01*
X252832Y66826D01*
X252896Y66857D01*
X252959Y66892D01*
X253019Y66930D01*
X253078Y66971D01*
X253134Y67015D01*
X253188Y67062D01*
X253239Y67111D01*
X253287Y67164D01*
X253333Y67219D01*
X253375Y67276D01*
X253415Y67336D01*
X253451Y67397D01*
X253484Y67461D01*
X253513Y67526D01*
X253539Y67592D01*
X253562Y67660D01*
X253581Y67729D01*
X253596Y67799D01*
X253607Y67869D01*
X253615Y67940D01*
X253619Y68011D01*
X253619Y68083D01*
X253615Y68154D01*
X253607Y68225D01*
X253596Y68295D01*
X253581Y68365D01*
X253562Y68434D01*
X253539Y68502D01*
X253513Y68568D01*
X253484Y68633D01*
X253451Y68697D01*
X253415Y68758D01*
X253375Y68818D01*
X253333Y68875D01*
X253287Y68930D01*
X253239Y68983D01*
X253188Y69032D01*
X253134Y69079D01*
X253078Y69123D01*
X253019Y69164D01*
X252959Y69202D01*
X252896Y69237D01*
X252832Y69268D01*
X252766Y69296D01*
X252699Y69320D01*
X252631Y69341D01*
X252561Y69358D01*
X252491Y69371D01*
X252421Y69380D01*
X252349Y69386D01*
X252278Y69388D01*
X248793Y69388D01*
X248793Y73351D02*
X253619Y73351D01*
X248793Y72010D02*
X248793Y74691D01*
X254155Y76850D02*
X254155Y78995D01*
X250000Y84201D02*
X249932Y84199D01*
X249865Y84193D01*
X249798Y84184D01*
X249731Y84171D01*
X249666Y84154D01*
X249601Y84133D01*
X249538Y84109D01*
X249476Y84081D01*
X249416Y84050D01*
X249358Y84016D01*
X249302Y83978D01*
X249247Y83938D01*
X249196Y83894D01*
X249147Y83847D01*
X249100Y83798D01*
X249056Y83747D01*
X249016Y83692D01*
X248978Y83636D01*
X248944Y83578D01*
X248913Y83518D01*
X248885Y83456D01*
X248861Y83393D01*
X248840Y83328D01*
X248823Y83263D01*
X248810Y83196D01*
X248801Y83129D01*
X248795Y83062D01*
X248793Y82994D01*
X248795Y82916D01*
X248801Y82838D01*
X248811Y82761D01*
X248824Y82684D01*
X248842Y82608D01*
X248863Y82533D01*
X248888Y82459D01*
X248917Y82387D01*
X248949Y82316D01*
X248985Y82247D01*
X249024Y82179D01*
X249067Y82114D01*
X249113Y82051D01*
X249162Y81990D01*
X249214Y81932D01*
X249269Y81877D01*
X249326Y81824D01*
X249386Y81775D01*
X249449Y81728D01*
X249514Y81685D01*
X249580Y81645D01*
X249649Y81608D01*
X249720Y81575D01*
X249792Y81545D01*
X249866Y81519D01*
X250938Y83799D02*
X250889Y83848D01*
X250837Y83895D01*
X250782Y83938D01*
X250725Y83979D01*
X250666Y84017D01*
X250605Y84051D01*
X250542Y84082D01*
X250478Y84110D01*
X250412Y84134D01*
X250346Y84154D01*
X250278Y84171D01*
X250209Y84184D01*
X250140Y84193D01*
X250070Y84199D01*
X250000Y84201D01*
X250938Y83799D02*
X253619Y81520D01*
X253619Y84201D01*
D14*
X31242Y64008D02*
X31252Y64850D01*
X31283Y65691D01*
X31335Y66531D01*
X31407Y67369D01*
X31500Y68205D01*
X31613Y69039D01*
X31747Y69870D01*
X31901Y70698D01*
X32075Y71521D01*
X32270Y72340D01*
X32484Y73154D01*
X32719Y73962D01*
X32973Y74764D01*
X33246Y75560D01*
X33540Y76349D01*
X33852Y77130D01*
X34184Y77904D01*
X34534Y78669D01*
X34903Y79425D01*
X35291Y80172D01*
X35697Y80909D01*
X36120Y81637D01*
X36562Y82353D01*
X37021Y83059D01*
X37497Y83752D01*
X37990Y84435D01*
X38500Y85104D01*
X39025Y85761D01*
X39567Y86405D01*
X40125Y87036D01*
X40698Y87652D01*
X41285Y88255D01*
X41888Y88842D01*
X42504Y89415D01*
X43135Y89973D01*
X43779Y90515D01*
X44436Y91040D01*
X45105Y91550D01*
X45788Y92043D01*
X46481Y92519D01*
X47187Y92978D01*
X47903Y93420D01*
X48631Y93843D01*
X49368Y94249D01*
X50115Y94637D01*
X50871Y95006D01*
X51636Y95356D01*
X52410Y95688D01*
X53191Y96000D01*
X53980Y96294D01*
X54776Y96567D01*
X55578Y96821D01*
X56386Y97056D01*
X57200Y97270D01*
X58019Y97465D01*
X58842Y97639D01*
X59670Y97793D01*
X60501Y97927D01*
X61335Y98040D01*
X62171Y98133D01*
X63009Y98205D01*
X63849Y98257D01*
X64690Y98288D01*
X65532Y98298D01*
X66374Y98288D01*
X67215Y98257D01*
X68055Y98205D01*
X68893Y98133D01*
X69729Y98040D01*
X70563Y97927D01*
X71394Y97793D01*
X72222Y97639D01*
X73045Y97465D01*
X73864Y97270D01*
X74678Y97056D01*
X75486Y96821D01*
X76288Y96567D01*
X77084Y96294D01*
X77873Y96000D01*
X78654Y95688D01*
X79428Y95356D01*
X80193Y95006D01*
X80949Y94637D01*
X81696Y94249D01*
X82433Y93843D01*
X83161Y93420D01*
X83877Y92978D01*
X84583Y92519D01*
X85276Y92043D01*
X85959Y91550D01*
X86628Y91040D01*
X87285Y90515D01*
X87929Y89973D01*
X88560Y89415D01*
X89176Y88842D01*
X89779Y88255D01*
X90366Y87652D01*
X90939Y87036D01*
X91497Y86405D01*
X92039Y85761D01*
X92564Y85104D01*
X93074Y84435D01*
X93567Y83752D01*
X94043Y83059D01*
X94502Y82353D01*
X94944Y81637D01*
X95367Y80909D01*
X95773Y80172D01*
X96161Y79425D01*
X96530Y78669D01*
X96880Y77904D01*
X97212Y77130D01*
X97524Y76349D01*
X97818Y75560D01*
X98091Y74764D01*
X98345Y73962D01*
X98580Y73154D01*
X98794Y72340D01*
X98989Y71521D01*
X99163Y70698D01*
X99317Y69870D01*
X99451Y69039D01*
X99564Y68205D01*
X99657Y67369D01*
X99729Y66531D01*
X99781Y65691D01*
X99812Y64850D01*
X99822Y64008D01*
X99812Y63166D01*
X99781Y62325D01*
X99729Y61485D01*
X99657Y60647D01*
X99564Y59811D01*
X99451Y58977D01*
X99317Y58146D01*
X99163Y57318D01*
X98989Y56495D01*
X98794Y55676D01*
X98580Y54862D01*
X98345Y54054D01*
X98091Y53252D01*
X97818Y52456D01*
X97524Y51667D01*
X97212Y50886D01*
X96880Y50112D01*
X96530Y49347D01*
X96161Y48591D01*
X95773Y47844D01*
X95367Y47107D01*
X94944Y46379D01*
X94502Y45663D01*
X94043Y44957D01*
X93567Y44264D01*
X93074Y43581D01*
X92564Y42912D01*
X92039Y42255D01*
X91497Y41611D01*
X90939Y40980D01*
X90366Y40364D01*
X89779Y39761D01*
X89176Y39174D01*
X88560Y38601D01*
X87929Y38043D01*
X87285Y37501D01*
X86628Y36976D01*
X85959Y36466D01*
X85276Y35973D01*
X84583Y35497D01*
X83877Y35038D01*
X83161Y34596D01*
X82433Y34173D01*
X81696Y33767D01*
X80949Y33379D01*
X80193Y33010D01*
X79428Y32660D01*
X78654Y32328D01*
X77873Y32016D01*
X77084Y31722D01*
X76288Y31449D01*
X75486Y31195D01*
X74678Y30960D01*
X73864Y30746D01*
X73045Y30551D01*
X72222Y30377D01*
X71394Y30223D01*
X70563Y30089D01*
X69729Y29976D01*
X68893Y29883D01*
X68055Y29811D01*
X67215Y29759D01*
X66374Y29728D01*
X65532Y29718D01*
X64690Y29728D01*
X63849Y29759D01*
X63009Y29811D01*
X62171Y29883D01*
X61335Y29976D01*
X60501Y30089D01*
X59670Y30223D01*
X58842Y30377D01*
X58019Y30551D01*
X57200Y30746D01*
X56386Y30960D01*
X55578Y31195D01*
X54776Y31449D01*
X53980Y31722D01*
X53191Y32016D01*
X52410Y32328D01*
X51636Y32660D01*
X50871Y33010D01*
X50115Y33379D01*
X49368Y33767D01*
X48631Y34173D01*
X47903Y34596D01*
X47187Y35038D01*
X46481Y35497D01*
X45788Y35973D01*
X45105Y36466D01*
X44436Y36976D01*
X43779Y37501D01*
X43135Y38043D01*
X42504Y38601D01*
X41888Y39174D01*
X41285Y39761D01*
X40698Y40364D01*
X40125Y40980D01*
X39567Y41611D01*
X39025Y42255D01*
X38500Y42912D01*
X37990Y43581D01*
X37497Y44264D01*
X37021Y44957D01*
X36562Y45663D01*
X36120Y46379D01*
X35697Y47107D01*
X35291Y47844D01*
X34903Y48591D01*
X34534Y49347D01*
X34184Y50112D01*
X33852Y50886D01*
X33540Y51667D01*
X33246Y52456D01*
X32973Y53252D01*
X32719Y54054D01*
X32484Y54862D01*
X32270Y55676D01*
X32075Y56495D01*
X31901Y57318D01*
X31747Y58146D01*
X31613Y58977D01*
X31500Y59811D01*
X31407Y60647D01*
X31335Y61485D01*
X31283Y62325D01*
X31252Y63166D01*
X31242Y64008D01*
D10*
X48032Y64008D02*
X48037Y64437D01*
X48053Y64867D01*
X48079Y65295D01*
X48116Y65723D01*
X48164Y66150D01*
X48221Y66576D01*
X48290Y67000D01*
X48368Y67422D01*
X48457Y67842D01*
X48556Y68260D01*
X48666Y68675D01*
X48786Y69088D01*
X48915Y69497D01*
X49055Y69904D01*
X49205Y70306D01*
X49364Y70705D01*
X49533Y71100D01*
X49712Y71490D01*
X49901Y71876D01*
X50098Y72257D01*
X50305Y72634D01*
X50522Y73005D01*
X50747Y73370D01*
X50981Y73730D01*
X51224Y74085D01*
X51476Y74433D01*
X51736Y74775D01*
X52004Y75110D01*
X52281Y75439D01*
X52565Y75760D01*
X52858Y76075D01*
X53158Y76382D01*
X53465Y76682D01*
X53780Y76975D01*
X54101Y77259D01*
X54430Y77536D01*
X54765Y77804D01*
X55107Y78064D01*
X55455Y78316D01*
X55810Y78559D01*
X56170Y78793D01*
X56535Y79018D01*
X56906Y79235D01*
X57283Y79442D01*
X57664Y79639D01*
X58050Y79828D01*
X58440Y80007D01*
X58835Y80176D01*
X59234Y80335D01*
X59636Y80485D01*
X60043Y80625D01*
X60452Y80754D01*
X60865Y80874D01*
X61280Y80984D01*
X61698Y81083D01*
X62118Y81172D01*
X62540Y81250D01*
X62964Y81319D01*
X63390Y81376D01*
X63817Y81424D01*
X64245Y81461D01*
X64673Y81487D01*
X65103Y81503D01*
X65532Y81508D01*
X65961Y81503D01*
X66391Y81487D01*
X66819Y81461D01*
X67247Y81424D01*
X67674Y81376D01*
X68100Y81319D01*
X68524Y81250D01*
X68946Y81172D01*
X69366Y81083D01*
X69784Y80984D01*
X70199Y80874D01*
X70612Y80754D01*
X71021Y80625D01*
X71428Y80485D01*
X71830Y80335D01*
X72229Y80176D01*
X72624Y80007D01*
X73014Y79828D01*
X73400Y79639D01*
X73781Y79442D01*
X74158Y79235D01*
X74529Y79018D01*
X74894Y78793D01*
X75254Y78559D01*
X75609Y78316D01*
X75957Y78064D01*
X76299Y77804D01*
X76634Y77536D01*
X76963Y77259D01*
X77284Y76975D01*
X77599Y76682D01*
X77906Y76382D01*
X78206Y76075D01*
X78499Y75760D01*
X78783Y75439D01*
X79060Y75110D01*
X79328Y74775D01*
X79588Y74433D01*
X79840Y74085D01*
X80083Y73730D01*
X80317Y73370D01*
X80542Y73005D01*
X80759Y72634D01*
X80966Y72257D01*
X81163Y71876D01*
X81352Y71490D01*
X81531Y71100D01*
X81700Y70705D01*
X81859Y70306D01*
X82009Y69904D01*
X82149Y69497D01*
X82278Y69088D01*
X82398Y68675D01*
X82508Y68260D01*
X82607Y67842D01*
X82696Y67422D01*
X82774Y67000D01*
X82843Y66576D01*
X82900Y66150D01*
X82948Y65723D01*
X82985Y65295D01*
X83011Y64867D01*
X83027Y64437D01*
X83032Y64008D01*
X83027Y63579D01*
X83011Y63149D01*
X82985Y62721D01*
X82948Y62293D01*
X82900Y61866D01*
X82843Y61440D01*
X82774Y61016D01*
X82696Y60594D01*
X82607Y60174D01*
X82508Y59756D01*
X82398Y59341D01*
X82278Y58928D01*
X82149Y58519D01*
X82009Y58112D01*
X81859Y57710D01*
X81700Y57311D01*
X81531Y56916D01*
X81352Y56526D01*
X81163Y56140D01*
X80966Y55759D01*
X80759Y55382D01*
X80542Y55011D01*
X80317Y54646D01*
X80083Y54286D01*
X79840Y53931D01*
X79588Y53583D01*
X79328Y53241D01*
X79060Y52906D01*
X78783Y52577D01*
X78499Y52256D01*
X78206Y51941D01*
X77906Y51634D01*
X77599Y51334D01*
X77284Y51041D01*
X76963Y50757D01*
X76634Y50480D01*
X76299Y50212D01*
X75957Y49952D01*
X75609Y49700D01*
X75254Y49457D01*
X74894Y49223D01*
X74529Y48998D01*
X74158Y48781D01*
X73781Y48574D01*
X73400Y48377D01*
X73014Y48188D01*
X72624Y48009D01*
X72229Y47840D01*
X71830Y47681D01*
X71428Y47531D01*
X71021Y47391D01*
X70612Y47262D01*
X70199Y47142D01*
X69784Y47032D01*
X69366Y46933D01*
X68946Y46844D01*
X68524Y46766D01*
X68100Y46697D01*
X67674Y46640D01*
X67247Y46592D01*
X66819Y46555D01*
X66391Y46529D01*
X65961Y46513D01*
X65532Y46508D01*
X65103Y46513D01*
X64673Y46529D01*
X64245Y46555D01*
X63817Y46592D01*
X63390Y46640D01*
X62964Y46697D01*
X62540Y46766D01*
X62118Y46844D01*
X61698Y46933D01*
X61280Y47032D01*
X60865Y47142D01*
X60452Y47262D01*
X60043Y47391D01*
X59636Y47531D01*
X59234Y47681D01*
X58835Y47840D01*
X58440Y48009D01*
X58050Y48188D01*
X57664Y48377D01*
X57283Y48574D01*
X56906Y48781D01*
X56535Y48998D01*
X56170Y49223D01*
X55810Y49457D01*
X55455Y49700D01*
X55107Y49952D01*
X54765Y50212D01*
X54430Y50480D01*
X54101Y50757D01*
X53780Y51041D01*
X53465Y51334D01*
X53158Y51634D01*
X52858Y51941D01*
X52565Y52256D01*
X52281Y52577D01*
X52004Y52906D01*
X51736Y53241D01*
X51476Y53583D01*
X51224Y53931D01*
X50981Y54286D01*
X50747Y54646D01*
X50522Y55011D01*
X50305Y55382D01*
X50098Y55759D01*
X49901Y56140D01*
X49712Y56526D01*
X49533Y56916D01*
X49364Y57311D01*
X49205Y57710D01*
X49055Y58112D01*
X48915Y58519D01*
X48786Y58928D01*
X48666Y59341D01*
X48556Y59756D01*
X48457Y60174D01*
X48368Y60594D01*
X48290Y61016D01*
X48221Y61440D01*
X48164Y61866D01*
X48116Y62293D01*
X48079Y62721D01*
X48053Y63149D01*
X48037Y63579D01*
X48032Y64008D01*
D14*
X1238758Y48768D02*
X1238768Y49610D01*
X1238799Y50451D01*
X1238851Y51291D01*
X1238923Y52129D01*
X1239016Y52965D01*
X1239129Y53799D01*
X1239263Y54630D01*
X1239417Y55458D01*
X1239591Y56281D01*
X1239786Y57100D01*
X1240000Y57914D01*
X1240235Y58722D01*
X1240489Y59524D01*
X1240762Y60320D01*
X1241056Y61109D01*
X1241368Y61890D01*
X1241700Y62664D01*
X1242050Y63429D01*
X1242419Y64185D01*
X1242807Y64932D01*
X1243213Y65669D01*
X1243636Y66397D01*
X1244078Y67113D01*
X1244537Y67819D01*
X1245013Y68512D01*
X1245506Y69195D01*
X1246016Y69864D01*
X1246541Y70521D01*
X1247083Y71165D01*
X1247641Y71796D01*
X1248214Y72412D01*
X1248801Y73015D01*
X1249404Y73602D01*
X1250020Y74175D01*
X1250651Y74733D01*
X1251295Y75275D01*
X1251952Y75800D01*
X1252621Y76310D01*
X1253304Y76803D01*
X1253997Y77279D01*
X1254703Y77738D01*
X1255419Y78180D01*
X1256147Y78603D01*
X1256884Y79009D01*
X1257631Y79397D01*
X1258387Y79766D01*
X1259152Y80116D01*
X1259926Y80448D01*
X1260707Y80760D01*
X1261496Y81054D01*
X1262292Y81327D01*
X1263094Y81581D01*
X1263902Y81816D01*
X1264716Y82030D01*
X1265535Y82225D01*
X1266358Y82399D01*
X1267186Y82553D01*
X1268017Y82687D01*
X1268851Y82800D01*
X1269687Y82893D01*
X1270525Y82965D01*
X1271365Y83017D01*
X1272206Y83048D01*
X1273048Y83058D01*
X1273890Y83048D01*
X1274731Y83017D01*
X1275571Y82965D01*
X1276409Y82893D01*
X1277245Y82800D01*
X1278079Y82687D01*
X1278910Y82553D01*
X1279738Y82399D01*
X1280561Y82225D01*
X1281380Y82030D01*
X1282194Y81816D01*
X1283002Y81581D01*
X1283804Y81327D01*
X1284600Y81054D01*
X1285389Y80760D01*
X1286170Y80448D01*
X1286944Y80116D01*
X1287709Y79766D01*
X1288465Y79397D01*
X1289212Y79009D01*
X1289949Y78603D01*
X1290677Y78180D01*
X1291393Y77738D01*
X1292099Y77279D01*
X1292792Y76803D01*
X1293475Y76310D01*
X1294144Y75800D01*
X1294801Y75275D01*
X1295445Y74733D01*
X1296076Y74175D01*
X1296692Y73602D01*
X1297295Y73015D01*
X1297882Y72412D01*
X1298455Y71796D01*
X1299013Y71165D01*
X1299555Y70521D01*
X1300080Y69864D01*
X1300590Y69195D01*
X1301083Y68512D01*
X1301559Y67819D01*
X1302018Y67113D01*
X1302460Y66397D01*
X1302883Y65669D01*
X1303289Y64932D01*
X1303677Y64185D01*
X1304046Y63429D01*
X1304396Y62664D01*
X1304728Y61890D01*
X1305040Y61109D01*
X1305334Y60320D01*
X1305607Y59524D01*
X1305861Y58722D01*
X1306096Y57914D01*
X1306310Y57100D01*
X1306505Y56281D01*
X1306679Y55458D01*
X1306833Y54630D01*
X1306967Y53799D01*
X1307080Y52965D01*
X1307173Y52129D01*
X1307245Y51291D01*
X1307297Y50451D01*
X1307328Y49610D01*
X1307338Y48768D01*
X1307328Y47926D01*
X1307297Y47085D01*
X1307245Y46245D01*
X1307173Y45407D01*
X1307080Y44571D01*
X1306967Y43737D01*
X1306833Y42906D01*
X1306679Y42078D01*
X1306505Y41255D01*
X1306310Y40436D01*
X1306096Y39622D01*
X1305861Y38814D01*
X1305607Y38012D01*
X1305334Y37216D01*
X1305040Y36427D01*
X1304728Y35646D01*
X1304396Y34872D01*
X1304046Y34107D01*
X1303677Y33351D01*
X1303289Y32604D01*
X1302883Y31867D01*
X1302460Y31139D01*
X1302018Y30423D01*
X1301559Y29717D01*
X1301083Y29024D01*
X1300590Y28341D01*
X1300080Y27672D01*
X1299555Y27015D01*
X1299013Y26371D01*
X1298455Y25740D01*
X1297882Y25124D01*
X1297295Y24521D01*
X1296692Y23934D01*
X1296076Y23361D01*
X1295445Y22803D01*
X1294801Y22261D01*
X1294144Y21736D01*
X1293475Y21226D01*
X1292792Y20733D01*
X1292099Y20257D01*
X1291393Y19798D01*
X1290677Y19356D01*
X1289949Y18933D01*
X1289212Y18527D01*
X1288465Y18139D01*
X1287709Y17770D01*
X1286944Y17420D01*
X1286170Y17088D01*
X1285389Y16776D01*
X1284600Y16482D01*
X1283804Y16209D01*
X1283002Y15955D01*
X1282194Y15720D01*
X1281380Y15506D01*
X1280561Y15311D01*
X1279738Y15137D01*
X1278910Y14983D01*
X1278079Y14849D01*
X1277245Y14736D01*
X1276409Y14643D01*
X1275571Y14571D01*
X1274731Y14519D01*
X1273890Y14488D01*
X1273048Y14478D01*
X1272206Y14488D01*
X1271365Y14519D01*
X1270525Y14571D01*
X1269687Y14643D01*
X1268851Y14736D01*
X1268017Y14849D01*
X1267186Y14983D01*
X1266358Y15137D01*
X1265535Y15311D01*
X1264716Y15506D01*
X1263902Y15720D01*
X1263094Y15955D01*
X1262292Y16209D01*
X1261496Y16482D01*
X1260707Y16776D01*
X1259926Y17088D01*
X1259152Y17420D01*
X1258387Y17770D01*
X1257631Y18139D01*
X1256884Y18527D01*
X1256147Y18933D01*
X1255419Y19356D01*
X1254703Y19798D01*
X1253997Y20257D01*
X1253304Y20733D01*
X1252621Y21226D01*
X1251952Y21736D01*
X1251295Y22261D01*
X1250651Y22803D01*
X1250020Y23361D01*
X1249404Y23934D01*
X1248801Y24521D01*
X1248214Y25124D01*
X1247641Y25740D01*
X1247083Y26371D01*
X1246541Y27015D01*
X1246016Y27672D01*
X1245506Y28341D01*
X1245013Y29024D01*
X1244537Y29717D01*
X1244078Y30423D01*
X1243636Y31139D01*
X1243213Y31867D01*
X1242807Y32604D01*
X1242419Y33351D01*
X1242050Y34107D01*
X1241700Y34872D01*
X1241368Y35646D01*
X1241056Y36427D01*
X1240762Y37216D01*
X1240489Y38012D01*
X1240235Y38814D01*
X1240000Y39622D01*
X1239786Y40436D01*
X1239591Y41255D01*
X1239417Y42078D01*
X1239263Y42906D01*
X1239129Y43737D01*
X1239016Y44571D01*
X1238923Y45407D01*
X1238851Y46245D01*
X1238799Y47085D01*
X1238768Y47926D01*
X1238758Y48768D01*
D10*
X1255548Y48768D02*
X1255553Y49197D01*
X1255569Y49627D01*
X1255595Y50055D01*
X1255632Y50483D01*
X1255680Y50910D01*
X1255737Y51336D01*
X1255806Y51760D01*
X1255884Y52182D01*
X1255973Y52602D01*
X1256072Y53020D01*
X1256182Y53435D01*
X1256302Y53848D01*
X1256431Y54257D01*
X1256571Y54664D01*
X1256721Y55066D01*
X1256880Y55465D01*
X1257049Y55860D01*
X1257228Y56250D01*
X1257417Y56636D01*
X1257614Y57017D01*
X1257821Y57394D01*
X1258038Y57765D01*
X1258263Y58130D01*
X1258497Y58490D01*
X1258740Y58845D01*
X1258992Y59193D01*
X1259252Y59535D01*
X1259520Y59870D01*
X1259797Y60199D01*
X1260081Y60520D01*
X1260374Y60835D01*
X1260674Y61142D01*
X1260981Y61442D01*
X1261296Y61735D01*
X1261617Y62019D01*
X1261946Y62296D01*
X1262281Y62564D01*
X1262623Y62824D01*
X1262971Y63076D01*
X1263326Y63319D01*
X1263686Y63553D01*
X1264051Y63778D01*
X1264422Y63995D01*
X1264799Y64202D01*
X1265180Y64399D01*
X1265566Y64588D01*
X1265956Y64767D01*
X1266351Y64936D01*
X1266750Y65095D01*
X1267152Y65245D01*
X1267559Y65385D01*
X1267968Y65514D01*
X1268381Y65634D01*
X1268796Y65744D01*
X1269214Y65843D01*
X1269634Y65932D01*
X1270056Y66010D01*
X1270480Y66079D01*
X1270906Y66136D01*
X1271333Y66184D01*
X1271761Y66221D01*
X1272189Y66247D01*
X1272619Y66263D01*
X1273048Y66268D01*
X1273477Y66263D01*
X1273907Y66247D01*
X1274335Y66221D01*
X1274763Y66184D01*
X1275190Y66136D01*
X1275616Y66079D01*
X1276040Y66010D01*
X1276462Y65932D01*
X1276882Y65843D01*
X1277300Y65744D01*
X1277715Y65634D01*
X1278128Y65514D01*
X1278537Y65385D01*
X1278944Y65245D01*
X1279346Y65095D01*
X1279745Y64936D01*
X1280140Y64767D01*
X1280530Y64588D01*
X1280916Y64399D01*
X1281297Y64202D01*
X1281674Y63995D01*
X1282045Y63778D01*
X1282410Y63553D01*
X1282770Y63319D01*
X1283125Y63076D01*
X1283473Y62824D01*
X1283815Y62564D01*
X1284150Y62296D01*
X1284479Y62019D01*
X1284800Y61735D01*
X1285115Y61442D01*
X1285422Y61142D01*
X1285722Y60835D01*
X1286015Y60520D01*
X1286299Y60199D01*
X1286576Y59870D01*
X1286844Y59535D01*
X1287104Y59193D01*
X1287356Y58845D01*
X1287599Y58490D01*
X1287833Y58130D01*
X1288058Y57765D01*
X1288275Y57394D01*
X1288482Y57017D01*
X1288679Y56636D01*
X1288868Y56250D01*
X1289047Y55860D01*
X1289216Y55465D01*
X1289375Y55066D01*
X1289525Y54664D01*
X1289665Y54257D01*
X1289794Y53848D01*
X1289914Y53435D01*
X1290024Y53020D01*
X1290123Y52602D01*
X1290212Y52182D01*
X1290290Y51760D01*
X1290359Y51336D01*
X1290416Y50910D01*
X1290464Y50483D01*
X1290501Y50055D01*
X1290527Y49627D01*
X1290543Y49197D01*
X1290548Y48768D01*
X1290543Y48339D01*
X1290527Y47909D01*
X1290501Y47481D01*
X1290464Y47053D01*
X1290416Y46626D01*
X1290359Y46200D01*
X1290290Y45776D01*
X1290212Y45354D01*
X1290123Y44934D01*
X1290024Y44516D01*
X1289914Y44101D01*
X1289794Y43688D01*
X1289665Y43279D01*
X1289525Y42872D01*
X1289375Y42470D01*
X1289216Y42071D01*
X1289047Y41676D01*
X1288868Y41286D01*
X1288679Y40900D01*
X1288482Y40519D01*
X1288275Y40142D01*
X1288058Y39771D01*
X1287833Y39406D01*
X1287599Y39046D01*
X1287356Y38691D01*
X1287104Y38343D01*
X1286844Y38001D01*
X1286576Y37666D01*
X1286299Y37337D01*
X1286015Y37016D01*
X1285722Y36701D01*
X1285422Y36394D01*
X1285115Y36094D01*
X1284800Y35801D01*
X1284479Y35517D01*
X1284150Y35240D01*
X1283815Y34972D01*
X1283473Y34712D01*
X1283125Y34460D01*
X1282770Y34217D01*
X1282410Y33983D01*
X1282045Y33758D01*
X1281674Y33541D01*
X1281297Y33334D01*
X1280916Y33137D01*
X1280530Y32948D01*
X1280140Y32769D01*
X1279745Y32600D01*
X1279346Y32441D01*
X1278944Y32291D01*
X1278537Y32151D01*
X1278128Y32022D01*
X1277715Y31902D01*
X1277300Y31792D01*
X1276882Y31693D01*
X1276462Y31604D01*
X1276040Y31526D01*
X1275616Y31457D01*
X1275190Y31400D01*
X1274763Y31352D01*
X1274335Y31315D01*
X1273907Y31289D01*
X1273477Y31273D01*
X1273048Y31268D01*
X1272619Y31273D01*
X1272189Y31289D01*
X1271761Y31315D01*
X1271333Y31352D01*
X1270906Y31400D01*
X1270480Y31457D01*
X1270056Y31526D01*
X1269634Y31604D01*
X1269214Y31693D01*
X1268796Y31792D01*
X1268381Y31902D01*
X1267968Y32022D01*
X1267559Y32151D01*
X1267152Y32291D01*
X1266750Y32441D01*
X1266351Y32600D01*
X1265956Y32769D01*
X1265566Y32948D01*
X1265180Y33137D01*
X1264799Y33334D01*
X1264422Y33541D01*
X1264051Y33758D01*
X1263686Y33983D01*
X1263326Y34217D01*
X1262971Y34460D01*
X1262623Y34712D01*
X1262281Y34972D01*
X1261946Y35240D01*
X1261617Y35517D01*
X1261296Y35801D01*
X1260981Y36094D01*
X1260674Y36394D01*
X1260374Y36701D01*
X1260081Y37016D01*
X1259797Y37337D01*
X1259520Y37666D01*
X1259252Y38001D01*
X1258992Y38343D01*
X1258740Y38691D01*
X1258497Y39046D01*
X1258263Y39406D01*
X1258038Y39771D01*
X1257821Y40142D01*
X1257614Y40519D01*
X1257417Y40900D01*
X1257228Y41286D01*
X1257049Y41676D01*
X1256880Y42071D01*
X1256721Y42470D01*
X1256571Y42872D01*
X1256431Y43279D01*
X1256302Y43688D01*
X1256182Y44101D01*
X1256072Y44516D01*
X1255973Y44934D01*
X1255884Y45354D01*
X1255806Y45776D01*
X1255737Y46200D01*
X1255680Y46626D01*
X1255632Y47053D01*
X1255595Y47481D01*
X1255569Y47909D01*
X1255553Y48339D01*
X1255548Y48768D01*
D14*
X1239266Y479552D02*
X1239276Y480394D01*
X1239307Y481235D01*
X1239359Y482075D01*
X1239431Y482913D01*
X1239524Y483749D01*
X1239637Y484583D01*
X1239771Y485414D01*
X1239925Y486242D01*
X1240099Y487065D01*
X1240294Y487884D01*
X1240508Y488698D01*
X1240743Y489506D01*
X1240997Y490308D01*
X1241270Y491104D01*
X1241564Y491893D01*
X1241876Y492674D01*
X1242208Y493448D01*
X1242558Y494213D01*
X1242927Y494969D01*
X1243315Y495716D01*
X1243721Y496453D01*
X1244144Y497181D01*
X1244586Y497897D01*
X1245045Y498603D01*
X1245521Y499296D01*
X1246014Y499979D01*
X1246524Y500648D01*
X1247049Y501305D01*
X1247591Y501949D01*
X1248149Y502580D01*
X1248722Y503196D01*
X1249309Y503799D01*
X1249912Y504386D01*
X1250528Y504959D01*
X1251159Y505517D01*
X1251803Y506059D01*
X1252460Y506584D01*
X1253129Y507094D01*
X1253812Y507587D01*
X1254505Y508063D01*
X1255211Y508522D01*
X1255927Y508964D01*
X1256655Y509387D01*
X1257392Y509793D01*
X1258139Y510181D01*
X1258895Y510550D01*
X1259660Y510900D01*
X1260434Y511232D01*
X1261215Y511544D01*
X1262004Y511838D01*
X1262800Y512111D01*
X1263602Y512365D01*
X1264410Y512600D01*
X1265224Y512814D01*
X1266043Y513009D01*
X1266866Y513183D01*
X1267694Y513337D01*
X1268525Y513471D01*
X1269359Y513584D01*
X1270195Y513677D01*
X1271033Y513749D01*
X1271873Y513801D01*
X1272714Y513832D01*
X1273556Y513842D01*
X1274398Y513832D01*
X1275239Y513801D01*
X1276079Y513749D01*
X1276917Y513677D01*
X1277753Y513584D01*
X1278587Y513471D01*
X1279418Y513337D01*
X1280246Y513183D01*
X1281069Y513009D01*
X1281888Y512814D01*
X1282702Y512600D01*
X1283510Y512365D01*
X1284312Y512111D01*
X1285108Y511838D01*
X1285897Y511544D01*
X1286678Y511232D01*
X1287452Y510900D01*
X1288217Y510550D01*
X1288973Y510181D01*
X1289720Y509793D01*
X1290457Y509387D01*
X1291185Y508964D01*
X1291901Y508522D01*
X1292607Y508063D01*
X1293300Y507587D01*
X1293983Y507094D01*
X1294652Y506584D01*
X1295309Y506059D01*
X1295953Y505517D01*
X1296584Y504959D01*
X1297200Y504386D01*
X1297803Y503799D01*
X1298390Y503196D01*
X1298963Y502580D01*
X1299521Y501949D01*
X1300063Y501305D01*
X1300588Y500648D01*
X1301098Y499979D01*
X1301591Y499296D01*
X1302067Y498603D01*
X1302526Y497897D01*
X1302968Y497181D01*
X1303391Y496453D01*
X1303797Y495716D01*
X1304185Y494969D01*
X1304554Y494213D01*
X1304904Y493448D01*
X1305236Y492674D01*
X1305548Y491893D01*
X1305842Y491104D01*
X1306115Y490308D01*
X1306369Y489506D01*
X1306604Y488698D01*
X1306818Y487884D01*
X1307013Y487065D01*
X1307187Y486242D01*
X1307341Y485414D01*
X1307475Y484583D01*
X1307588Y483749D01*
X1307681Y482913D01*
X1307753Y482075D01*
X1307805Y481235D01*
X1307836Y480394D01*
X1307846Y479552D01*
X1307836Y478710D01*
X1307805Y477869D01*
X1307753Y477029D01*
X1307681Y476191D01*
X1307588Y475355D01*
X1307475Y474521D01*
X1307341Y473690D01*
X1307187Y472862D01*
X1307013Y472039D01*
X1306818Y471220D01*
X1306604Y470406D01*
X1306369Y469598D01*
X1306115Y468796D01*
X1305842Y468000D01*
X1305548Y467211D01*
X1305236Y466430D01*
X1304904Y465656D01*
X1304554Y464891D01*
X1304185Y464135D01*
X1303797Y463388D01*
X1303391Y462651D01*
X1302968Y461923D01*
X1302526Y461207D01*
X1302067Y460501D01*
X1301591Y459808D01*
X1301098Y459125D01*
X1300588Y458456D01*
X1300063Y457799D01*
X1299521Y457155D01*
X1298963Y456524D01*
X1298390Y455908D01*
X1297803Y455305D01*
X1297200Y454718D01*
X1296584Y454145D01*
X1295953Y453587D01*
X1295309Y453045D01*
X1294652Y452520D01*
X1293983Y452010D01*
X1293300Y451517D01*
X1292607Y451041D01*
X1291901Y450582D01*
X1291185Y450140D01*
X1290457Y449717D01*
X1289720Y449311D01*
X1288973Y448923D01*
X1288217Y448554D01*
X1287452Y448204D01*
X1286678Y447872D01*
X1285897Y447560D01*
X1285108Y447266D01*
X1284312Y446993D01*
X1283510Y446739D01*
X1282702Y446504D01*
X1281888Y446290D01*
X1281069Y446095D01*
X1280246Y445921D01*
X1279418Y445767D01*
X1278587Y445633D01*
X1277753Y445520D01*
X1276917Y445427D01*
X1276079Y445355D01*
X1275239Y445303D01*
X1274398Y445272D01*
X1273556Y445262D01*
X1272714Y445272D01*
X1271873Y445303D01*
X1271033Y445355D01*
X1270195Y445427D01*
X1269359Y445520D01*
X1268525Y445633D01*
X1267694Y445767D01*
X1266866Y445921D01*
X1266043Y446095D01*
X1265224Y446290D01*
X1264410Y446504D01*
X1263602Y446739D01*
X1262800Y446993D01*
X1262004Y447266D01*
X1261215Y447560D01*
X1260434Y447872D01*
X1259660Y448204D01*
X1258895Y448554D01*
X1258139Y448923D01*
X1257392Y449311D01*
X1256655Y449717D01*
X1255927Y450140D01*
X1255211Y450582D01*
X1254505Y451041D01*
X1253812Y451517D01*
X1253129Y452010D01*
X1252460Y452520D01*
X1251803Y453045D01*
X1251159Y453587D01*
X1250528Y454145D01*
X1249912Y454718D01*
X1249309Y455305D01*
X1248722Y455908D01*
X1248149Y456524D01*
X1247591Y457155D01*
X1247049Y457799D01*
X1246524Y458456D01*
X1246014Y459125D01*
X1245521Y459808D01*
X1245045Y460501D01*
X1244586Y461207D01*
X1244144Y461923D01*
X1243721Y462651D01*
X1243315Y463388D01*
X1242927Y464135D01*
X1242558Y464891D01*
X1242208Y465656D01*
X1241876Y466430D01*
X1241564Y467211D01*
X1241270Y468000D01*
X1240997Y468796D01*
X1240743Y469598D01*
X1240508Y470406D01*
X1240294Y471220D01*
X1240099Y472039D01*
X1239925Y472862D01*
X1239771Y473690D01*
X1239637Y474521D01*
X1239524Y475355D01*
X1239431Y476191D01*
X1239359Y477029D01*
X1239307Y477869D01*
X1239276Y478710D01*
X1239266Y479552D01*
D10*
X1256056Y479552D02*
X1256061Y479981D01*
X1256077Y480411D01*
X1256103Y480839D01*
X1256140Y481267D01*
X1256188Y481694D01*
X1256245Y482120D01*
X1256314Y482544D01*
X1256392Y482966D01*
X1256481Y483386D01*
X1256580Y483804D01*
X1256690Y484219D01*
X1256810Y484632D01*
X1256939Y485041D01*
X1257079Y485448D01*
X1257229Y485850D01*
X1257388Y486249D01*
X1257557Y486644D01*
X1257736Y487034D01*
X1257925Y487420D01*
X1258122Y487801D01*
X1258329Y488178D01*
X1258546Y488549D01*
X1258771Y488914D01*
X1259005Y489274D01*
X1259248Y489629D01*
X1259500Y489977D01*
X1259760Y490319D01*
X1260028Y490654D01*
X1260305Y490983D01*
X1260589Y491304D01*
X1260882Y491619D01*
X1261182Y491926D01*
X1261489Y492226D01*
X1261804Y492519D01*
X1262125Y492803D01*
X1262454Y493080D01*
X1262789Y493348D01*
X1263131Y493608D01*
X1263479Y493860D01*
X1263834Y494103D01*
X1264194Y494337D01*
X1264559Y494562D01*
X1264930Y494779D01*
X1265307Y494986D01*
X1265688Y495183D01*
X1266074Y495372D01*
X1266464Y495551D01*
X1266859Y495720D01*
X1267258Y495879D01*
X1267660Y496029D01*
X1268067Y496169D01*
X1268476Y496298D01*
X1268889Y496418D01*
X1269304Y496528D01*
X1269722Y496627D01*
X1270142Y496716D01*
X1270564Y496794D01*
X1270988Y496863D01*
X1271414Y496920D01*
X1271841Y496968D01*
X1272269Y497005D01*
X1272697Y497031D01*
X1273127Y497047D01*
X1273556Y497052D01*
X1273985Y497047D01*
X1274415Y497031D01*
X1274843Y497005D01*
X1275271Y496968D01*
X1275698Y496920D01*
X1276124Y496863D01*
X1276548Y496794D01*
X1276970Y496716D01*
X1277390Y496627D01*
X1277808Y496528D01*
X1278223Y496418D01*
X1278636Y496298D01*
X1279045Y496169D01*
X1279452Y496029D01*
X1279854Y495879D01*
X1280253Y495720D01*
X1280648Y495551D01*
X1281038Y495372D01*
X1281424Y495183D01*
X1281805Y494986D01*
X1282182Y494779D01*
X1282553Y494562D01*
X1282918Y494337D01*
X1283278Y494103D01*
X1283633Y493860D01*
X1283981Y493608D01*
X1284323Y493348D01*
X1284658Y493080D01*
X1284987Y492803D01*
X1285308Y492519D01*
X1285623Y492226D01*
X1285930Y491926D01*
X1286230Y491619D01*
X1286523Y491304D01*
X1286807Y490983D01*
X1287084Y490654D01*
X1287352Y490319D01*
X1287612Y489977D01*
X1287864Y489629D01*
X1288107Y489274D01*
X1288341Y488914D01*
X1288566Y488549D01*
X1288783Y488178D01*
X1288990Y487801D01*
X1289187Y487420D01*
X1289376Y487034D01*
X1289555Y486644D01*
X1289724Y486249D01*
X1289883Y485850D01*
X1290033Y485448D01*
X1290173Y485041D01*
X1290302Y484632D01*
X1290422Y484219D01*
X1290532Y483804D01*
X1290631Y483386D01*
X1290720Y482966D01*
X1290798Y482544D01*
X1290867Y482120D01*
X1290924Y481694D01*
X1290972Y481267D01*
X1291009Y480839D01*
X1291035Y480411D01*
X1291051Y479981D01*
X1291056Y479552D01*
X1291051Y479123D01*
X1291035Y478693D01*
X1291009Y478265D01*
X1290972Y477837D01*
X1290924Y477410D01*
X1290867Y476984D01*
X1290798Y476560D01*
X1290720Y476138D01*
X1290631Y475718D01*
X1290532Y475300D01*
X1290422Y474885D01*
X1290302Y474472D01*
X1290173Y474063D01*
X1290033Y473656D01*
X1289883Y473254D01*
X1289724Y472855D01*
X1289555Y472460D01*
X1289376Y472070D01*
X1289187Y471684D01*
X1288990Y471303D01*
X1288783Y470926D01*
X1288566Y470555D01*
X1288341Y470190D01*
X1288107Y469830D01*
X1287864Y469475D01*
X1287612Y469127D01*
X1287352Y468785D01*
X1287084Y468450D01*
X1286807Y468121D01*
X1286523Y467800D01*
X1286230Y467485D01*
X1285930Y467178D01*
X1285623Y466878D01*
X1285308Y466585D01*
X1284987Y466301D01*
X1284658Y466024D01*
X1284323Y465756D01*
X1283981Y465496D01*
X1283633Y465244D01*
X1283278Y465001D01*
X1282918Y464767D01*
X1282553Y464542D01*
X1282182Y464325D01*
X1281805Y464118D01*
X1281424Y463921D01*
X1281038Y463732D01*
X1280648Y463553D01*
X1280253Y463384D01*
X1279854Y463225D01*
X1279452Y463075D01*
X1279045Y462935D01*
X1278636Y462806D01*
X1278223Y462686D01*
X1277808Y462576D01*
X1277390Y462477D01*
X1276970Y462388D01*
X1276548Y462310D01*
X1276124Y462241D01*
X1275698Y462184D01*
X1275271Y462136D01*
X1274843Y462099D01*
X1274415Y462073D01*
X1273985Y462057D01*
X1273556Y462052D01*
X1273127Y462057D01*
X1272697Y462073D01*
X1272269Y462099D01*
X1271841Y462136D01*
X1271414Y462184D01*
X1270988Y462241D01*
X1270564Y462310D01*
X1270142Y462388D01*
X1269722Y462477D01*
X1269304Y462576D01*
X1268889Y462686D01*
X1268476Y462806D01*
X1268067Y462935D01*
X1267660Y463075D01*
X1267258Y463225D01*
X1266859Y463384D01*
X1266464Y463553D01*
X1266074Y463732D01*
X1265688Y463921D01*
X1265307Y464118D01*
X1264930Y464325D01*
X1264559Y464542D01*
X1264194Y464767D01*
X1263834Y465001D01*
X1263479Y465244D01*
X1263131Y465496D01*
X1262789Y465756D01*
X1262454Y466024D01*
X1262125Y466301D01*
X1261804Y466585D01*
X1261489Y466878D01*
X1261182Y467178D01*
X1260882Y467485D01*
X1260589Y467800D01*
X1260305Y468121D01*
X1260028Y468450D01*
X1259760Y468785D01*
X1259500Y469127D01*
X1259248Y469475D01*
X1259005Y469830D01*
X1258771Y470190D01*
X1258546Y470555D01*
X1258329Y470926D01*
X1258122Y471303D01*
X1257925Y471684D01*
X1257736Y472070D01*
X1257557Y472460D01*
X1257388Y472855D01*
X1257229Y473254D01*
X1257079Y473656D01*
X1256939Y474063D01*
X1256810Y474472D01*
X1256690Y474885D01*
X1256580Y475300D01*
X1256481Y475718D01*
X1256392Y476138D01*
X1256314Y476560D01*
X1256245Y476984D01*
X1256188Y477410D01*
X1256140Y477837D01*
X1256103Y478265D01*
X1256077Y478693D01*
X1256061Y479123D01*
X1256056Y479552D01*
D15*
X487920Y415736D03*
D16*
X411820Y415736D01*
D15*
X411820Y415736D03*
D16*
X487920Y415736D01*
X411820Y415736D02*
X411820Y212736D01*
D15*
X411820Y212736D03*
D16*
X411820Y415736D01*
D15*
X411820Y415736D03*
D16*
X514820Y304536D02*
X514820Y244536D01*
D17*
X522920Y224536D03*
D12*
X522918Y224580D01*
X522912Y224623D01*
X522903Y224665D01*
X522890Y224707D01*
X522873Y224747D01*
X522853Y224786D01*
X522830Y224823D01*
X522803Y224857D01*
X522774Y224890D01*
X522741Y224919D01*
X522707Y224946D01*
X522670Y224969D01*
X522631Y224989D01*
X522591Y225006D01*
X522549Y225019D01*
X522507Y225028D01*
X522464Y225034D01*
X522420Y225036D01*
X522376Y225034D01*
X522333Y225028D01*
X522291Y225019D01*
X522249Y225006D01*
X522209Y224989D01*
X522170Y224969D01*
X522133Y224946D01*
X522099Y224919D01*
X522066Y224890D01*
X522037Y224857D01*
X522010Y224823D01*
X521987Y224786D01*
X521967Y224747D01*
X521950Y224707D01*
X521937Y224665D01*
X521928Y224623D01*
X521922Y224580D01*
X521920Y224536D01*
D17*
X521920Y224536D03*
D12*
X521922Y224492D01*
X521928Y224449D01*
X521937Y224407D01*
X521950Y224365D01*
X521967Y224325D01*
X521987Y224286D01*
X522010Y224249D01*
X522037Y224215D01*
X522066Y224182D01*
X522099Y224153D01*
X522133Y224126D01*
X522170Y224103D01*
X522209Y224083D01*
X522249Y224066D01*
X522291Y224053D01*
X522333Y224044D01*
X522376Y224038D01*
X522420Y224036D01*
X522464Y224038D01*
X522507Y224044D01*
X522549Y224053D01*
X522591Y224066D01*
X522631Y224083D01*
X522670Y224103D01*
X522707Y224126D01*
X522741Y224153D01*
X522774Y224182D01*
X522803Y224215D01*
X522830Y224249D01*
X522853Y224286D01*
X522873Y224325D01*
X522890Y224365D01*
X522903Y224407D01*
X522912Y224449D01*
X522918Y224492D01*
X522920Y224536D01*
D17*
X522920Y224536D03*
D12*
X522918Y224580D01*
X522912Y224623D01*
X522903Y224665D01*
X522890Y224707D01*
X522873Y224747D01*
X522853Y224786D01*
X522830Y224823D01*
X522803Y224857D01*
X522774Y224890D01*
X522741Y224919D01*
X522707Y224946D01*
X522670Y224969D01*
X522631Y224989D01*
X522591Y225006D01*
X522549Y225019D01*
X522507Y225028D01*
X522464Y225034D01*
X522420Y225036D01*
X522376Y225034D01*
X522333Y225028D01*
X522291Y225019D01*
X522249Y225006D01*
X522209Y224989D01*
X522170Y224969D01*
X522133Y224946D01*
X522099Y224919D01*
X522066Y224890D01*
X522037Y224857D01*
X522010Y224823D01*
X521987Y224786D01*
X521967Y224747D01*
X521950Y224707D01*
X521937Y224665D01*
X521928Y224623D01*
X521922Y224580D01*
X521920Y224536D01*
D13*
X473412Y301751D02*
X461728Y301751D01*
X461728Y308242D02*
X468868Y301751D01*
X466272Y304347D02*
X473412Y308242D01*
X464324Y312630D02*
X461728Y315876D01*
X473412Y315876D01*
X473412Y319121D02*
X473412Y312630D01*
D15*
X655560Y415736D03*
D16*
X579460Y415736D01*
D15*
X579460Y415736D03*
D16*
X655560Y415736D01*
X579460Y415736D02*
X579460Y212736D01*
D15*
X579460Y212736D03*
D16*
X579460Y415736D01*
D15*
X579460Y415736D03*
D16*
X682460Y304536D02*
X682460Y244536D01*
D17*
X690560Y224536D03*
D12*
X690558Y224580D01*
X690552Y224623D01*
X690543Y224665D01*
X690530Y224707D01*
X690513Y224747D01*
X690493Y224786D01*
X690470Y224823D01*
X690443Y224857D01*
X690414Y224890D01*
X690381Y224919D01*
X690347Y224946D01*
X690310Y224969D01*
X690271Y224989D01*
X690231Y225006D01*
X690189Y225019D01*
X690147Y225028D01*
X690104Y225034D01*
X690060Y225036D01*
X690016Y225034D01*
X689973Y225028D01*
X689931Y225019D01*
X689889Y225006D01*
X689849Y224989D01*
X689810Y224969D01*
X689773Y224946D01*
X689739Y224919D01*
X689706Y224890D01*
X689677Y224857D01*
X689650Y224823D01*
X689627Y224786D01*
X689607Y224747D01*
X689590Y224707D01*
X689577Y224665D01*
X689568Y224623D01*
X689562Y224580D01*
X689560Y224536D01*
D17*
X689560Y224536D03*
D12*
X689562Y224492D01*
X689568Y224449D01*
X689577Y224407D01*
X689590Y224365D01*
X689607Y224325D01*
X689627Y224286D01*
X689650Y224249D01*
X689677Y224215D01*
X689706Y224182D01*
X689739Y224153D01*
X689773Y224126D01*
X689810Y224103D01*
X689849Y224083D01*
X689889Y224066D01*
X689931Y224053D01*
X689973Y224044D01*
X690016Y224038D01*
X690060Y224036D01*
X690104Y224038D01*
X690147Y224044D01*
X690189Y224053D01*
X690231Y224066D01*
X690271Y224083D01*
X690310Y224103D01*
X690347Y224126D01*
X690381Y224153D01*
X690414Y224182D01*
X690443Y224215D01*
X690470Y224249D01*
X690493Y224286D01*
X690513Y224325D01*
X690530Y224365D01*
X690543Y224407D01*
X690552Y224449D01*
X690558Y224492D01*
X690560Y224536D01*
D17*
X690560Y224536D03*
D12*
X690558Y224580D01*
X690552Y224623D01*
X690543Y224665D01*
X690530Y224707D01*
X690513Y224747D01*
X690493Y224786D01*
X690470Y224823D01*
X690443Y224857D01*
X690414Y224890D01*
X690381Y224919D01*
X690347Y224946D01*
X690310Y224969D01*
X690271Y224989D01*
X690231Y225006D01*
X690189Y225019D01*
X690147Y225028D01*
X690104Y225034D01*
X690060Y225036D01*
X690016Y225034D01*
X689973Y225028D01*
X689931Y225019D01*
X689889Y225006D01*
X689849Y224989D01*
X689810Y224969D01*
X689773Y224946D01*
X689739Y224919D01*
X689706Y224890D01*
X689677Y224857D01*
X689650Y224823D01*
X689627Y224786D01*
X689607Y224747D01*
X689590Y224707D01*
X689577Y224665D01*
X689568Y224623D01*
X689562Y224580D01*
X689560Y224536D01*
D13*
X641052Y301751D02*
X629368Y301751D01*
X629368Y308242D02*
X636508Y301751D01*
X633912Y304347D02*
X641052Y308242D01*
X632289Y319121D02*
X632182Y319119D01*
X632076Y319113D01*
X631970Y319103D01*
X631864Y319090D01*
X631758Y319072D01*
X631654Y319051D01*
X631550Y319026D01*
X631447Y318997D01*
X631346Y318965D01*
X631246Y318928D01*
X631147Y318888D01*
X631049Y318845D01*
X630953Y318798D01*
X630859Y318747D01*
X630767Y318693D01*
X630677Y318636D01*
X630589Y318576D01*
X630504Y318512D01*
X630421Y318445D01*
X630340Y318375D01*
X630262Y318303D01*
X630186Y318227D01*
X630114Y318149D01*
X630044Y318068D01*
X629977Y317985D01*
X629913Y317900D01*
X629853Y317812D01*
X629796Y317722D01*
X629742Y317630D01*
X629691Y317536D01*
X629644Y317440D01*
X629601Y317342D01*
X629561Y317243D01*
X629524Y317143D01*
X629492Y317042D01*
X629463Y316939D01*
X629438Y316835D01*
X629417Y316731D01*
X629399Y316625D01*
X629386Y316519D01*
X629376Y316413D01*
X629370Y316307D01*
X629368Y316200D01*
X629370Y316079D01*
X629376Y315958D01*
X629386Y315838D01*
X629399Y315717D01*
X629417Y315598D01*
X629438Y315478D01*
X629463Y315360D01*
X629492Y315243D01*
X629525Y315126D01*
X629561Y315011D01*
X629602Y314897D01*
X629645Y314784D01*
X629693Y314672D01*
X629744Y314563D01*
X629799Y314455D01*
X629857Y314348D01*
X629918Y314244D01*
X629983Y314142D01*
X630051Y314042D01*
X630122Y313944D01*
X630196Y313848D01*
X630273Y313755D01*
X630354Y313665D01*
X630437Y313577D01*
X630523Y313492D01*
X630612Y313409D01*
X630703Y313330D01*
X630797Y313253D01*
X630893Y313180D01*
X630991Y313110D01*
X631092Y313043D01*
X631195Y312979D01*
X631300Y312919D01*
X631407Y312861D01*
X631515Y312808D01*
X631625Y312758D01*
X631737Y312712D01*
X631850Y312669D01*
X631965Y312630D01*
X634561Y318147D02*
X634483Y318226D01*
X634403Y318302D01*
X634320Y318375D01*
X634234Y318445D01*
X634147Y318512D01*
X634056Y318576D01*
X633964Y318636D01*
X633870Y318694D01*
X633773Y318748D01*
X633675Y318798D01*
X633575Y318845D01*
X633474Y318889D01*
X633371Y318929D01*
X633266Y318965D01*
X633161Y318997D01*
X633054Y319026D01*
X632947Y319051D01*
X632838Y319073D01*
X632729Y319090D01*
X632620Y319104D01*
X632510Y319113D01*
X632399Y319119D01*
X632289Y319121D01*
X634561Y318148D02*
X641052Y312630D01*
X641052Y319121D01*
D15*
X818120Y415736D03*
D16*
X742020Y415736D01*
D15*
X742020Y415736D03*
D16*
X818120Y415736D01*
X742020Y415736D02*
X742020Y212736D01*
D15*
X742020Y212736D03*
D16*
X742020Y415736D01*
D15*
X742020Y415736D03*
D16*
X845020Y304536D02*
X845020Y244536D01*
D17*
X853120Y224536D03*
D12*
X853118Y224580D01*
X853112Y224623D01*
X853103Y224665D01*
X853090Y224707D01*
X853073Y224747D01*
X853053Y224786D01*
X853030Y224823D01*
X853003Y224857D01*
X852974Y224890D01*
X852941Y224919D01*
X852907Y224946D01*
X852870Y224969D01*
X852831Y224989D01*
X852791Y225006D01*
X852749Y225019D01*
X852707Y225028D01*
X852664Y225034D01*
X852620Y225036D01*
X852576Y225034D01*
X852533Y225028D01*
X852491Y225019D01*
X852449Y225006D01*
X852409Y224989D01*
X852370Y224969D01*
X852333Y224946D01*
X852299Y224919D01*
X852266Y224890D01*
X852237Y224857D01*
X852210Y224823D01*
X852187Y224786D01*
X852167Y224747D01*
X852150Y224707D01*
X852137Y224665D01*
X852128Y224623D01*
X852122Y224580D01*
X852120Y224536D01*
D17*
X852120Y224536D03*
D12*
X852122Y224492D01*
X852128Y224449D01*
X852137Y224407D01*
X852150Y224365D01*
X852167Y224325D01*
X852187Y224286D01*
X852210Y224249D01*
X852237Y224215D01*
X852266Y224182D01*
X852299Y224153D01*
X852333Y224126D01*
X852370Y224103D01*
X852409Y224083D01*
X852449Y224066D01*
X852491Y224053D01*
X852533Y224044D01*
X852576Y224038D01*
X852620Y224036D01*
X852664Y224038D01*
X852707Y224044D01*
X852749Y224053D01*
X852791Y224066D01*
X852831Y224083D01*
X852870Y224103D01*
X852907Y224126D01*
X852941Y224153D01*
X852974Y224182D01*
X853003Y224215D01*
X853030Y224249D01*
X853053Y224286D01*
X853073Y224325D01*
X853090Y224365D01*
X853103Y224407D01*
X853112Y224449D01*
X853118Y224492D01*
X853120Y224536D01*
D17*
X853120Y224536D03*
D12*
X853118Y224580D01*
X853112Y224623D01*
X853103Y224665D01*
X853090Y224707D01*
X853073Y224747D01*
X853053Y224786D01*
X853030Y224823D01*
X853003Y224857D01*
X852974Y224890D01*
X852941Y224919D01*
X852907Y224946D01*
X852870Y224969D01*
X852831Y224989D01*
X852791Y225006D01*
X852749Y225019D01*
X852707Y225028D01*
X852664Y225034D01*
X852620Y225036D01*
X852576Y225034D01*
X852533Y225028D01*
X852491Y225019D01*
X852449Y225006D01*
X852409Y224989D01*
X852370Y224969D01*
X852333Y224946D01*
X852299Y224919D01*
X852266Y224890D01*
X852237Y224857D01*
X852210Y224823D01*
X852187Y224786D01*
X852167Y224747D01*
X852150Y224707D01*
X852137Y224665D01*
X852128Y224623D01*
X852122Y224580D01*
X852120Y224536D01*
D13*
X803612Y301751D02*
X791928Y301751D01*
X791928Y308242D02*
X799068Y301751D01*
X796472Y304347D02*
X803612Y308242D01*
X803612Y312630D02*
X803612Y315876D01*
X803610Y315989D01*
X803604Y316102D01*
X803594Y316215D01*
X803580Y316328D01*
X803563Y316440D01*
X803541Y316551D01*
X803516Y316661D01*
X803486Y316771D01*
X803453Y316879D01*
X803416Y316986D01*
X803376Y317092D01*
X803331Y317196D01*
X803283Y317299D01*
X803232Y317400D01*
X803177Y317499D01*
X803119Y317596D01*
X803057Y317691D01*
X802992Y317784D01*
X802924Y317874D01*
X802853Y317962D01*
X802778Y318048D01*
X802701Y318131D01*
X802621Y318211D01*
X802538Y318288D01*
X802452Y318363D01*
X802364Y318434D01*
X802274Y318502D01*
X802181Y318567D01*
X802086Y318629D01*
X801989Y318687D01*
X801890Y318742D01*
X801789Y318793D01*
X801686Y318841D01*
X801582Y318886D01*
X801476Y318926D01*
X801369Y318963D01*
X801261Y318996D01*
X801151Y319026D01*
X801041Y319051D01*
X800930Y319073D01*
X800818Y319090D01*
X800705Y319104D01*
X800592Y319114D01*
X800479Y319120D01*
X800366Y319122D01*
X800253Y319120D01*
X800140Y319114D01*
X800027Y319104D01*
X799914Y319090D01*
X799802Y319073D01*
X799691Y319051D01*
X799581Y319026D01*
X799471Y318996D01*
X799363Y318963D01*
X799256Y318926D01*
X799150Y318886D01*
X799046Y318841D01*
X798943Y318793D01*
X798842Y318742D01*
X798743Y318687D01*
X798646Y318629D01*
X798551Y318567D01*
X798458Y318502D01*
X798368Y318434D01*
X798280Y318363D01*
X798194Y318288D01*
X798111Y318211D01*
X798031Y318131D01*
X797954Y318048D01*
X797879Y317962D01*
X797808Y317874D01*
X797740Y317784D01*
X797675Y317691D01*
X797613Y317596D01*
X797555Y317499D01*
X797500Y317400D01*
X797449Y317299D01*
X797401Y317196D01*
X797356Y317092D01*
X797316Y316986D01*
X797279Y316879D01*
X797246Y316771D01*
X797216Y316661D01*
X797191Y316551D01*
X797169Y316440D01*
X797152Y316328D01*
X797138Y316215D01*
X797128Y316102D01*
X797122Y315989D01*
X797120Y315876D01*
X791928Y316525D02*
X791928Y312630D01*
X791928Y316525D02*
X791930Y316626D01*
X791936Y316726D01*
X791946Y316826D01*
X791959Y316926D01*
X791977Y317025D01*
X791998Y317124D01*
X792023Y317221D01*
X792052Y317318D01*
X792085Y317413D01*
X792121Y317507D01*
X792161Y317599D01*
X792204Y317690D01*
X792251Y317779D01*
X792301Y317866D01*
X792355Y317952D01*
X792412Y318035D01*
X792472Y318115D01*
X792535Y318194D01*
X792602Y318270D01*
X792671Y318343D01*
X792743Y318413D01*
X792817Y318481D01*
X792894Y318546D01*
X792974Y318607D01*
X793056Y318666D01*
X793140Y318721D01*
X793226Y318773D01*
X793314Y318822D01*
X793404Y318867D01*
X793496Y318909D01*
X793589Y318947D01*
X793684Y318981D01*
X793779Y319012D01*
X793876Y319039D01*
X793974Y319062D01*
X794073Y319082D01*
X794173Y319097D01*
X794273Y319109D01*
X794373Y319117D01*
X794474Y319121D01*
X794574Y319121D01*
X794675Y319117D01*
X794775Y319109D01*
X794875Y319097D01*
X794975Y319082D01*
X795074Y319062D01*
X795172Y319039D01*
X795269Y319012D01*
X795364Y318981D01*
X795459Y318947D01*
X795552Y318909D01*
X795644Y318867D01*
X795734Y318822D01*
X795822Y318773D01*
X795908Y318721D01*
X795992Y318666D01*
X796074Y318607D01*
X796154Y318546D01*
X796231Y318481D01*
X796305Y318413D01*
X796377Y318343D01*
X796446Y318270D01*
X796513Y318194D01*
X796576Y318115D01*
X796636Y318035D01*
X796693Y317952D01*
X796747Y317866D01*
X796797Y317779D01*
X796844Y317690D01*
X796887Y317599D01*
X796927Y317507D01*
X796963Y317413D01*
X796996Y317318D01*
X797025Y317221D01*
X797050Y317124D01*
X797071Y317025D01*
X797089Y316926D01*
X797102Y316826D01*
X797112Y316726D01*
X797118Y316626D01*
X797120Y316525D01*
X797121Y316525D02*
X797121Y313929D01*
D15*
X975600Y415736D03*
D16*
X899500Y415736D01*
D15*
X899500Y415736D03*
D16*
X975600Y415736D01*
X899500Y415736D02*
X899500Y212736D01*
D15*
X899500Y212736D03*
D16*
X899500Y415736D01*
D15*
X899500Y415736D03*
D16*
X1002500Y304536D02*
X1002500Y244536D01*
D17*
X1010600Y224536D03*
D12*
X1010598Y224580D01*
X1010592Y224623D01*
X1010583Y224665D01*
X1010570Y224707D01*
X1010553Y224747D01*
X1010533Y224786D01*
X1010510Y224823D01*
X1010483Y224857D01*
X1010454Y224890D01*
X1010421Y224919D01*
X1010387Y224946D01*
X1010350Y224969D01*
X1010311Y224989D01*
X1010271Y225006D01*
X1010229Y225019D01*
X1010187Y225028D01*
X1010144Y225034D01*
X1010100Y225036D01*
X1010056Y225034D01*
X1010013Y225028D01*
X1009971Y225019D01*
X1009929Y225006D01*
X1009889Y224989D01*
X1009850Y224969D01*
X1009813Y224946D01*
X1009779Y224919D01*
X1009746Y224890D01*
X1009717Y224857D01*
X1009690Y224823D01*
X1009667Y224786D01*
X1009647Y224747D01*
X1009630Y224707D01*
X1009617Y224665D01*
X1009608Y224623D01*
X1009602Y224580D01*
X1009600Y224536D01*
D17*
X1009600Y224536D03*
D12*
X1009602Y224492D01*
X1009608Y224449D01*
X1009617Y224407D01*
X1009630Y224365D01*
X1009647Y224325D01*
X1009667Y224286D01*
X1009690Y224249D01*
X1009717Y224215D01*
X1009746Y224182D01*
X1009779Y224153D01*
X1009813Y224126D01*
X1009850Y224103D01*
X1009889Y224083D01*
X1009929Y224066D01*
X1009971Y224053D01*
X1010013Y224044D01*
X1010056Y224038D01*
X1010100Y224036D01*
X1010144Y224038D01*
X1010187Y224044D01*
X1010229Y224053D01*
X1010271Y224066D01*
X1010311Y224083D01*
X1010350Y224103D01*
X1010387Y224126D01*
X1010421Y224153D01*
X1010454Y224182D01*
X1010483Y224215D01*
X1010510Y224249D01*
X1010533Y224286D01*
X1010553Y224325D01*
X1010570Y224365D01*
X1010583Y224407D01*
X1010592Y224449D01*
X1010598Y224492D01*
X1010600Y224536D01*
D17*
X1010600Y224536D03*
D12*
X1010598Y224580D01*
X1010592Y224623D01*
X1010583Y224665D01*
X1010570Y224707D01*
X1010553Y224747D01*
X1010533Y224786D01*
X1010510Y224823D01*
X1010483Y224857D01*
X1010454Y224890D01*
X1010421Y224919D01*
X1010387Y224946D01*
X1010350Y224969D01*
X1010311Y224989D01*
X1010271Y225006D01*
X1010229Y225019D01*
X1010187Y225028D01*
X1010144Y225034D01*
X1010100Y225036D01*
X1010056Y225034D01*
X1010013Y225028D01*
X1009971Y225019D01*
X1009929Y225006D01*
X1009889Y224989D01*
X1009850Y224969D01*
X1009813Y224946D01*
X1009779Y224919D01*
X1009746Y224890D01*
X1009717Y224857D01*
X1009690Y224823D01*
X1009667Y224786D01*
X1009647Y224747D01*
X1009630Y224707D01*
X1009617Y224665D01*
X1009608Y224623D01*
X1009602Y224580D01*
X1009600Y224536D01*
D13*
X961092Y301751D02*
X949408Y301751D01*
X949408Y308242D02*
X956548Y301751D01*
X953952Y304347D02*
X961092Y308242D01*
X958496Y312630D02*
X949408Y315227D01*
X958496Y312630D02*
X958496Y319121D01*
X955899Y317174D02*
X961092Y317174D01*
D10*
X559320Y451776D02*
X397320Y451776D01*
X397320Y516776D01*
X397320Y526776D01*
X559320Y526776D01*
X559320Y516776D01*
X559320Y451776D01*
X559320Y516776D02*
X397320Y516776D01*
D11*
X467692Y463860D02*
X467692Y461716D01*
X467691Y463860D02*
X467693Y463931D01*
X467699Y464003D01*
X467708Y464073D01*
X467721Y464143D01*
X467738Y464213D01*
X467759Y464281D01*
X467783Y464348D01*
X467811Y464414D01*
X467842Y464478D01*
X467877Y464541D01*
X467915Y464601D01*
X467956Y464660D01*
X468000Y464716D01*
X468047Y464770D01*
X468096Y464821D01*
X468149Y464869D01*
X468204Y464915D01*
X468261Y464957D01*
X468321Y464997D01*
X468382Y465033D01*
X468446Y465066D01*
X468511Y465095D01*
X468577Y465121D01*
X468645Y465144D01*
X468714Y465163D01*
X468784Y465178D01*
X468854Y465189D01*
X468925Y465197D01*
X468996Y465201D01*
X469068Y465201D01*
X469139Y465197D01*
X469210Y465189D01*
X469280Y465178D01*
X469350Y465163D01*
X469419Y465144D01*
X469487Y465121D01*
X469553Y465095D01*
X469618Y465066D01*
X469682Y465033D01*
X469743Y464997D01*
X469803Y464957D01*
X469860Y464915D01*
X469915Y464869D01*
X469968Y464821D01*
X470017Y464770D01*
X470064Y464716D01*
X470108Y464660D01*
X470149Y464601D01*
X470187Y464541D01*
X470222Y464478D01*
X470253Y464414D01*
X470281Y464348D01*
X470305Y464281D01*
X470326Y464213D01*
X470343Y464143D01*
X470356Y464073D01*
X470365Y464003D01*
X470371Y463931D01*
X470373Y463860D01*
X470373Y461716D01*
X470371Y461645D01*
X470365Y461573D01*
X470356Y461503D01*
X470343Y461433D01*
X470326Y461363D01*
X470305Y461295D01*
X470281Y461228D01*
X470253Y461162D01*
X470222Y461098D01*
X470187Y461035D01*
X470149Y460975D01*
X470108Y460916D01*
X470064Y460860D01*
X470017Y460806D01*
X469968Y460755D01*
X469915Y460707D01*
X469860Y460661D01*
X469803Y460619D01*
X469743Y460579D01*
X469682Y460543D01*
X469618Y460510D01*
X469553Y460481D01*
X469487Y460455D01*
X469419Y460432D01*
X469350Y460413D01*
X469280Y460398D01*
X469210Y460387D01*
X469139Y460379D01*
X469068Y460375D01*
X468996Y460375D01*
X468925Y460379D01*
X468854Y460387D01*
X468784Y460398D01*
X468714Y460413D01*
X468645Y460432D01*
X468577Y460455D01*
X468511Y460481D01*
X468446Y460510D01*
X468382Y460543D01*
X468321Y460579D01*
X468261Y460619D01*
X468204Y460661D01*
X468149Y460707D01*
X468096Y460755D01*
X468047Y460806D01*
X468000Y460860D01*
X467956Y460916D01*
X467915Y460975D01*
X467877Y461035D01*
X467842Y461098D01*
X467811Y461162D01*
X467783Y461228D01*
X467759Y461295D01*
X467738Y461363D01*
X467721Y461433D01*
X467708Y461503D01*
X467699Y461573D01*
X467693Y461645D01*
X467691Y461716D01*
X473361Y461716D02*
X473361Y465201D01*
X473360Y461716D02*
X473362Y461645D01*
X473368Y461573D01*
X473377Y461503D01*
X473390Y461433D01*
X473407Y461363D01*
X473428Y461295D01*
X473452Y461228D01*
X473480Y461162D01*
X473511Y461098D01*
X473546Y461035D01*
X473584Y460975D01*
X473625Y460916D01*
X473669Y460860D01*
X473716Y460806D01*
X473765Y460755D01*
X473818Y460707D01*
X473873Y460661D01*
X473930Y460619D01*
X473990Y460579D01*
X474051Y460543D01*
X474115Y460510D01*
X474180Y460481D01*
X474246Y460455D01*
X474314Y460432D01*
X474383Y460413D01*
X474453Y460398D01*
X474523Y460387D01*
X474594Y460379D01*
X474665Y460375D01*
X474737Y460375D01*
X474808Y460379D01*
X474879Y460387D01*
X474949Y460398D01*
X475019Y460413D01*
X475088Y460432D01*
X475156Y460455D01*
X475222Y460481D01*
X475287Y460510D01*
X475351Y460543D01*
X475412Y460579D01*
X475472Y460619D01*
X475529Y460661D01*
X475584Y460707D01*
X475637Y460755D01*
X475686Y460806D01*
X475733Y460860D01*
X475777Y460916D01*
X475818Y460975D01*
X475856Y461035D01*
X475891Y461098D01*
X475922Y461162D01*
X475950Y461228D01*
X475974Y461295D01*
X475995Y461363D01*
X476012Y461433D01*
X476025Y461503D01*
X476034Y461573D01*
X476040Y461645D01*
X476042Y461716D01*
X476042Y465201D01*
X480005Y465201D02*
X480005Y460375D01*
X478664Y465201D02*
X481345Y465201D01*
X483504Y459839D02*
X485649Y459839D01*
X488174Y464129D02*
X489514Y465201D01*
X489514Y460375D01*
X488174Y460375D02*
X490855Y460375D01*
D10*
X562420Y451776D02*
X724420Y451776D01*
X562420Y451776D02*
X562420Y516776D01*
X562420Y526776D01*
X724420Y526776D01*
X724420Y516776D01*
X724420Y451776D01*
X724420Y516776D02*
X562420Y516776D01*
D11*
X632792Y463860D02*
X632792Y461716D01*
X632791Y463860D02*
X632793Y463931D01*
X632799Y464003D01*
X632808Y464073D01*
X632821Y464143D01*
X632838Y464213D01*
X632859Y464281D01*
X632883Y464348D01*
X632911Y464414D01*
X632942Y464478D01*
X632977Y464541D01*
X633015Y464601D01*
X633056Y464660D01*
X633100Y464716D01*
X633147Y464770D01*
X633196Y464821D01*
X633249Y464869D01*
X633304Y464915D01*
X633361Y464957D01*
X633421Y464997D01*
X633482Y465033D01*
X633546Y465066D01*
X633611Y465095D01*
X633677Y465121D01*
X633745Y465144D01*
X633814Y465163D01*
X633884Y465178D01*
X633954Y465189D01*
X634025Y465197D01*
X634096Y465201D01*
X634168Y465201D01*
X634239Y465197D01*
X634310Y465189D01*
X634380Y465178D01*
X634450Y465163D01*
X634519Y465144D01*
X634587Y465121D01*
X634653Y465095D01*
X634718Y465066D01*
X634782Y465033D01*
X634843Y464997D01*
X634903Y464957D01*
X634960Y464915D01*
X635015Y464869D01*
X635068Y464821D01*
X635117Y464770D01*
X635164Y464716D01*
X635208Y464660D01*
X635249Y464601D01*
X635287Y464541D01*
X635322Y464478D01*
X635353Y464414D01*
X635381Y464348D01*
X635405Y464281D01*
X635426Y464213D01*
X635443Y464143D01*
X635456Y464073D01*
X635465Y464003D01*
X635471Y463931D01*
X635473Y463860D01*
X635473Y461716D01*
X635471Y461645D01*
X635465Y461573D01*
X635456Y461503D01*
X635443Y461433D01*
X635426Y461363D01*
X635405Y461295D01*
X635381Y461228D01*
X635353Y461162D01*
X635322Y461098D01*
X635287Y461035D01*
X635249Y460975D01*
X635208Y460916D01*
X635164Y460860D01*
X635117Y460806D01*
X635068Y460755D01*
X635015Y460707D01*
X634960Y460661D01*
X634903Y460619D01*
X634843Y460579D01*
X634782Y460543D01*
X634718Y460510D01*
X634653Y460481D01*
X634587Y460455D01*
X634519Y460432D01*
X634450Y460413D01*
X634380Y460398D01*
X634310Y460387D01*
X634239Y460379D01*
X634168Y460375D01*
X634096Y460375D01*
X634025Y460379D01*
X633954Y460387D01*
X633884Y460398D01*
X633814Y460413D01*
X633745Y460432D01*
X633677Y460455D01*
X633611Y460481D01*
X633546Y460510D01*
X633482Y460543D01*
X633421Y460579D01*
X633361Y460619D01*
X633304Y460661D01*
X633249Y460707D01*
X633196Y460755D01*
X633147Y460806D01*
X633100Y460860D01*
X633056Y460916D01*
X633015Y460975D01*
X632977Y461035D01*
X632942Y461098D01*
X632911Y461162D01*
X632883Y461228D01*
X632859Y461295D01*
X632838Y461363D01*
X632821Y461433D01*
X632808Y461503D01*
X632799Y461573D01*
X632793Y461645D01*
X632791Y461716D01*
X638461Y461716D02*
X638461Y465201D01*
X638460Y461716D02*
X638462Y461645D01*
X638468Y461573D01*
X638477Y461503D01*
X638490Y461433D01*
X638507Y461363D01*
X638528Y461295D01*
X638552Y461228D01*
X638580Y461162D01*
X638611Y461098D01*
X638646Y461035D01*
X638684Y460975D01*
X638725Y460916D01*
X638769Y460860D01*
X638816Y460806D01*
X638865Y460755D01*
X638918Y460707D01*
X638973Y460661D01*
X639030Y460619D01*
X639090Y460579D01*
X639151Y460543D01*
X639215Y460510D01*
X639280Y460481D01*
X639346Y460455D01*
X639414Y460432D01*
X639483Y460413D01*
X639553Y460398D01*
X639623Y460387D01*
X639694Y460379D01*
X639765Y460375D01*
X639837Y460375D01*
X639908Y460379D01*
X639979Y460387D01*
X640049Y460398D01*
X640119Y460413D01*
X640188Y460432D01*
X640256Y460455D01*
X640322Y460481D01*
X640387Y460510D01*
X640451Y460543D01*
X640512Y460579D01*
X640572Y460619D01*
X640629Y460661D01*
X640684Y460707D01*
X640737Y460755D01*
X640786Y460806D01*
X640833Y460860D01*
X640877Y460916D01*
X640918Y460975D01*
X640956Y461035D01*
X640991Y461098D01*
X641022Y461162D01*
X641050Y461228D01*
X641074Y461295D01*
X641095Y461363D01*
X641112Y461433D01*
X641125Y461503D01*
X641134Y461573D01*
X641140Y461645D01*
X641142Y461716D01*
X641142Y465201D01*
X645105Y465201D02*
X645105Y460375D01*
X643764Y465201D02*
X646445Y465201D01*
X648604Y459839D02*
X650749Y459839D01*
X655956Y463994D02*
X655954Y464062D01*
X655948Y464129D01*
X655939Y464196D01*
X655926Y464263D01*
X655909Y464328D01*
X655888Y464393D01*
X655864Y464456D01*
X655836Y464518D01*
X655805Y464578D01*
X655771Y464636D01*
X655733Y464692D01*
X655693Y464747D01*
X655649Y464798D01*
X655602Y464847D01*
X655553Y464894D01*
X655502Y464938D01*
X655447Y464978D01*
X655391Y465016D01*
X655333Y465050D01*
X655273Y465081D01*
X655211Y465109D01*
X655148Y465133D01*
X655083Y465154D01*
X655018Y465171D01*
X654951Y465184D01*
X654884Y465193D01*
X654817Y465199D01*
X654749Y465201D01*
X654671Y465199D01*
X654593Y465193D01*
X654516Y465183D01*
X654439Y465170D01*
X654363Y465152D01*
X654288Y465131D01*
X654214Y465106D01*
X654142Y465077D01*
X654071Y465045D01*
X654002Y465009D01*
X653934Y464970D01*
X653869Y464927D01*
X653806Y464881D01*
X653745Y464832D01*
X653687Y464780D01*
X653632Y464725D01*
X653579Y464668D01*
X653530Y464608D01*
X653483Y464545D01*
X653440Y464481D01*
X653400Y464414D01*
X653363Y464345D01*
X653330Y464274D01*
X653300Y464202D01*
X653274Y464129D01*
X655553Y463056D02*
X655602Y463105D01*
X655649Y463157D01*
X655692Y463212D01*
X655733Y463269D01*
X655771Y463328D01*
X655805Y463389D01*
X655836Y463452D01*
X655864Y463516D01*
X655888Y463582D01*
X655908Y463648D01*
X655925Y463716D01*
X655938Y463785D01*
X655947Y463854D01*
X655953Y463924D01*
X655955Y463994D01*
X655553Y463056D02*
X653274Y460375D01*
X655955Y460375D01*
D10*
X727520Y451776D02*
X889520Y451776D01*
X727520Y451776D02*
X727520Y516776D01*
X727520Y526776D01*
X889520Y526776D01*
X889520Y516776D01*
X889520Y451776D01*
X889520Y516776D02*
X727520Y516776D01*
D11*
X797892Y463860D02*
X797892Y461716D01*
X797891Y463860D02*
X797893Y463931D01*
X797899Y464003D01*
X797908Y464073D01*
X797921Y464143D01*
X797938Y464213D01*
X797959Y464281D01*
X797983Y464348D01*
X798011Y464414D01*
X798042Y464478D01*
X798077Y464541D01*
X798115Y464601D01*
X798156Y464660D01*
X798200Y464716D01*
X798247Y464770D01*
X798296Y464821D01*
X798349Y464869D01*
X798404Y464915D01*
X798461Y464957D01*
X798521Y464997D01*
X798582Y465033D01*
X798646Y465066D01*
X798711Y465095D01*
X798777Y465121D01*
X798845Y465144D01*
X798914Y465163D01*
X798984Y465178D01*
X799054Y465189D01*
X799125Y465197D01*
X799196Y465201D01*
X799268Y465201D01*
X799339Y465197D01*
X799410Y465189D01*
X799480Y465178D01*
X799550Y465163D01*
X799619Y465144D01*
X799687Y465121D01*
X799753Y465095D01*
X799818Y465066D01*
X799882Y465033D01*
X799943Y464997D01*
X800003Y464957D01*
X800060Y464915D01*
X800115Y464869D01*
X800168Y464821D01*
X800217Y464770D01*
X800264Y464716D01*
X800308Y464660D01*
X800349Y464601D01*
X800387Y464541D01*
X800422Y464478D01*
X800453Y464414D01*
X800481Y464348D01*
X800505Y464281D01*
X800526Y464213D01*
X800543Y464143D01*
X800556Y464073D01*
X800565Y464003D01*
X800571Y463931D01*
X800573Y463860D01*
X800573Y461716D01*
X800571Y461645D01*
X800565Y461573D01*
X800556Y461503D01*
X800543Y461433D01*
X800526Y461363D01*
X800505Y461295D01*
X800481Y461228D01*
X800453Y461162D01*
X800422Y461098D01*
X800387Y461035D01*
X800349Y460975D01*
X800308Y460916D01*
X800264Y460860D01*
X800217Y460806D01*
X800168Y460755D01*
X800115Y460707D01*
X800060Y460661D01*
X800003Y460619D01*
X799943Y460579D01*
X799882Y460543D01*
X799818Y460510D01*
X799753Y460481D01*
X799687Y460455D01*
X799619Y460432D01*
X799550Y460413D01*
X799480Y460398D01*
X799410Y460387D01*
X799339Y460379D01*
X799268Y460375D01*
X799196Y460375D01*
X799125Y460379D01*
X799054Y460387D01*
X798984Y460398D01*
X798914Y460413D01*
X798845Y460432D01*
X798777Y460455D01*
X798711Y460481D01*
X798646Y460510D01*
X798582Y460543D01*
X798521Y460579D01*
X798461Y460619D01*
X798404Y460661D01*
X798349Y460707D01*
X798296Y460755D01*
X798247Y460806D01*
X798200Y460860D01*
X798156Y460916D01*
X798115Y460975D01*
X798077Y461035D01*
X798042Y461098D01*
X798011Y461162D01*
X797983Y461228D01*
X797959Y461295D01*
X797938Y461363D01*
X797921Y461433D01*
X797908Y461503D01*
X797899Y461573D01*
X797893Y461645D01*
X797891Y461716D01*
X803561Y461716D02*
X803561Y465201D01*
X803560Y461716D02*
X803562Y461645D01*
X803568Y461573D01*
X803577Y461503D01*
X803590Y461433D01*
X803607Y461363D01*
X803628Y461295D01*
X803652Y461228D01*
X803680Y461162D01*
X803711Y461098D01*
X803746Y461035D01*
X803784Y460975D01*
X803825Y460916D01*
X803869Y460860D01*
X803916Y460806D01*
X803965Y460755D01*
X804018Y460707D01*
X804073Y460661D01*
X804130Y460619D01*
X804190Y460579D01*
X804251Y460543D01*
X804315Y460510D01*
X804380Y460481D01*
X804446Y460455D01*
X804514Y460432D01*
X804583Y460413D01*
X804653Y460398D01*
X804723Y460387D01*
X804794Y460379D01*
X804865Y460375D01*
X804937Y460375D01*
X805008Y460379D01*
X805079Y460387D01*
X805149Y460398D01*
X805219Y460413D01*
X805288Y460432D01*
X805356Y460455D01*
X805422Y460481D01*
X805487Y460510D01*
X805551Y460543D01*
X805612Y460579D01*
X805672Y460619D01*
X805729Y460661D01*
X805784Y460707D01*
X805837Y460755D01*
X805886Y460806D01*
X805933Y460860D01*
X805977Y460916D01*
X806018Y460975D01*
X806056Y461035D01*
X806091Y461098D01*
X806122Y461162D01*
X806150Y461228D01*
X806174Y461295D01*
X806195Y461363D01*
X806212Y461433D01*
X806225Y461503D01*
X806234Y461573D01*
X806240Y461645D01*
X806242Y461716D01*
X806242Y465201D01*
X810205Y465201D02*
X810205Y460375D01*
X808864Y465201D02*
X811545Y465201D01*
X813704Y459839D02*
X815849Y459839D01*
X818374Y460375D02*
X819714Y460375D01*
X819785Y460377D01*
X819857Y460383D01*
X819927Y460392D01*
X819997Y460405D01*
X820067Y460422D01*
X820135Y460443D01*
X820202Y460467D01*
X820268Y460495D01*
X820332Y460526D01*
X820395Y460561D01*
X820455Y460599D01*
X820514Y460640D01*
X820570Y460684D01*
X820624Y460731D01*
X820675Y460780D01*
X820723Y460833D01*
X820769Y460888D01*
X820811Y460945D01*
X820851Y461005D01*
X820887Y461066D01*
X820920Y461130D01*
X820949Y461195D01*
X820975Y461261D01*
X820998Y461329D01*
X821017Y461398D01*
X821032Y461468D01*
X821043Y461538D01*
X821051Y461609D01*
X821055Y461680D01*
X821055Y461752D01*
X821051Y461823D01*
X821043Y461894D01*
X821032Y461964D01*
X821017Y462034D01*
X820998Y462103D01*
X820975Y462171D01*
X820949Y462237D01*
X820920Y462302D01*
X820887Y462366D01*
X820851Y462427D01*
X820811Y462487D01*
X820769Y462544D01*
X820723Y462599D01*
X820675Y462652D01*
X820624Y462701D01*
X820570Y462748D01*
X820514Y462792D01*
X820455Y462833D01*
X820395Y462871D01*
X820332Y462906D01*
X820268Y462937D01*
X820202Y462965D01*
X820135Y462989D01*
X820067Y463010D01*
X819997Y463027D01*
X819927Y463040D01*
X819857Y463049D01*
X819785Y463055D01*
X819714Y463057D01*
X819983Y465201D02*
X818374Y465201D01*
X819983Y465201D02*
X820048Y465199D01*
X820112Y465193D01*
X820176Y465183D01*
X820240Y465170D01*
X820302Y465152D01*
X820363Y465131D01*
X820423Y465107D01*
X820481Y465078D01*
X820538Y465046D01*
X820592Y465011D01*
X820644Y464973D01*
X820694Y464931D01*
X820741Y464887D01*
X820785Y464840D01*
X820827Y464790D01*
X820865Y464738D01*
X820900Y464684D01*
X820932Y464627D01*
X820961Y464569D01*
X820985Y464509D01*
X821006Y464448D01*
X821024Y464386D01*
X821037Y464322D01*
X821047Y464258D01*
X821053Y464194D01*
X821055Y464129D01*
X821053Y464064D01*
X821047Y464000D01*
X821037Y463936D01*
X821024Y463872D01*
X821006Y463810D01*
X820985Y463749D01*
X820961Y463689D01*
X820932Y463631D01*
X820900Y463574D01*
X820865Y463520D01*
X820827Y463468D01*
X820785Y463418D01*
X820741Y463371D01*
X820694Y463327D01*
X820644Y463285D01*
X820592Y463247D01*
X820538Y463212D01*
X820481Y463180D01*
X820423Y463151D01*
X820363Y463127D01*
X820302Y463106D01*
X820240Y463088D01*
X820176Y463075D01*
X820112Y463065D01*
X820048Y463059D01*
X819983Y463057D01*
X819983Y463056D02*
X818910Y463056D01*
D10*
X892620Y451776D02*
X1054620Y451776D01*
X892620Y451776D02*
X892620Y516776D01*
X892620Y526776D01*
X1054620Y526776D01*
X1054620Y516776D01*
X1054620Y451776D01*
X1054620Y516776D02*
X892620Y516776D01*
D11*
X962992Y463860D02*
X962992Y461716D01*
X962991Y463860D02*
X962993Y463931D01*
X962999Y464003D01*
X963008Y464073D01*
X963021Y464143D01*
X963038Y464213D01*
X963059Y464281D01*
X963083Y464348D01*
X963111Y464414D01*
X963142Y464478D01*
X963177Y464541D01*
X963215Y464601D01*
X963256Y464660D01*
X963300Y464716D01*
X963347Y464770D01*
X963396Y464821D01*
X963449Y464869D01*
X963504Y464915D01*
X963561Y464957D01*
X963621Y464997D01*
X963682Y465033D01*
X963746Y465066D01*
X963811Y465095D01*
X963877Y465121D01*
X963945Y465144D01*
X964014Y465163D01*
X964084Y465178D01*
X964154Y465189D01*
X964225Y465197D01*
X964296Y465201D01*
X964368Y465201D01*
X964439Y465197D01*
X964510Y465189D01*
X964580Y465178D01*
X964650Y465163D01*
X964719Y465144D01*
X964787Y465121D01*
X964853Y465095D01*
X964918Y465066D01*
X964982Y465033D01*
X965043Y464997D01*
X965103Y464957D01*
X965160Y464915D01*
X965215Y464869D01*
X965268Y464821D01*
X965317Y464770D01*
X965364Y464716D01*
X965408Y464660D01*
X965449Y464601D01*
X965487Y464541D01*
X965522Y464478D01*
X965553Y464414D01*
X965581Y464348D01*
X965605Y464281D01*
X965626Y464213D01*
X965643Y464143D01*
X965656Y464073D01*
X965665Y464003D01*
X965671Y463931D01*
X965673Y463860D01*
X965673Y461716D01*
X965671Y461645D01*
X965665Y461573D01*
X965656Y461503D01*
X965643Y461433D01*
X965626Y461363D01*
X965605Y461295D01*
X965581Y461228D01*
X965553Y461162D01*
X965522Y461098D01*
X965487Y461035D01*
X965449Y460975D01*
X965408Y460916D01*
X965364Y460860D01*
X965317Y460806D01*
X965268Y460755D01*
X965215Y460707D01*
X965160Y460661D01*
X965103Y460619D01*
X965043Y460579D01*
X964982Y460543D01*
X964918Y460510D01*
X964853Y460481D01*
X964787Y460455D01*
X964719Y460432D01*
X964650Y460413D01*
X964580Y460398D01*
X964510Y460387D01*
X964439Y460379D01*
X964368Y460375D01*
X964296Y460375D01*
X964225Y460379D01*
X964154Y460387D01*
X964084Y460398D01*
X964014Y460413D01*
X963945Y460432D01*
X963877Y460455D01*
X963811Y460481D01*
X963746Y460510D01*
X963682Y460543D01*
X963621Y460579D01*
X963561Y460619D01*
X963504Y460661D01*
X963449Y460707D01*
X963396Y460755D01*
X963347Y460806D01*
X963300Y460860D01*
X963256Y460916D01*
X963215Y460975D01*
X963177Y461035D01*
X963142Y461098D01*
X963111Y461162D01*
X963083Y461228D01*
X963059Y461295D01*
X963038Y461363D01*
X963021Y461433D01*
X963008Y461503D01*
X962999Y461573D01*
X962993Y461645D01*
X962991Y461716D01*
X968661Y461716D02*
X968661Y465201D01*
X968660Y461716D02*
X968662Y461645D01*
X968668Y461573D01*
X968677Y461503D01*
X968690Y461433D01*
X968707Y461363D01*
X968728Y461295D01*
X968752Y461228D01*
X968780Y461162D01*
X968811Y461098D01*
X968846Y461035D01*
X968884Y460975D01*
X968925Y460916D01*
X968969Y460860D01*
X969016Y460806D01*
X969065Y460755D01*
X969118Y460707D01*
X969173Y460661D01*
X969230Y460619D01*
X969290Y460579D01*
X969351Y460543D01*
X969415Y460510D01*
X969480Y460481D01*
X969546Y460455D01*
X969614Y460432D01*
X969683Y460413D01*
X969753Y460398D01*
X969823Y460387D01*
X969894Y460379D01*
X969965Y460375D01*
X970037Y460375D01*
X970108Y460379D01*
X970179Y460387D01*
X970249Y460398D01*
X970319Y460413D01*
X970388Y460432D01*
X970456Y460455D01*
X970522Y460481D01*
X970587Y460510D01*
X970651Y460543D01*
X970712Y460579D01*
X970772Y460619D01*
X970829Y460661D01*
X970884Y460707D01*
X970937Y460755D01*
X970986Y460806D01*
X971033Y460860D01*
X971077Y460916D01*
X971118Y460975D01*
X971156Y461035D01*
X971191Y461098D01*
X971222Y461162D01*
X971250Y461228D01*
X971274Y461295D01*
X971295Y461363D01*
X971312Y461433D01*
X971325Y461503D01*
X971334Y461573D01*
X971340Y461645D01*
X971342Y461716D01*
X971342Y465201D01*
X975305Y465201D02*
X975305Y460375D01*
X973964Y465201D02*
X976645Y465201D01*
X978804Y459839D02*
X980949Y459839D01*
X983474Y461447D02*
X984546Y465201D01*
X983474Y461447D02*
X986155Y461447D01*
X985351Y462520D02*
X985351Y460375D01*
D16*
X366940Y482756D02*
X366940Y102756D01*
X136940Y102756D01*
X136940Y482756D01*
X366940Y482756D01*
D17*
X282940Y487756D03*
D12*
X282938Y487818D01*
X282932Y487879D01*
X282923Y487940D01*
X282910Y488000D01*
X282893Y488059D01*
X282872Y488117D01*
X282848Y488174D01*
X282821Y488229D01*
X282790Y488282D01*
X282756Y488334D01*
X282719Y488383D01*
X282679Y488430D01*
X282636Y488474D01*
X282591Y488515D01*
X282543Y488554D01*
X282492Y488590D01*
X282440Y488622D01*
X282386Y488651D01*
X282330Y488677D01*
X282272Y488699D01*
X282214Y488718D01*
X282154Y488733D01*
X282093Y488744D01*
X282032Y488752D01*
X281971Y488756D01*
X281909Y488756D01*
X281848Y488752D01*
X281787Y488744D01*
X281726Y488733D01*
X281666Y488718D01*
X281608Y488699D01*
X281550Y488677D01*
X281494Y488651D01*
X281440Y488622D01*
X281388Y488590D01*
X281337Y488554D01*
X281289Y488515D01*
X281244Y488474D01*
X281201Y488430D01*
X281161Y488383D01*
X281124Y488334D01*
X281090Y488282D01*
X281059Y488229D01*
X281032Y488174D01*
X281008Y488117D01*
X280987Y488059D01*
X280970Y488000D01*
X280957Y487940D01*
X280948Y487879D01*
X280942Y487818D01*
X280940Y487756D01*
D17*
X280940Y487756D03*
D12*
X280942Y487694D01*
X280948Y487633D01*
X280957Y487572D01*
X280970Y487512D01*
X280987Y487453D01*
X281008Y487395D01*
X281032Y487338D01*
X281059Y487283D01*
X281090Y487230D01*
X281124Y487178D01*
X281161Y487129D01*
X281201Y487082D01*
X281244Y487038D01*
X281289Y486997D01*
X281337Y486958D01*
X281388Y486922D01*
X281440Y486890D01*
X281494Y486861D01*
X281550Y486835D01*
X281608Y486813D01*
X281666Y486794D01*
X281726Y486779D01*
X281787Y486768D01*
X281848Y486760D01*
X281909Y486756D01*
X281971Y486756D01*
X282032Y486760D01*
X282093Y486768D01*
X282154Y486779D01*
X282214Y486794D01*
X282272Y486813D01*
X282330Y486835D01*
X282386Y486861D01*
X282440Y486890D01*
X282492Y486922D01*
X282543Y486958D01*
X282591Y486997D01*
X282636Y487038D01*
X282679Y487082D01*
X282719Y487129D01*
X282756Y487178D01*
X282790Y487230D01*
X282821Y487283D01*
X282848Y487338D01*
X282872Y487395D01*
X282893Y487453D01*
X282910Y487512D01*
X282923Y487572D01*
X282932Y487633D01*
X282938Y487694D01*
X282940Y487756D01*
D13*
X217142Y281737D02*
X205458Y281737D01*
X205458Y284982D01*
X205460Y285095D01*
X205466Y285208D01*
X205476Y285321D01*
X205490Y285434D01*
X205507Y285546D01*
X205529Y285657D01*
X205554Y285767D01*
X205584Y285877D01*
X205617Y285985D01*
X205654Y286092D01*
X205694Y286198D01*
X205739Y286302D01*
X205787Y286405D01*
X205838Y286506D01*
X205893Y286605D01*
X205951Y286702D01*
X206013Y286797D01*
X206078Y286890D01*
X206146Y286980D01*
X206217Y287068D01*
X206292Y287154D01*
X206369Y287237D01*
X206449Y287317D01*
X206532Y287394D01*
X206618Y287469D01*
X206706Y287540D01*
X206796Y287608D01*
X206889Y287673D01*
X206984Y287735D01*
X207081Y287793D01*
X207180Y287848D01*
X207281Y287899D01*
X207384Y287947D01*
X207488Y287992D01*
X207594Y288032D01*
X207701Y288069D01*
X207809Y288102D01*
X207919Y288132D01*
X208029Y288157D01*
X208140Y288179D01*
X208252Y288196D01*
X208365Y288210D01*
X208478Y288220D01*
X208591Y288226D01*
X208704Y288228D01*
X208817Y288226D01*
X208930Y288220D01*
X209043Y288210D01*
X209156Y288196D01*
X209268Y288179D01*
X209379Y288157D01*
X209489Y288132D01*
X209599Y288102D01*
X209707Y288069D01*
X209814Y288032D01*
X209920Y287992D01*
X210024Y287947D01*
X210127Y287899D01*
X210228Y287848D01*
X210327Y287793D01*
X210424Y287735D01*
X210519Y287673D01*
X210612Y287608D01*
X210702Y287540D01*
X210790Y287469D01*
X210876Y287394D01*
X210959Y287317D01*
X211039Y287237D01*
X211116Y287154D01*
X211191Y287068D01*
X211262Y286980D01*
X211330Y286890D01*
X211395Y286797D01*
X211457Y286702D01*
X211515Y286605D01*
X211570Y286506D01*
X211621Y286405D01*
X211669Y286302D01*
X211714Y286198D01*
X211754Y286092D01*
X211791Y285985D01*
X211824Y285877D01*
X211854Y285767D01*
X211879Y285657D01*
X211901Y285546D01*
X211918Y285434D01*
X211932Y285321D01*
X211942Y285208D01*
X211948Y285095D01*
X211950Y284982D01*
X211949Y284982D02*
X211949Y281737D01*
X217142Y296130D02*
X217140Y296229D01*
X217134Y296329D01*
X217125Y296428D01*
X217112Y296526D01*
X217095Y296624D01*
X217074Y296722D01*
X217049Y296818D01*
X217021Y296913D01*
X216989Y297007D01*
X216954Y297100D01*
X216915Y297192D01*
X216872Y297282D01*
X216827Y297370D01*
X216777Y297457D01*
X216725Y297541D01*
X216669Y297624D01*
X216611Y297704D01*
X216549Y297782D01*
X216484Y297857D01*
X216416Y297930D01*
X216346Y298000D01*
X216273Y298068D01*
X216198Y298133D01*
X216120Y298195D01*
X216040Y298253D01*
X215957Y298309D01*
X215873Y298361D01*
X215786Y298411D01*
X215698Y298456D01*
X215608Y298499D01*
X215516Y298538D01*
X215423Y298573D01*
X215329Y298605D01*
X215234Y298633D01*
X215138Y298658D01*
X215040Y298679D01*
X214942Y298696D01*
X214844Y298709D01*
X214745Y298718D01*
X214645Y298724D01*
X214546Y298726D01*
X217142Y296130D02*
X217140Y295986D01*
X217134Y295841D01*
X217125Y295697D01*
X217112Y295554D01*
X217095Y295410D01*
X217074Y295267D01*
X217049Y295125D01*
X217021Y294984D01*
X216989Y294843D01*
X216953Y294703D01*
X216914Y294564D01*
X216871Y294426D01*
X216824Y294290D01*
X216774Y294154D01*
X216720Y294020D01*
X216663Y293888D01*
X216602Y293757D01*
X216538Y293628D01*
X216470Y293500D01*
X216400Y293374D01*
X216325Y293250D01*
X216248Y293129D01*
X216167Y293009D01*
X216084Y292891D01*
X215997Y292776D01*
X215907Y292663D01*
X215814Y292552D01*
X215719Y292444D01*
X215620Y292338D01*
X215519Y292235D01*
X208054Y292560D02*
X207955Y292562D01*
X207855Y292568D01*
X207756Y292577D01*
X207658Y292590D01*
X207560Y292607D01*
X207462Y292628D01*
X207366Y292653D01*
X207271Y292681D01*
X207177Y292713D01*
X207084Y292748D01*
X206992Y292787D01*
X206902Y292830D01*
X206814Y292875D01*
X206727Y292925D01*
X206643Y292977D01*
X206560Y293033D01*
X206480Y293091D01*
X206402Y293153D01*
X206327Y293218D01*
X206254Y293286D01*
X206184Y293356D01*
X206116Y293429D01*
X206051Y293504D01*
X205989Y293582D01*
X205931Y293662D01*
X205875Y293745D01*
X205823Y293829D01*
X205773Y293916D01*
X205728Y294004D01*
X205685Y294094D01*
X205646Y294186D01*
X205611Y294279D01*
X205579Y294373D01*
X205551Y294468D01*
X205526Y294564D01*
X205505Y294662D01*
X205488Y294760D01*
X205475Y294858D01*
X205466Y294957D01*
X205460Y295057D01*
X205458Y295156D01*
X205460Y295292D01*
X205466Y295428D01*
X205475Y295564D01*
X205488Y295700D01*
X205506Y295835D01*
X205526Y295969D01*
X205551Y296103D01*
X205579Y296237D01*
X205612Y296369D01*
X205647Y296500D01*
X205687Y296631D01*
X205730Y296760D01*
X205776Y296888D01*
X205827Y297014D01*
X205880Y297140D01*
X205938Y297263D01*
X205998Y297385D01*
X206062Y297505D01*
X206130Y297624D01*
X206200Y297740D01*
X206274Y297854D01*
X206351Y297967D01*
X206432Y298077D01*
X210326Y293858D02*
X210273Y293772D01*
X210216Y293688D01*
X210157Y293606D01*
X210094Y293526D01*
X210028Y293449D01*
X209960Y293374D01*
X209888Y293302D01*
X209814Y293233D01*
X209737Y293167D01*
X209658Y293104D01*
X209576Y293044D01*
X209492Y292987D01*
X209406Y292933D01*
X209318Y292883D01*
X209228Y292836D01*
X209137Y292792D01*
X209043Y292753D01*
X208949Y292716D01*
X208853Y292684D01*
X208755Y292655D01*
X208657Y292630D01*
X208558Y292609D01*
X208458Y292591D01*
X208358Y292578D01*
X208257Y292568D01*
X208155Y292562D01*
X208054Y292560D01*
X212274Y297428D02*
X212327Y297514D01*
X212384Y297598D01*
X212443Y297680D01*
X212506Y297760D01*
X212572Y297837D01*
X212640Y297912D01*
X212712Y297984D01*
X212786Y298053D01*
X212863Y298119D01*
X212942Y298182D01*
X213024Y298242D01*
X213108Y298299D01*
X213194Y298353D01*
X213282Y298403D01*
X213372Y298450D01*
X213463Y298494D01*
X213557Y298533D01*
X213651Y298570D01*
X213747Y298602D01*
X213845Y298631D01*
X213943Y298656D01*
X214042Y298677D01*
X214142Y298695D01*
X214242Y298708D01*
X214343Y298718D01*
X214445Y298724D01*
X214546Y298726D01*
X212274Y297428D02*
X210326Y293858D01*
X208054Y303284D02*
X205458Y306530D01*
X217142Y306530D01*
X217142Y309775D02*
X217142Y303284D01*
D16*
X432020Y153736D02*
X479620Y153736D01*
X479620Y126486D02*
X479620Y117536D01*
X432020Y117536D01*
X432020Y126486D01*
D17*
X498820Y141486D03*
D12*
X498882Y141484D01*
X498943Y141478D01*
X499004Y141469D01*
X499064Y141456D01*
X499123Y141439D01*
X499181Y141418D01*
X499238Y141394D01*
X499293Y141367D01*
X499346Y141336D01*
X499398Y141302D01*
X499447Y141265D01*
X499494Y141225D01*
X499538Y141182D01*
X499579Y141137D01*
X499618Y141089D01*
X499654Y141038D01*
X499686Y140986D01*
X499715Y140932D01*
X499741Y140876D01*
X499763Y140818D01*
X499782Y140760D01*
X499797Y140700D01*
X499808Y140639D01*
X499816Y140578D01*
X499820Y140517D01*
X499820Y140455D01*
X499816Y140394D01*
X499808Y140333D01*
X499797Y140272D01*
X499782Y140212D01*
X499763Y140154D01*
X499741Y140096D01*
X499715Y140040D01*
X499686Y139986D01*
X499654Y139934D01*
X499618Y139883D01*
X499579Y139835D01*
X499538Y139790D01*
X499494Y139747D01*
X499447Y139707D01*
X499398Y139670D01*
X499346Y139636D01*
X499293Y139605D01*
X499238Y139578D01*
X499181Y139554D01*
X499123Y139533D01*
X499064Y139516D01*
X499004Y139503D01*
X498943Y139494D01*
X498882Y139488D01*
X498820Y139486D01*
D17*
X498820Y139486D03*
D12*
X498758Y139488D01*
X498697Y139494D01*
X498636Y139503D01*
X498576Y139516D01*
X498517Y139533D01*
X498459Y139554D01*
X498402Y139578D01*
X498347Y139605D01*
X498294Y139636D01*
X498242Y139670D01*
X498193Y139707D01*
X498146Y139747D01*
X498102Y139790D01*
X498061Y139835D01*
X498022Y139883D01*
X497986Y139934D01*
X497954Y139986D01*
X497925Y140040D01*
X497899Y140096D01*
X497877Y140154D01*
X497858Y140212D01*
X497843Y140272D01*
X497832Y140333D01*
X497824Y140394D01*
X497820Y140455D01*
X497820Y140517D01*
X497824Y140578D01*
X497832Y140639D01*
X497843Y140700D01*
X497858Y140760D01*
X497877Y140818D01*
X497899Y140876D01*
X497925Y140932D01*
X497954Y140986D01*
X497986Y141038D01*
X498022Y141089D01*
X498061Y141137D01*
X498102Y141182D01*
X498146Y141225D01*
X498193Y141265D01*
X498242Y141302D01*
X498294Y141336D01*
X498347Y141367D01*
X498402Y141394D01*
X498459Y141418D01*
X498517Y141439D01*
X498576Y141456D01*
X498636Y141469D01*
X498697Y141478D01*
X498758Y141484D01*
X498820Y141486D01*
D13*
X487833Y133152D02*
X487833Y127960D01*
X487832Y133152D02*
X487834Y133265D01*
X487840Y133378D01*
X487850Y133491D01*
X487864Y133604D01*
X487881Y133716D01*
X487903Y133827D01*
X487928Y133937D01*
X487958Y134047D01*
X487991Y134155D01*
X488028Y134262D01*
X488068Y134368D01*
X488113Y134472D01*
X488161Y134575D01*
X488212Y134676D01*
X488267Y134775D01*
X488325Y134872D01*
X488387Y134967D01*
X488452Y135060D01*
X488520Y135150D01*
X488591Y135238D01*
X488666Y135324D01*
X488743Y135407D01*
X488823Y135487D01*
X488906Y135564D01*
X488992Y135639D01*
X489080Y135710D01*
X489170Y135778D01*
X489263Y135843D01*
X489358Y135905D01*
X489455Y135963D01*
X489554Y136018D01*
X489655Y136069D01*
X489758Y136117D01*
X489862Y136162D01*
X489968Y136202D01*
X490075Y136239D01*
X490183Y136272D01*
X490293Y136302D01*
X490403Y136327D01*
X490514Y136349D01*
X490626Y136366D01*
X490739Y136380D01*
X490852Y136390D01*
X490965Y136396D01*
X491078Y136398D01*
X491191Y136396D01*
X491304Y136390D01*
X491417Y136380D01*
X491530Y136366D01*
X491642Y136349D01*
X491753Y136327D01*
X491863Y136302D01*
X491973Y136272D01*
X492081Y136239D01*
X492188Y136202D01*
X492294Y136162D01*
X492398Y136117D01*
X492501Y136069D01*
X492602Y136018D01*
X492701Y135963D01*
X492798Y135905D01*
X492893Y135843D01*
X492986Y135778D01*
X493076Y135710D01*
X493164Y135639D01*
X493250Y135564D01*
X493333Y135487D01*
X493413Y135407D01*
X493490Y135324D01*
X493565Y135238D01*
X493636Y135150D01*
X493704Y135060D01*
X493769Y134967D01*
X493831Y134872D01*
X493889Y134775D01*
X493944Y134676D01*
X493995Y134575D01*
X494043Y134472D01*
X494088Y134368D01*
X494128Y134262D01*
X494165Y134155D01*
X494198Y134047D01*
X494228Y133937D01*
X494253Y133827D01*
X494275Y133716D01*
X494292Y133604D01*
X494306Y133491D01*
X494316Y133378D01*
X494322Y133265D01*
X494324Y133152D01*
X494324Y127960D01*
X494322Y127847D01*
X494316Y127734D01*
X494306Y127621D01*
X494292Y127508D01*
X494275Y127396D01*
X494253Y127285D01*
X494228Y127175D01*
X494198Y127065D01*
X494165Y126957D01*
X494128Y126850D01*
X494088Y126744D01*
X494043Y126640D01*
X493995Y126537D01*
X493944Y126436D01*
X493889Y126337D01*
X493831Y126240D01*
X493769Y126145D01*
X493704Y126052D01*
X493636Y125962D01*
X493565Y125874D01*
X493490Y125788D01*
X493413Y125705D01*
X493333Y125625D01*
X493250Y125548D01*
X493164Y125473D01*
X493076Y125402D01*
X492986Y125334D01*
X492893Y125269D01*
X492798Y125207D01*
X492701Y125149D01*
X492602Y125094D01*
X492501Y125043D01*
X492398Y124995D01*
X492294Y124950D01*
X492188Y124910D01*
X492081Y124873D01*
X491973Y124840D01*
X491863Y124810D01*
X491753Y124785D01*
X491642Y124763D01*
X491530Y124746D01*
X491417Y124732D01*
X491304Y124722D01*
X491191Y124716D01*
X491078Y124714D01*
X490965Y124716D01*
X490852Y124722D01*
X490739Y124732D01*
X490626Y124746D01*
X490514Y124763D01*
X490403Y124785D01*
X490293Y124810D01*
X490183Y124840D01*
X490075Y124873D01*
X489968Y124910D01*
X489862Y124950D01*
X489758Y124995D01*
X489655Y125043D01*
X489554Y125094D01*
X489455Y125149D01*
X489358Y125207D01*
X489263Y125269D01*
X489170Y125334D01*
X489080Y125402D01*
X488992Y125473D01*
X488906Y125548D01*
X488823Y125625D01*
X488743Y125705D01*
X488666Y125788D01*
X488591Y125874D01*
X488520Y125962D01*
X488452Y126052D01*
X488387Y126145D01*
X488325Y126240D01*
X488267Y126337D01*
X488212Y126436D01*
X488161Y126537D01*
X488113Y126640D01*
X488068Y126744D01*
X488028Y126850D01*
X487991Y126957D01*
X487958Y127065D01*
X487928Y127175D01*
X487903Y127285D01*
X487881Y127396D01*
X487864Y127508D01*
X487850Y127621D01*
X487840Y127734D01*
X487834Y127847D01*
X487832Y127960D01*
X493025Y127310D02*
X495622Y124714D01*
X498976Y133802D02*
X502222Y136398D01*
X502222Y124714D01*
X505467Y124714D02*
X498976Y124714D01*
D16*
X599660Y194376D02*
X647260Y194376D01*
X647260Y167126D02*
X647260Y158176D01*
X599660Y158176D01*
X599660Y167126D01*
D17*
X666460Y182126D03*
D12*
X666522Y182124D01*
X666583Y182118D01*
X666644Y182109D01*
X666704Y182096D01*
X666763Y182079D01*
X666821Y182058D01*
X666878Y182034D01*
X666933Y182007D01*
X666986Y181976D01*
X667038Y181942D01*
X667087Y181905D01*
X667134Y181865D01*
X667178Y181822D01*
X667219Y181777D01*
X667258Y181729D01*
X667294Y181678D01*
X667326Y181626D01*
X667355Y181572D01*
X667381Y181516D01*
X667403Y181458D01*
X667422Y181400D01*
X667437Y181340D01*
X667448Y181279D01*
X667456Y181218D01*
X667460Y181157D01*
X667460Y181095D01*
X667456Y181034D01*
X667448Y180973D01*
X667437Y180912D01*
X667422Y180852D01*
X667403Y180794D01*
X667381Y180736D01*
X667355Y180680D01*
X667326Y180626D01*
X667294Y180574D01*
X667258Y180523D01*
X667219Y180475D01*
X667178Y180430D01*
X667134Y180387D01*
X667087Y180347D01*
X667038Y180310D01*
X666986Y180276D01*
X666933Y180245D01*
X666878Y180218D01*
X666821Y180194D01*
X666763Y180173D01*
X666704Y180156D01*
X666644Y180143D01*
X666583Y180134D01*
X666522Y180128D01*
X666460Y180126D01*
D17*
X666460Y180126D03*
D12*
X666398Y180128D01*
X666337Y180134D01*
X666276Y180143D01*
X666216Y180156D01*
X666157Y180173D01*
X666099Y180194D01*
X666042Y180218D01*
X665987Y180245D01*
X665934Y180276D01*
X665882Y180310D01*
X665833Y180347D01*
X665786Y180387D01*
X665742Y180430D01*
X665701Y180475D01*
X665662Y180523D01*
X665626Y180574D01*
X665594Y180626D01*
X665565Y180680D01*
X665539Y180736D01*
X665517Y180794D01*
X665498Y180852D01*
X665483Y180912D01*
X665472Y180973D01*
X665464Y181034D01*
X665460Y181095D01*
X665460Y181157D01*
X665464Y181218D01*
X665472Y181279D01*
X665483Y181340D01*
X665498Y181400D01*
X665517Y181458D01*
X665539Y181516D01*
X665565Y181572D01*
X665594Y181626D01*
X665626Y181678D01*
X665662Y181729D01*
X665701Y181777D01*
X665742Y181822D01*
X665786Y181865D01*
X665833Y181905D01*
X665882Y181942D01*
X665934Y181976D01*
X665987Y182007D01*
X666042Y182034D01*
X666099Y182058D01*
X666157Y182079D01*
X666216Y182096D01*
X666276Y182109D01*
X666337Y182118D01*
X666398Y182124D01*
X666460Y182126D01*
D13*
X619913Y188920D02*
X619913Y194112D01*
X619912Y194112D02*
X619914Y194225D01*
X619920Y194338D01*
X619930Y194451D01*
X619944Y194564D01*
X619961Y194676D01*
X619983Y194787D01*
X620008Y194897D01*
X620038Y195007D01*
X620071Y195115D01*
X620108Y195222D01*
X620148Y195328D01*
X620193Y195432D01*
X620241Y195535D01*
X620292Y195636D01*
X620347Y195735D01*
X620405Y195832D01*
X620467Y195927D01*
X620532Y196020D01*
X620600Y196110D01*
X620671Y196198D01*
X620746Y196284D01*
X620823Y196367D01*
X620903Y196447D01*
X620986Y196524D01*
X621072Y196599D01*
X621160Y196670D01*
X621250Y196738D01*
X621343Y196803D01*
X621438Y196865D01*
X621535Y196923D01*
X621634Y196978D01*
X621735Y197029D01*
X621838Y197077D01*
X621942Y197122D01*
X622048Y197162D01*
X622155Y197199D01*
X622263Y197232D01*
X622373Y197262D01*
X622483Y197287D01*
X622594Y197309D01*
X622706Y197326D01*
X622819Y197340D01*
X622932Y197350D01*
X623045Y197356D01*
X623158Y197358D01*
X623271Y197356D01*
X623384Y197350D01*
X623497Y197340D01*
X623610Y197326D01*
X623722Y197309D01*
X623833Y197287D01*
X623943Y197262D01*
X624053Y197232D01*
X624161Y197199D01*
X624268Y197162D01*
X624374Y197122D01*
X624478Y197077D01*
X624581Y197029D01*
X624682Y196978D01*
X624781Y196923D01*
X624878Y196865D01*
X624973Y196803D01*
X625066Y196738D01*
X625156Y196670D01*
X625244Y196599D01*
X625330Y196524D01*
X625413Y196447D01*
X625493Y196367D01*
X625570Y196284D01*
X625645Y196198D01*
X625716Y196110D01*
X625784Y196020D01*
X625849Y195927D01*
X625911Y195832D01*
X625969Y195735D01*
X626024Y195636D01*
X626075Y195535D01*
X626123Y195432D01*
X626168Y195328D01*
X626208Y195222D01*
X626245Y195115D01*
X626278Y195007D01*
X626308Y194897D01*
X626333Y194787D01*
X626355Y194676D01*
X626372Y194564D01*
X626386Y194451D01*
X626396Y194338D01*
X626402Y194225D01*
X626404Y194112D01*
X626404Y188920D01*
X626402Y188807D01*
X626396Y188694D01*
X626386Y188581D01*
X626372Y188468D01*
X626355Y188356D01*
X626333Y188245D01*
X626308Y188135D01*
X626278Y188025D01*
X626245Y187917D01*
X626208Y187810D01*
X626168Y187704D01*
X626123Y187600D01*
X626075Y187497D01*
X626024Y187396D01*
X625969Y187297D01*
X625911Y187200D01*
X625849Y187105D01*
X625784Y187012D01*
X625716Y186922D01*
X625645Y186834D01*
X625570Y186748D01*
X625493Y186665D01*
X625413Y186585D01*
X625330Y186508D01*
X625244Y186433D01*
X625156Y186362D01*
X625066Y186294D01*
X624973Y186229D01*
X624878Y186167D01*
X624781Y186109D01*
X624682Y186054D01*
X624581Y186003D01*
X624478Y185955D01*
X624374Y185910D01*
X624268Y185870D01*
X624161Y185833D01*
X624053Y185800D01*
X623943Y185770D01*
X623833Y185745D01*
X623722Y185723D01*
X623610Y185706D01*
X623497Y185692D01*
X623384Y185682D01*
X623271Y185676D01*
X623158Y185674D01*
X623045Y185676D01*
X622932Y185682D01*
X622819Y185692D01*
X622706Y185706D01*
X622594Y185723D01*
X622483Y185745D01*
X622373Y185770D01*
X622263Y185800D01*
X622155Y185833D01*
X622048Y185870D01*
X621942Y185910D01*
X621838Y185955D01*
X621735Y186003D01*
X621634Y186054D01*
X621535Y186109D01*
X621438Y186167D01*
X621343Y186229D01*
X621250Y186294D01*
X621160Y186362D01*
X621072Y186433D01*
X620986Y186508D01*
X620903Y186585D01*
X620823Y186665D01*
X620746Y186748D01*
X620671Y186834D01*
X620600Y186922D01*
X620532Y187012D01*
X620467Y187105D01*
X620405Y187200D01*
X620347Y187297D01*
X620292Y187396D01*
X620241Y187497D01*
X620193Y187600D01*
X620148Y187704D01*
X620108Y187810D01*
X620071Y187917D01*
X620038Y188025D01*
X620008Y188135D01*
X619983Y188245D01*
X619961Y188356D01*
X619944Y188468D01*
X619930Y188581D01*
X619920Y188694D01*
X619914Y188807D01*
X619912Y188920D01*
X625105Y188270D02*
X627702Y185674D01*
X637547Y194437D02*
X637545Y194544D01*
X637539Y194650D01*
X637529Y194756D01*
X637516Y194862D01*
X637498Y194968D01*
X637477Y195072D01*
X637452Y195176D01*
X637423Y195279D01*
X637391Y195380D01*
X637354Y195480D01*
X637314Y195579D01*
X637271Y195677D01*
X637224Y195773D01*
X637173Y195867D01*
X637119Y195959D01*
X637062Y196049D01*
X637002Y196137D01*
X636938Y196222D01*
X636871Y196305D01*
X636801Y196386D01*
X636729Y196464D01*
X636653Y196540D01*
X636575Y196612D01*
X636494Y196682D01*
X636411Y196749D01*
X636326Y196813D01*
X636238Y196873D01*
X636148Y196930D01*
X636056Y196984D01*
X635962Y197035D01*
X635866Y197082D01*
X635768Y197125D01*
X635669Y197165D01*
X635569Y197202D01*
X635468Y197234D01*
X635365Y197263D01*
X635261Y197288D01*
X635157Y197309D01*
X635051Y197327D01*
X634945Y197340D01*
X634839Y197350D01*
X634733Y197356D01*
X634626Y197358D01*
X634505Y197356D01*
X634384Y197350D01*
X634264Y197340D01*
X634143Y197327D01*
X634024Y197309D01*
X633904Y197288D01*
X633786Y197263D01*
X633669Y197234D01*
X633552Y197201D01*
X633437Y197165D01*
X633323Y197124D01*
X633210Y197081D01*
X633098Y197033D01*
X632989Y196982D01*
X632881Y196927D01*
X632774Y196869D01*
X632670Y196808D01*
X632568Y196743D01*
X632468Y196675D01*
X632370Y196604D01*
X632274Y196530D01*
X632181Y196453D01*
X632091Y196372D01*
X632003Y196289D01*
X631918Y196203D01*
X631835Y196114D01*
X631756Y196023D01*
X631679Y195929D01*
X631606Y195833D01*
X631536Y195735D01*
X631469Y195634D01*
X631405Y195531D01*
X631345Y195426D01*
X631288Y195319D01*
X631234Y195211D01*
X631184Y195101D01*
X631138Y194989D01*
X631095Y194876D01*
X631056Y194761D01*
X636574Y192165D02*
X636653Y192242D01*
X636729Y192323D01*
X636802Y192406D01*
X636872Y192491D01*
X636939Y192579D01*
X637003Y192669D01*
X637063Y192761D01*
X637120Y192856D01*
X637174Y192952D01*
X637225Y193050D01*
X637272Y193150D01*
X637316Y193252D01*
X637356Y193355D01*
X637392Y193459D01*
X637424Y193565D01*
X637453Y193671D01*
X637478Y193779D01*
X637500Y193887D01*
X637517Y193997D01*
X637531Y194106D01*
X637540Y194216D01*
X637546Y194327D01*
X637548Y194437D01*
X636574Y192165D02*
X631056Y185674D01*
X637547Y185674D01*
D16*
X767300Y191836D02*
X814900Y191836D01*
X814900Y164586D02*
X814900Y155636D01*
X767300Y155636D01*
X767300Y164586D01*
D17*
X834100Y179586D03*
D12*
X834162Y179584D01*
X834223Y179578D01*
X834284Y179569D01*
X834344Y179556D01*
X834403Y179539D01*
X834461Y179518D01*
X834518Y179494D01*
X834573Y179467D01*
X834626Y179436D01*
X834678Y179402D01*
X834727Y179365D01*
X834774Y179325D01*
X834818Y179282D01*
X834859Y179237D01*
X834898Y179189D01*
X834934Y179138D01*
X834966Y179086D01*
X834995Y179032D01*
X835021Y178976D01*
X835043Y178918D01*
X835062Y178860D01*
X835077Y178800D01*
X835088Y178739D01*
X835096Y178678D01*
X835100Y178617D01*
X835100Y178555D01*
X835096Y178494D01*
X835088Y178433D01*
X835077Y178372D01*
X835062Y178312D01*
X835043Y178254D01*
X835021Y178196D01*
X834995Y178140D01*
X834966Y178086D01*
X834934Y178034D01*
X834898Y177983D01*
X834859Y177935D01*
X834818Y177890D01*
X834774Y177847D01*
X834727Y177807D01*
X834678Y177770D01*
X834626Y177736D01*
X834573Y177705D01*
X834518Y177678D01*
X834461Y177654D01*
X834403Y177633D01*
X834344Y177616D01*
X834284Y177603D01*
X834223Y177594D01*
X834162Y177588D01*
X834100Y177586D01*
D17*
X834100Y177586D03*
D12*
X834038Y177588D01*
X833977Y177594D01*
X833916Y177603D01*
X833856Y177616D01*
X833797Y177633D01*
X833739Y177654D01*
X833682Y177678D01*
X833627Y177705D01*
X833574Y177736D01*
X833522Y177770D01*
X833473Y177807D01*
X833426Y177847D01*
X833382Y177890D01*
X833341Y177935D01*
X833302Y177983D01*
X833266Y178034D01*
X833234Y178086D01*
X833205Y178140D01*
X833179Y178196D01*
X833157Y178254D01*
X833138Y178312D01*
X833123Y178372D01*
X833112Y178433D01*
X833104Y178494D01*
X833100Y178555D01*
X833100Y178617D01*
X833104Y178678D01*
X833112Y178739D01*
X833123Y178800D01*
X833138Y178860D01*
X833157Y178918D01*
X833179Y178976D01*
X833205Y179032D01*
X833234Y179086D01*
X833266Y179138D01*
X833302Y179189D01*
X833341Y179237D01*
X833382Y179282D01*
X833426Y179325D01*
X833473Y179365D01*
X833522Y179402D01*
X833574Y179436D01*
X833627Y179467D01*
X833682Y179494D01*
X833739Y179518D01*
X833797Y179539D01*
X833856Y179556D01*
X833916Y179569D01*
X833977Y179578D01*
X834038Y179584D01*
X834100Y179586D01*
D13*
X787553Y191460D02*
X787553Y196652D01*
X787552Y196652D02*
X787554Y196765D01*
X787560Y196878D01*
X787570Y196991D01*
X787584Y197104D01*
X787601Y197216D01*
X787623Y197327D01*
X787648Y197437D01*
X787678Y197547D01*
X787711Y197655D01*
X787748Y197762D01*
X787788Y197868D01*
X787833Y197972D01*
X787881Y198075D01*
X787932Y198176D01*
X787987Y198275D01*
X788045Y198372D01*
X788107Y198467D01*
X788172Y198560D01*
X788240Y198650D01*
X788311Y198738D01*
X788386Y198824D01*
X788463Y198907D01*
X788543Y198987D01*
X788626Y199064D01*
X788712Y199139D01*
X788800Y199210D01*
X788890Y199278D01*
X788983Y199343D01*
X789078Y199405D01*
X789175Y199463D01*
X789274Y199518D01*
X789375Y199569D01*
X789478Y199617D01*
X789582Y199662D01*
X789688Y199702D01*
X789795Y199739D01*
X789903Y199772D01*
X790013Y199802D01*
X790123Y199827D01*
X790234Y199849D01*
X790346Y199866D01*
X790459Y199880D01*
X790572Y199890D01*
X790685Y199896D01*
X790798Y199898D01*
X790911Y199896D01*
X791024Y199890D01*
X791137Y199880D01*
X791250Y199866D01*
X791362Y199849D01*
X791473Y199827D01*
X791583Y199802D01*
X791693Y199772D01*
X791801Y199739D01*
X791908Y199702D01*
X792014Y199662D01*
X792118Y199617D01*
X792221Y199569D01*
X792322Y199518D01*
X792421Y199463D01*
X792518Y199405D01*
X792613Y199343D01*
X792706Y199278D01*
X792796Y199210D01*
X792884Y199139D01*
X792970Y199064D01*
X793053Y198987D01*
X793133Y198907D01*
X793210Y198824D01*
X793285Y198738D01*
X793356Y198650D01*
X793424Y198560D01*
X793489Y198467D01*
X793551Y198372D01*
X793609Y198275D01*
X793664Y198176D01*
X793715Y198075D01*
X793763Y197972D01*
X793808Y197868D01*
X793848Y197762D01*
X793885Y197655D01*
X793918Y197547D01*
X793948Y197437D01*
X793973Y197327D01*
X793995Y197216D01*
X794012Y197104D01*
X794026Y196991D01*
X794036Y196878D01*
X794042Y196765D01*
X794044Y196652D01*
X794044Y191460D01*
X794042Y191347D01*
X794036Y191234D01*
X794026Y191121D01*
X794012Y191008D01*
X793995Y190896D01*
X793973Y190785D01*
X793948Y190675D01*
X793918Y190565D01*
X793885Y190457D01*
X793848Y190350D01*
X793808Y190244D01*
X793763Y190140D01*
X793715Y190037D01*
X793664Y189936D01*
X793609Y189837D01*
X793551Y189740D01*
X793489Y189645D01*
X793424Y189552D01*
X793356Y189462D01*
X793285Y189374D01*
X793210Y189288D01*
X793133Y189205D01*
X793053Y189125D01*
X792970Y189048D01*
X792884Y188973D01*
X792796Y188902D01*
X792706Y188834D01*
X792613Y188769D01*
X792518Y188707D01*
X792421Y188649D01*
X792322Y188594D01*
X792221Y188543D01*
X792118Y188495D01*
X792014Y188450D01*
X791908Y188410D01*
X791801Y188373D01*
X791693Y188340D01*
X791583Y188310D01*
X791473Y188285D01*
X791362Y188263D01*
X791250Y188246D01*
X791137Y188232D01*
X791024Y188222D01*
X790911Y188216D01*
X790798Y188214D01*
X790685Y188216D01*
X790572Y188222D01*
X790459Y188232D01*
X790346Y188246D01*
X790234Y188263D01*
X790123Y188285D01*
X790013Y188310D01*
X789903Y188340D01*
X789795Y188373D01*
X789688Y188410D01*
X789582Y188450D01*
X789478Y188495D01*
X789375Y188543D01*
X789274Y188594D01*
X789175Y188649D01*
X789078Y188707D01*
X788983Y188769D01*
X788890Y188834D01*
X788800Y188902D01*
X788712Y188973D01*
X788626Y189048D01*
X788543Y189125D01*
X788463Y189205D01*
X788386Y189288D01*
X788311Y189374D01*
X788240Y189462D01*
X788172Y189552D01*
X788107Y189645D01*
X788045Y189740D01*
X787987Y189837D01*
X787932Y189936D01*
X787881Y190037D01*
X787833Y190140D01*
X787788Y190244D01*
X787748Y190350D01*
X787711Y190457D01*
X787678Y190565D01*
X787648Y190675D01*
X787623Y190785D01*
X787601Y190896D01*
X787584Y191008D01*
X787570Y191121D01*
X787560Y191234D01*
X787554Y191347D01*
X787552Y191460D01*
X792745Y190810D02*
X795342Y188214D01*
X798696Y188214D02*
X801942Y188214D01*
X802055Y188216D01*
X802168Y188222D01*
X802281Y188232D01*
X802394Y188246D01*
X802506Y188263D01*
X802617Y188285D01*
X802727Y188310D01*
X802837Y188340D01*
X802945Y188373D01*
X803052Y188410D01*
X803158Y188450D01*
X803262Y188495D01*
X803365Y188543D01*
X803466Y188594D01*
X803565Y188649D01*
X803662Y188707D01*
X803757Y188769D01*
X803850Y188834D01*
X803940Y188902D01*
X804028Y188973D01*
X804114Y189048D01*
X804197Y189125D01*
X804277Y189205D01*
X804354Y189288D01*
X804429Y189374D01*
X804500Y189462D01*
X804568Y189552D01*
X804633Y189645D01*
X804695Y189740D01*
X804753Y189837D01*
X804808Y189936D01*
X804859Y190037D01*
X804907Y190140D01*
X804952Y190244D01*
X804992Y190350D01*
X805029Y190457D01*
X805062Y190565D01*
X805092Y190675D01*
X805117Y190785D01*
X805139Y190896D01*
X805156Y191008D01*
X805170Y191121D01*
X805180Y191234D01*
X805186Y191347D01*
X805188Y191460D01*
X805186Y191573D01*
X805180Y191686D01*
X805170Y191799D01*
X805156Y191912D01*
X805139Y192024D01*
X805117Y192135D01*
X805092Y192245D01*
X805062Y192355D01*
X805029Y192463D01*
X804992Y192570D01*
X804952Y192676D01*
X804907Y192780D01*
X804859Y192883D01*
X804808Y192984D01*
X804753Y193083D01*
X804695Y193180D01*
X804633Y193275D01*
X804568Y193368D01*
X804500Y193458D01*
X804429Y193546D01*
X804354Y193632D01*
X804277Y193715D01*
X804197Y193795D01*
X804114Y193872D01*
X804028Y193947D01*
X803940Y194018D01*
X803850Y194086D01*
X803757Y194151D01*
X803662Y194213D01*
X803565Y194271D01*
X803466Y194326D01*
X803365Y194377D01*
X803262Y194425D01*
X803158Y194470D01*
X803052Y194510D01*
X802945Y194547D01*
X802837Y194580D01*
X802727Y194610D01*
X802617Y194635D01*
X802506Y194657D01*
X802394Y194674D01*
X802281Y194688D01*
X802168Y194698D01*
X802055Y194704D01*
X801942Y194706D01*
X802591Y199898D02*
X798696Y199898D01*
X802591Y199898D02*
X802692Y199896D01*
X802792Y199890D01*
X802892Y199880D01*
X802992Y199867D01*
X803091Y199849D01*
X803190Y199828D01*
X803287Y199803D01*
X803384Y199774D01*
X803479Y199741D01*
X803573Y199705D01*
X803665Y199665D01*
X803756Y199622D01*
X803845Y199575D01*
X803932Y199525D01*
X804018Y199471D01*
X804101Y199414D01*
X804181Y199354D01*
X804260Y199291D01*
X804336Y199224D01*
X804409Y199155D01*
X804479Y199083D01*
X804547Y199009D01*
X804612Y198932D01*
X804673Y198852D01*
X804732Y198770D01*
X804787Y198686D01*
X804839Y198600D01*
X804888Y198512D01*
X804933Y198422D01*
X804975Y198330D01*
X805013Y198237D01*
X805047Y198142D01*
X805078Y198047D01*
X805105Y197950D01*
X805128Y197852D01*
X805148Y197753D01*
X805163Y197653D01*
X805175Y197553D01*
X805183Y197453D01*
X805187Y197352D01*
X805187Y197252D01*
X805183Y197151D01*
X805175Y197051D01*
X805163Y196951D01*
X805148Y196851D01*
X805128Y196752D01*
X805105Y196654D01*
X805078Y196557D01*
X805047Y196462D01*
X805013Y196367D01*
X804975Y196274D01*
X804933Y196182D01*
X804888Y196092D01*
X804839Y196004D01*
X804787Y195918D01*
X804732Y195834D01*
X804673Y195752D01*
X804612Y195672D01*
X804547Y195595D01*
X804479Y195521D01*
X804409Y195449D01*
X804336Y195380D01*
X804260Y195313D01*
X804181Y195250D01*
X804101Y195190D01*
X804018Y195133D01*
X803932Y195079D01*
X803845Y195029D01*
X803756Y194982D01*
X803665Y194939D01*
X803573Y194899D01*
X803479Y194863D01*
X803384Y194830D01*
X803287Y194801D01*
X803190Y194776D01*
X803091Y194755D01*
X802992Y194737D01*
X802892Y194724D01*
X802792Y194714D01*
X802692Y194708D01*
X802591Y194706D01*
X802591Y194705D02*
X799995Y194705D01*
D16*
X940020Y141036D02*
X987620Y141036D01*
X987620Y113786D02*
X987620Y104836D01*
X940020Y104836D01*
X940020Y113786D01*
D17*
X1006820Y128786D03*
D12*
X1006882Y128784D01*
X1006943Y128778D01*
X1007004Y128769D01*
X1007064Y128756D01*
X1007123Y128739D01*
X1007181Y128718D01*
X1007238Y128694D01*
X1007293Y128667D01*
X1007346Y128636D01*
X1007398Y128602D01*
X1007447Y128565D01*
X1007494Y128525D01*
X1007538Y128482D01*
X1007579Y128437D01*
X1007618Y128389D01*
X1007654Y128338D01*
X1007686Y128286D01*
X1007715Y128232D01*
X1007741Y128176D01*
X1007763Y128118D01*
X1007782Y128060D01*
X1007797Y128000D01*
X1007808Y127939D01*
X1007816Y127878D01*
X1007820Y127817D01*
X1007820Y127755D01*
X1007816Y127694D01*
X1007808Y127633D01*
X1007797Y127572D01*
X1007782Y127512D01*
X1007763Y127454D01*
X1007741Y127396D01*
X1007715Y127340D01*
X1007686Y127286D01*
X1007654Y127234D01*
X1007618Y127183D01*
X1007579Y127135D01*
X1007538Y127090D01*
X1007494Y127047D01*
X1007447Y127007D01*
X1007398Y126970D01*
X1007346Y126936D01*
X1007293Y126905D01*
X1007238Y126878D01*
X1007181Y126854D01*
X1007123Y126833D01*
X1007064Y126816D01*
X1007004Y126803D01*
X1006943Y126794D01*
X1006882Y126788D01*
X1006820Y126786D01*
D17*
X1006820Y126786D03*
D12*
X1006758Y126788D01*
X1006697Y126794D01*
X1006636Y126803D01*
X1006576Y126816D01*
X1006517Y126833D01*
X1006459Y126854D01*
X1006402Y126878D01*
X1006347Y126905D01*
X1006294Y126936D01*
X1006242Y126970D01*
X1006193Y127007D01*
X1006146Y127047D01*
X1006102Y127090D01*
X1006061Y127135D01*
X1006022Y127183D01*
X1005986Y127234D01*
X1005954Y127286D01*
X1005925Y127340D01*
X1005899Y127396D01*
X1005877Y127454D01*
X1005858Y127512D01*
X1005843Y127572D01*
X1005832Y127633D01*
X1005824Y127694D01*
X1005820Y127755D01*
X1005820Y127817D01*
X1005824Y127878D01*
X1005832Y127939D01*
X1005843Y128000D01*
X1005858Y128060D01*
X1005877Y128118D01*
X1005899Y128176D01*
X1005925Y128232D01*
X1005954Y128286D01*
X1005986Y128338D01*
X1006022Y128389D01*
X1006061Y128437D01*
X1006102Y128482D01*
X1006146Y128525D01*
X1006193Y128565D01*
X1006242Y128602D01*
X1006294Y128636D01*
X1006347Y128667D01*
X1006402Y128694D01*
X1006459Y128718D01*
X1006517Y128739D01*
X1006576Y128756D01*
X1006636Y128769D01*
X1006697Y128778D01*
X1006758Y128784D01*
X1006820Y128786D01*
D13*
X960273Y140660D02*
X960273Y145852D01*
X960272Y145852D02*
X960274Y145965D01*
X960280Y146078D01*
X960290Y146191D01*
X960304Y146304D01*
X960321Y146416D01*
X960343Y146527D01*
X960368Y146637D01*
X960398Y146747D01*
X960431Y146855D01*
X960468Y146962D01*
X960508Y147068D01*
X960553Y147172D01*
X960601Y147275D01*
X960652Y147376D01*
X960707Y147475D01*
X960765Y147572D01*
X960827Y147667D01*
X960892Y147760D01*
X960960Y147850D01*
X961031Y147938D01*
X961106Y148024D01*
X961183Y148107D01*
X961263Y148187D01*
X961346Y148264D01*
X961432Y148339D01*
X961520Y148410D01*
X961610Y148478D01*
X961703Y148543D01*
X961798Y148605D01*
X961895Y148663D01*
X961994Y148718D01*
X962095Y148769D01*
X962198Y148817D01*
X962302Y148862D01*
X962408Y148902D01*
X962515Y148939D01*
X962623Y148972D01*
X962733Y149002D01*
X962843Y149027D01*
X962954Y149049D01*
X963066Y149066D01*
X963179Y149080D01*
X963292Y149090D01*
X963405Y149096D01*
X963518Y149098D01*
X963631Y149096D01*
X963744Y149090D01*
X963857Y149080D01*
X963970Y149066D01*
X964082Y149049D01*
X964193Y149027D01*
X964303Y149002D01*
X964413Y148972D01*
X964521Y148939D01*
X964628Y148902D01*
X964734Y148862D01*
X964838Y148817D01*
X964941Y148769D01*
X965042Y148718D01*
X965141Y148663D01*
X965238Y148605D01*
X965333Y148543D01*
X965426Y148478D01*
X965516Y148410D01*
X965604Y148339D01*
X965690Y148264D01*
X965773Y148187D01*
X965853Y148107D01*
X965930Y148024D01*
X966005Y147938D01*
X966076Y147850D01*
X966144Y147760D01*
X966209Y147667D01*
X966271Y147572D01*
X966329Y147475D01*
X966384Y147376D01*
X966435Y147275D01*
X966483Y147172D01*
X966528Y147068D01*
X966568Y146962D01*
X966605Y146855D01*
X966638Y146747D01*
X966668Y146637D01*
X966693Y146527D01*
X966715Y146416D01*
X966732Y146304D01*
X966746Y146191D01*
X966756Y146078D01*
X966762Y145965D01*
X966764Y145852D01*
X966764Y140660D01*
X966762Y140547D01*
X966756Y140434D01*
X966746Y140321D01*
X966732Y140208D01*
X966715Y140096D01*
X966693Y139985D01*
X966668Y139875D01*
X966638Y139765D01*
X966605Y139657D01*
X966568Y139550D01*
X966528Y139444D01*
X966483Y139340D01*
X966435Y139237D01*
X966384Y139136D01*
X966329Y139037D01*
X966271Y138940D01*
X966209Y138845D01*
X966144Y138752D01*
X966076Y138662D01*
X966005Y138574D01*
X965930Y138488D01*
X965853Y138405D01*
X965773Y138325D01*
X965690Y138248D01*
X965604Y138173D01*
X965516Y138102D01*
X965426Y138034D01*
X965333Y137969D01*
X965238Y137907D01*
X965141Y137849D01*
X965042Y137794D01*
X964941Y137743D01*
X964838Y137695D01*
X964734Y137650D01*
X964628Y137610D01*
X964521Y137573D01*
X964413Y137540D01*
X964303Y137510D01*
X964193Y137485D01*
X964082Y137463D01*
X963970Y137446D01*
X963857Y137432D01*
X963744Y137422D01*
X963631Y137416D01*
X963518Y137414D01*
X963405Y137416D01*
X963292Y137422D01*
X963179Y137432D01*
X963066Y137446D01*
X962954Y137463D01*
X962843Y137485D01*
X962733Y137510D01*
X962623Y137540D01*
X962515Y137573D01*
X962408Y137610D01*
X962302Y137650D01*
X962198Y137695D01*
X962095Y137743D01*
X961994Y137794D01*
X961895Y137849D01*
X961798Y137907D01*
X961703Y137969D01*
X961610Y138034D01*
X961520Y138102D01*
X961432Y138173D01*
X961346Y138248D01*
X961263Y138325D01*
X961183Y138405D01*
X961106Y138488D01*
X961031Y138574D01*
X960960Y138662D01*
X960892Y138752D01*
X960827Y138845D01*
X960765Y138940D01*
X960707Y139037D01*
X960652Y139136D01*
X960601Y139237D01*
X960553Y139340D01*
X960508Y139444D01*
X960468Y139550D01*
X960431Y139657D01*
X960398Y139765D01*
X960368Y139875D01*
X960343Y139985D01*
X960321Y140096D01*
X960304Y140208D01*
X960290Y140321D01*
X960280Y140434D01*
X960274Y140547D01*
X960272Y140660D01*
X965465Y140010D02*
X968062Y137414D01*
X971416Y140010D02*
X974013Y149098D01*
X971416Y140010D02*
X977907Y140010D01*
X975960Y142607D02*
X975960Y137414D01*
D12*
X1071372Y33020D02*
X1318852Y33020D01*
X1325372Y515620D02*
X1071372Y515620D01*
D13*
X1160646Y341122D02*
X1160646Y329438D01*
X1167137Y329438D02*
X1160646Y341122D01*
X1167137Y341122D02*
X1167137Y329438D01*
X1172457Y332684D02*
X1172457Y337876D01*
X1172459Y337989D01*
X1172465Y338102D01*
X1172475Y338215D01*
X1172489Y338328D01*
X1172506Y338440D01*
X1172528Y338551D01*
X1172553Y338661D01*
X1172583Y338771D01*
X1172616Y338879D01*
X1172653Y338986D01*
X1172693Y339092D01*
X1172738Y339196D01*
X1172786Y339299D01*
X1172837Y339400D01*
X1172892Y339499D01*
X1172950Y339596D01*
X1173012Y339691D01*
X1173077Y339784D01*
X1173145Y339874D01*
X1173216Y339962D01*
X1173291Y340048D01*
X1173368Y340131D01*
X1173448Y340211D01*
X1173531Y340288D01*
X1173617Y340363D01*
X1173705Y340434D01*
X1173795Y340502D01*
X1173888Y340567D01*
X1173983Y340629D01*
X1174080Y340687D01*
X1174179Y340742D01*
X1174280Y340793D01*
X1174383Y340841D01*
X1174487Y340886D01*
X1174593Y340926D01*
X1174700Y340963D01*
X1174808Y340996D01*
X1174918Y341026D01*
X1175028Y341051D01*
X1175139Y341073D01*
X1175251Y341090D01*
X1175364Y341104D01*
X1175477Y341114D01*
X1175590Y341120D01*
X1175703Y341122D01*
X1175816Y341120D01*
X1175929Y341114D01*
X1176042Y341104D01*
X1176155Y341090D01*
X1176267Y341073D01*
X1176378Y341051D01*
X1176488Y341026D01*
X1176598Y340996D01*
X1176706Y340963D01*
X1176813Y340926D01*
X1176919Y340886D01*
X1177023Y340841D01*
X1177126Y340793D01*
X1177227Y340742D01*
X1177326Y340687D01*
X1177423Y340629D01*
X1177518Y340567D01*
X1177611Y340502D01*
X1177701Y340434D01*
X1177789Y340363D01*
X1177875Y340288D01*
X1177958Y340211D01*
X1178038Y340131D01*
X1178115Y340048D01*
X1178190Y339962D01*
X1178261Y339874D01*
X1178329Y339784D01*
X1178394Y339691D01*
X1178456Y339596D01*
X1178514Y339499D01*
X1178569Y339400D01*
X1178620Y339299D01*
X1178668Y339196D01*
X1178713Y339092D01*
X1178753Y338986D01*
X1178790Y338879D01*
X1178823Y338771D01*
X1178853Y338661D01*
X1178878Y338551D01*
X1178900Y338440D01*
X1178917Y338328D01*
X1178931Y338215D01*
X1178941Y338102D01*
X1178947Y337989D01*
X1178949Y337876D01*
X1178948Y337876D02*
X1178948Y332684D01*
X1178949Y332684D02*
X1178947Y332571D01*
X1178941Y332458D01*
X1178931Y332345D01*
X1178917Y332232D01*
X1178900Y332120D01*
X1178878Y332009D01*
X1178853Y331899D01*
X1178823Y331789D01*
X1178790Y331681D01*
X1178753Y331574D01*
X1178713Y331468D01*
X1178668Y331364D01*
X1178620Y331261D01*
X1178569Y331160D01*
X1178514Y331061D01*
X1178456Y330964D01*
X1178394Y330869D01*
X1178329Y330776D01*
X1178261Y330686D01*
X1178190Y330598D01*
X1178115Y330512D01*
X1178038Y330429D01*
X1177958Y330349D01*
X1177875Y330272D01*
X1177789Y330197D01*
X1177701Y330126D01*
X1177611Y330058D01*
X1177518Y329993D01*
X1177423Y329931D01*
X1177326Y329873D01*
X1177227Y329818D01*
X1177126Y329767D01*
X1177023Y329719D01*
X1176919Y329674D01*
X1176813Y329634D01*
X1176706Y329597D01*
X1176598Y329564D01*
X1176488Y329534D01*
X1176378Y329509D01*
X1176267Y329487D01*
X1176155Y329470D01*
X1176042Y329456D01*
X1175929Y329446D01*
X1175816Y329440D01*
X1175703Y329438D01*
X1175590Y329440D01*
X1175477Y329446D01*
X1175364Y329456D01*
X1175251Y329470D01*
X1175139Y329487D01*
X1175028Y329509D01*
X1174918Y329534D01*
X1174808Y329564D01*
X1174700Y329597D01*
X1174593Y329634D01*
X1174487Y329674D01*
X1174383Y329719D01*
X1174280Y329767D01*
X1174179Y329818D01*
X1174080Y329873D01*
X1173983Y329931D01*
X1173888Y329993D01*
X1173795Y330058D01*
X1173705Y330126D01*
X1173617Y330197D01*
X1173531Y330272D01*
X1173448Y330349D01*
X1173368Y330429D01*
X1173291Y330512D01*
X1173216Y330598D01*
X1173145Y330686D01*
X1173077Y330776D01*
X1173012Y330869D01*
X1172950Y330964D01*
X1172892Y331061D01*
X1172837Y331160D01*
X1172786Y331261D01*
X1172738Y331364D01*
X1172693Y331468D01*
X1172653Y331574D01*
X1172616Y331681D01*
X1172583Y331789D01*
X1172553Y331899D01*
X1172528Y332009D01*
X1172506Y332120D01*
X1172489Y332232D01*
X1172475Y332345D01*
X1172465Y332458D01*
X1172459Y332571D01*
X1172457Y332684D01*
X1184268Y329438D02*
X1184268Y341122D01*
X1187513Y341122D01*
X1187626Y341120D01*
X1187739Y341114D01*
X1187852Y341104D01*
X1187965Y341090D01*
X1188077Y341073D01*
X1188188Y341051D01*
X1188298Y341026D01*
X1188408Y340996D01*
X1188516Y340963D01*
X1188623Y340926D01*
X1188729Y340886D01*
X1188833Y340841D01*
X1188936Y340793D01*
X1189037Y340742D01*
X1189136Y340687D01*
X1189233Y340629D01*
X1189328Y340567D01*
X1189421Y340502D01*
X1189511Y340434D01*
X1189599Y340363D01*
X1189685Y340288D01*
X1189768Y340211D01*
X1189848Y340131D01*
X1189925Y340048D01*
X1190000Y339962D01*
X1190071Y339874D01*
X1190139Y339784D01*
X1190204Y339691D01*
X1190266Y339596D01*
X1190324Y339499D01*
X1190379Y339400D01*
X1190430Y339299D01*
X1190478Y339196D01*
X1190523Y339092D01*
X1190563Y338986D01*
X1190600Y338879D01*
X1190633Y338771D01*
X1190663Y338661D01*
X1190688Y338551D01*
X1190710Y338440D01*
X1190727Y338328D01*
X1190741Y338215D01*
X1190751Y338102D01*
X1190757Y337989D01*
X1190759Y337876D01*
X1190759Y332684D01*
X1190760Y332684D02*
X1190758Y332571D01*
X1190752Y332458D01*
X1190742Y332345D01*
X1190728Y332232D01*
X1190711Y332120D01*
X1190689Y332009D01*
X1190664Y331899D01*
X1190634Y331789D01*
X1190601Y331681D01*
X1190564Y331574D01*
X1190524Y331468D01*
X1190479Y331364D01*
X1190431Y331261D01*
X1190380Y331160D01*
X1190325Y331061D01*
X1190267Y330964D01*
X1190205Y330869D01*
X1190140Y330776D01*
X1190072Y330686D01*
X1190001Y330598D01*
X1189926Y330512D01*
X1189849Y330429D01*
X1189769Y330349D01*
X1189686Y330272D01*
X1189600Y330197D01*
X1189512Y330126D01*
X1189422Y330058D01*
X1189329Y329993D01*
X1189234Y329931D01*
X1189137Y329873D01*
X1189038Y329818D01*
X1188937Y329767D01*
X1188834Y329719D01*
X1188730Y329674D01*
X1188624Y329634D01*
X1188517Y329597D01*
X1188409Y329564D01*
X1188299Y329534D01*
X1188189Y329509D01*
X1188078Y329487D01*
X1187966Y329470D01*
X1187853Y329456D01*
X1187740Y329446D01*
X1187627Y329440D01*
X1187514Y329438D01*
X1187513Y329438D02*
X1184268Y329438D01*
X1196483Y329438D02*
X1201675Y329438D01*
X1196483Y329438D02*
X1196483Y341122D01*
X1201675Y341122D01*
X1200377Y335929D02*
X1196483Y335929D01*
X1206479Y341122D02*
X1206479Y329438D01*
X1210373Y334631D02*
X1206479Y341122D01*
X1210373Y334631D02*
X1214268Y341122D01*
X1214268Y329438D01*
X1222264Y329438D02*
X1224861Y329438D01*
X1222264Y329438D02*
X1222165Y329440D01*
X1222065Y329446D01*
X1221966Y329455D01*
X1221868Y329468D01*
X1221770Y329485D01*
X1221672Y329506D01*
X1221576Y329531D01*
X1221481Y329559D01*
X1221387Y329591D01*
X1221294Y329626D01*
X1221202Y329665D01*
X1221112Y329708D01*
X1221024Y329753D01*
X1220937Y329803D01*
X1220853Y329855D01*
X1220770Y329911D01*
X1220690Y329969D01*
X1220612Y330031D01*
X1220537Y330096D01*
X1220464Y330164D01*
X1220394Y330234D01*
X1220326Y330307D01*
X1220261Y330382D01*
X1220199Y330460D01*
X1220141Y330540D01*
X1220085Y330623D01*
X1220033Y330707D01*
X1219983Y330794D01*
X1219938Y330882D01*
X1219895Y330972D01*
X1219856Y331064D01*
X1219821Y331157D01*
X1219789Y331251D01*
X1219761Y331346D01*
X1219736Y331442D01*
X1219715Y331540D01*
X1219698Y331638D01*
X1219685Y331736D01*
X1219676Y331835D01*
X1219670Y331935D01*
X1219668Y332034D01*
X1219668Y338526D01*
X1219670Y338625D01*
X1219676Y338725D01*
X1219685Y338824D01*
X1219698Y338922D01*
X1219715Y339020D01*
X1219736Y339118D01*
X1219761Y339214D01*
X1219789Y339309D01*
X1219821Y339403D01*
X1219856Y339496D01*
X1219895Y339588D01*
X1219938Y339678D01*
X1219983Y339766D01*
X1220033Y339853D01*
X1220085Y339937D01*
X1220141Y340020D01*
X1220199Y340100D01*
X1220261Y340178D01*
X1220326Y340253D01*
X1220394Y340326D01*
X1220464Y340396D01*
X1220537Y340464D01*
X1220612Y340529D01*
X1220690Y340591D01*
X1220770Y340649D01*
X1220853Y340705D01*
X1220937Y340757D01*
X1221024Y340807D01*
X1221112Y340852D01*
X1221202Y340895D01*
X1221294Y340934D01*
X1221386Y340969D01*
X1221481Y341001D01*
X1221576Y341029D01*
X1221672Y341054D01*
X1221770Y341075D01*
X1221868Y341092D01*
X1221966Y341105D01*
X1222065Y341114D01*
X1222165Y341120D01*
X1222264Y341122D01*
X1224861Y341122D01*
X1229607Y341122D02*
X1229607Y332684D01*
X1229606Y332684D02*
X1229608Y332571D01*
X1229614Y332458D01*
X1229624Y332345D01*
X1229638Y332232D01*
X1229655Y332120D01*
X1229677Y332009D01*
X1229702Y331899D01*
X1229732Y331789D01*
X1229765Y331681D01*
X1229802Y331574D01*
X1229842Y331468D01*
X1229887Y331364D01*
X1229935Y331261D01*
X1229986Y331160D01*
X1230041Y331061D01*
X1230099Y330964D01*
X1230161Y330869D01*
X1230226Y330776D01*
X1230294Y330686D01*
X1230365Y330598D01*
X1230440Y330512D01*
X1230517Y330429D01*
X1230597Y330349D01*
X1230680Y330272D01*
X1230766Y330197D01*
X1230854Y330126D01*
X1230944Y330058D01*
X1231037Y329993D01*
X1231132Y329931D01*
X1231229Y329873D01*
X1231328Y329818D01*
X1231429Y329767D01*
X1231532Y329719D01*
X1231636Y329674D01*
X1231742Y329634D01*
X1231849Y329597D01*
X1231957Y329564D01*
X1232067Y329534D01*
X1232177Y329509D01*
X1232288Y329487D01*
X1232400Y329470D01*
X1232513Y329456D01*
X1232626Y329446D01*
X1232739Y329440D01*
X1232852Y329438D01*
X1232965Y329440D01*
X1233078Y329446D01*
X1233191Y329456D01*
X1233304Y329470D01*
X1233416Y329487D01*
X1233527Y329509D01*
X1233637Y329534D01*
X1233747Y329564D01*
X1233855Y329597D01*
X1233962Y329634D01*
X1234068Y329674D01*
X1234172Y329719D01*
X1234275Y329767D01*
X1234376Y329818D01*
X1234475Y329873D01*
X1234572Y329931D01*
X1234667Y329993D01*
X1234760Y330058D01*
X1234850Y330126D01*
X1234938Y330197D01*
X1235024Y330272D01*
X1235107Y330349D01*
X1235187Y330429D01*
X1235264Y330512D01*
X1235339Y330598D01*
X1235410Y330686D01*
X1235478Y330776D01*
X1235543Y330869D01*
X1235605Y330964D01*
X1235663Y331061D01*
X1235718Y331160D01*
X1235769Y331261D01*
X1235817Y331364D01*
X1235862Y331468D01*
X1235902Y331574D01*
X1235939Y331681D01*
X1235972Y331789D01*
X1236002Y331899D01*
X1236027Y332009D01*
X1236049Y332120D01*
X1236066Y332232D01*
X1236080Y332345D01*
X1236090Y332458D01*
X1236096Y332571D01*
X1236098Y332684D01*
X1236098Y341122D01*
D16*
X43500Y163496D02*
X16500Y163496D01*
X16500Y407496D01*
X43500Y407496D01*
X83500Y163496D02*
X110500Y163496D01*
X110500Y407496D01*
X83500Y407496D01*
D13*
X83058Y276345D02*
X91496Y276345D01*
X91609Y276347D01*
X91722Y276353D01*
X91835Y276363D01*
X91948Y276377D01*
X92060Y276394D01*
X92171Y276416D01*
X92281Y276441D01*
X92391Y276471D01*
X92499Y276504D01*
X92606Y276541D01*
X92712Y276581D01*
X92816Y276626D01*
X92919Y276674D01*
X93020Y276725D01*
X93119Y276780D01*
X93216Y276838D01*
X93311Y276900D01*
X93404Y276965D01*
X93494Y277033D01*
X93582Y277104D01*
X93668Y277179D01*
X93751Y277256D01*
X93831Y277336D01*
X93908Y277419D01*
X93983Y277505D01*
X94054Y277593D01*
X94122Y277683D01*
X94187Y277776D01*
X94249Y277871D01*
X94307Y277968D01*
X94362Y278067D01*
X94413Y278168D01*
X94461Y278271D01*
X94506Y278375D01*
X94546Y278481D01*
X94583Y278588D01*
X94616Y278696D01*
X94646Y278806D01*
X94671Y278916D01*
X94693Y279027D01*
X94710Y279139D01*
X94724Y279252D01*
X94734Y279365D01*
X94740Y279478D01*
X94742Y279591D01*
X94740Y279704D01*
X94734Y279817D01*
X94724Y279930D01*
X94710Y280043D01*
X94693Y280155D01*
X94671Y280266D01*
X94646Y280376D01*
X94616Y280486D01*
X94583Y280594D01*
X94546Y280701D01*
X94506Y280807D01*
X94461Y280911D01*
X94413Y281014D01*
X94362Y281115D01*
X94307Y281214D01*
X94249Y281311D01*
X94187Y281406D01*
X94122Y281499D01*
X94054Y281589D01*
X93983Y281677D01*
X93908Y281763D01*
X93831Y281846D01*
X93751Y281926D01*
X93668Y282003D01*
X93582Y282078D01*
X93494Y282149D01*
X93404Y282217D01*
X93311Y282282D01*
X93216Y282344D01*
X93119Y282402D01*
X93020Y282457D01*
X92919Y282508D01*
X92816Y282556D01*
X92712Y282601D01*
X92606Y282641D01*
X92499Y282678D01*
X92391Y282711D01*
X92281Y282741D01*
X92171Y282766D01*
X92060Y282788D01*
X91948Y282805D01*
X91835Y282819D01*
X91722Y282829D01*
X91609Y282835D01*
X91496Y282837D01*
X91496Y282836D02*
X83058Y282836D01*
X83058Y291726D02*
X83060Y291833D01*
X83066Y291939D01*
X83076Y292045D01*
X83089Y292151D01*
X83107Y292257D01*
X83128Y292361D01*
X83153Y292465D01*
X83182Y292568D01*
X83214Y292669D01*
X83251Y292769D01*
X83291Y292868D01*
X83334Y292966D01*
X83381Y293062D01*
X83432Y293156D01*
X83486Y293248D01*
X83543Y293338D01*
X83603Y293426D01*
X83667Y293511D01*
X83734Y293594D01*
X83804Y293675D01*
X83876Y293753D01*
X83952Y293829D01*
X84030Y293901D01*
X84111Y293971D01*
X84194Y294038D01*
X84279Y294102D01*
X84367Y294162D01*
X84457Y294219D01*
X84549Y294273D01*
X84643Y294324D01*
X84739Y294371D01*
X84837Y294414D01*
X84936Y294454D01*
X85036Y294491D01*
X85137Y294523D01*
X85240Y294552D01*
X85344Y294577D01*
X85448Y294598D01*
X85554Y294616D01*
X85660Y294629D01*
X85766Y294639D01*
X85872Y294645D01*
X85979Y294647D01*
X83058Y291726D02*
X83060Y291605D01*
X83066Y291484D01*
X83076Y291364D01*
X83089Y291243D01*
X83107Y291124D01*
X83128Y291004D01*
X83153Y290886D01*
X83182Y290769D01*
X83215Y290652D01*
X83251Y290537D01*
X83292Y290423D01*
X83335Y290310D01*
X83383Y290198D01*
X83434Y290089D01*
X83489Y289981D01*
X83547Y289874D01*
X83608Y289770D01*
X83673Y289668D01*
X83741Y289568D01*
X83812Y289470D01*
X83886Y289374D01*
X83963Y289281D01*
X84044Y289191D01*
X84127Y289103D01*
X84213Y289018D01*
X84302Y288935D01*
X84393Y288856D01*
X84487Y288779D01*
X84583Y288706D01*
X84681Y288636D01*
X84782Y288569D01*
X84885Y288505D01*
X84990Y288445D01*
X85097Y288387D01*
X85205Y288334D01*
X85315Y288284D01*
X85427Y288238D01*
X85540Y288195D01*
X85655Y288156D01*
X88251Y293673D02*
X88173Y293752D01*
X88093Y293828D01*
X88010Y293901D01*
X87924Y293971D01*
X87837Y294038D01*
X87746Y294102D01*
X87654Y294162D01*
X87560Y294220D01*
X87463Y294274D01*
X87365Y294324D01*
X87265Y294371D01*
X87164Y294415D01*
X87061Y294455D01*
X86956Y294491D01*
X86851Y294523D01*
X86744Y294552D01*
X86637Y294577D01*
X86528Y294599D01*
X86419Y294616D01*
X86310Y294630D01*
X86200Y294639D01*
X86089Y294645D01*
X85979Y294647D01*
X88251Y293673D02*
X94742Y288156D01*
X94742Y294647D01*
M02*
