G04 EAGLE Gerber RS-274X export*
G75*
%MOMM*%
%FSLAX34Y34*%
%LPD*%
%INSolderpaste Bottom*%
%IPPOS*%
%AMOC8*
5,1,8,0,0,1.08239X$1,22.5*%
G01*
%ADD10R,1.500000X1.300000*%
%ADD11R,1.300000X1.500000*%
%ADD12R,1.550000X1.400000*%
%ADD13R,1.100000X1.000000*%
%ADD14R,2.700000X1.600000*%
%ADD15R,1.600000X2.700000*%
%ADD16R,1.000000X1.100000*%
%ADD17R,0.650000X1.550000*%


D10*
X182372Y168300D03*
X182372Y187300D03*
X263652Y167792D03*
X263652Y186792D03*
X657860Y137516D03*
X657860Y118516D03*
D11*
X851560Y155956D03*
X870560Y155956D03*
D12*
X154940Y307846D03*
X180340Y307846D03*
X180340Y212346D03*
X154940Y212346D03*
X236220Y307846D03*
X261620Y307846D03*
X261620Y212346D03*
X236220Y212346D03*
X698500Y277366D03*
X723900Y277366D03*
X723900Y181866D03*
X698500Y181866D03*
X861060Y277366D03*
X886460Y277366D03*
X886460Y181866D03*
X861060Y181866D03*
D13*
X473320Y97536D03*
X456320Y97536D03*
D14*
X302260Y401096D03*
X302260Y373096D03*
D15*
X791240Y305816D03*
X763240Y305816D03*
D13*
X694300Y163576D03*
X677300Y163576D03*
D15*
X341600Y442976D03*
X369600Y442976D03*
X953800Y300736D03*
X925800Y300736D03*
D13*
X824856Y140208D03*
X807856Y140208D03*
D16*
X622808Y118500D03*
X622808Y135500D03*
D13*
X979796Y89408D03*
X962796Y89408D03*
X808600Y110744D03*
X791600Y110744D03*
D14*
X154940Y401096D03*
X154940Y373096D03*
D15*
X455960Y303276D03*
X427960Y303276D03*
D16*
X154432Y183252D03*
X154432Y166252D03*
D14*
X236220Y401096D03*
X236220Y373096D03*
D15*
X618520Y303276D03*
X590520Y303276D03*
D13*
X234560Y178816D03*
X217560Y178816D03*
D17*
X1278890Y167822D03*
X1266190Y167822D03*
X1253490Y167822D03*
X1240790Y167822D03*
X1228090Y167822D03*
X1215390Y167822D03*
X1202690Y167822D03*
X1189990Y167822D03*
X1189990Y222322D03*
X1202690Y222322D03*
X1215390Y222322D03*
X1228090Y222322D03*
X1240790Y222322D03*
X1253490Y222322D03*
X1266190Y222322D03*
X1278890Y222322D03*
D13*
X1203316Y286512D03*
X1186316Y286512D03*
M02*
