M48
;GenerationSoftware,Autodesk,EAGLE,9.6.0*%
;CreationDate,2020-06-09T10:56:03Z*%
FMAT,2
ICI,OFF
METRIC,TZ,000.000
T11C0.350
T10C0.835
T9C0.900
T8C0.960
T7C1.000
T6C1.016
T5C1.050
T4C1.300
T3C1.500
T2C1.600
T1C3.300
%
G90
M71
T1
X6553Y6401
X127305Y4877
X127356Y47955
T2
X83312Y22454
X59436Y22454
X59436Y37694
X67056Y40234
X67056Y32614
X67056Y22454
X42672Y22454
X99060Y32614
X42672Y37694
X50292Y40234
X99060Y40234
X50292Y32614
X91440Y22454
X91440Y37694
X50292Y22454
X83312Y32614
X83312Y40234
X75692Y37694
X75692Y22454
X99060Y22454
T3
X6350Y17250
X6350Y39850
T4
X97362Y49378
X102362Y49378
X75852Y49378
X8382Y49886
X3382Y49886
X85852Y49378
X59342Y49378
X80852Y49378
X69342Y49378
X42832Y49378
X47832Y49378
X52832Y49378
X92362Y49378
X64342Y49378
T5
X89532Y15596
X39116Y18390
X53216Y18390
X69596Y13056
X55496Y13056
X87376Y13056
X73276Y13056
X103632Y15596
T6
X17932Y7214
X17932Y4674
X17932Y2134
X23419Y7214
X23419Y4674
X23419Y2134
T7
X28194Y46076
X22194Y46076
X16194Y12476
X34194Y12476
T8
X48182Y14149
X45582Y14149
X42982Y14149
X64946Y18213
X62346Y18213
X59746Y18213
X81710Y17959
X79110Y17959
X76510Y17959
X98982Y12879
X96382Y12879
X93782Y12879
T9
X38991Y6885
X42527Y3349
T10
X131267Y12192
X131267Y14732
X131267Y17272
X131267Y19812
X131267Y22352
X131267Y24892
X131267Y27432
X131267Y29972
X131267Y32512
X131267Y35052
X131267Y37592
X131267Y40132
X131267Y42672
X131267Y45212
X108407Y45212
X108407Y40132
X108407Y37592
X108407Y35052
X108407Y32512
X108407Y29972
X108407Y27432
X108407Y24892
X108407Y22352
X108407Y19812
X108407Y17272
X108407Y14732
X108407Y12192
X108407Y9652
X131267Y9652
X108407Y42672
T11
X120294Y20320
X83718Y11786
X65837Y16256
X40234Y15850
X29667Y8128
X19507Y13411
X21539Y16256
X105258Y33731
X119685Y29261
X89408Y13005
X121310Y18898
X30886Y19101
X52832Y26010
X124155Y24790
X116637Y17475
X116637Y23165
X95098Y26010
X101194Y26416
X35357Y16662
X41656Y34138
X82804Y27534
X36068Y37186
X32004Y26010
X32004Y30582
X31699Y14630
M30